<svg xmlns="http://www.w3.org/2000/svg" width="459" height="37">
    <defs>
        <style type="text/css">
            @namespace "http://www.w3.org/2000/svg";
                .line                 {fill: none; stroke: #636273;}
                .bold-line            {stroke: #636273; shape-rendering: crispEdges; stroke-width: 2; }
                .thin-line            {stroke: #636273; shape-rendering: crispEdges}
                .filled               {fill: #636273; stroke: none;}
                text.terminal         {font-family: -apple-system, BlinkMacSystemFont, "Segoe UI", Roboto, Ubuntu, Cantarell, Helvetica, sans-serif;
                font-size: 12px;
                fill: #ffffff;
                font-weight: bold;
                }
                text.nonterminal      {font-family: -apple-system, BlinkMacSystemFont, "Segoe UI", Roboto, Ubuntu, Cantarell, Helvetica, sans-serif;
                font-size: 12px;
                fill: #e289a4;
                font-weight: normal;
                }
                text.regexp           {font-family: -apple-system, BlinkMacSystemFont, "Segoe UI", Roboto, Ubuntu, Cantarell, Helvetica, sans-serif;
                font-size: 12px;
                fill: #00141F;
                font-weight: normal;
                }
                rect, circle, polygon {fill: none; stroke: none;}
                rect.terminal         {fill: none; stroke: #be2f5b;}
                rect.nonterminal      {fill: rgba(255,255,255,0.1); stroke: none;}
                rect.text             {fill: none; stroke: none;}
                polygon.regexp        {fill: #C7ECFF; stroke: #038cbc;}
        </style>
    </defs>
    <polygon points="9 17 1 13 1 21"/>
    <polygon points="17 17 9 13 9 21"/><a xmlns:xlink="http://www.w3.org/1999/xlink" xlink:href="#alter" xlink:title="alter">
    <rect x="31" y="3" width="48" height="32"/>
    <rect x="29" y="1" width="48" height="32" class="nonterminal"/>
    <text class="nonterminal" x="39" y="21">alter</text></a><a xmlns:xlink="http://www.w3.org/1999/xlink" xlink:href="#column" xlink:title="column">
    <rect x="99" y="3" width="64" height="32"/>
    <rect x="97" y="1" width="64" height="32" class="nonterminal"/>
    <text class="nonterminal" x="107" y="21">column</text></a><rect x="183" y="3" width="110" height="32" rx="10"/>
    <rect x="181" y="1" width="110" height="32" class="terminal" rx="10"/>
    <text class="terminal" x="191" y="21">column name</text><a xmlns:xlink="http://www.w3.org/1999/xlink" xlink:href="#add" xlink:title="add">
    <rect x="313" y="3" width="44" height="32"/>
    <rect x="311" y="1" width="44" height="32" class="nonterminal"/>
    <text class="nonterminal" x="321" y="21">add</text></a><a xmlns:xlink="http://www.w3.org/1999/xlink" xlink:href="#index" xlink:title="index">
    <rect x="377" y="3" width="54" height="32"/>
    <rect x="375" y="1" width="54" height="32" class="nonterminal"/>
    <text class="nonterminal" x="385" y="21">index</text></a><path xmlns:svg="http://www.w3.org/2000/svg" class="line" d="m17 17 h2 m0 0 h10 m48 0 h10 m0 0 h10 m64 0 h10 m0 0 h10 m110 0 h10 m0 0 h10 m44 0 h10 m0 0 h10 m54 0 h10 m3 0 h-3"/>
    <polygon points="449 17 457 13 457 21"/>
    <polygon points="449 17 441 13 441 21"/></svg>
