<svg xmlns="http://www.w3.org/2000/svg" width="379" height="81">
    <defs>
        <style type="text/css">
            @namespace "http://www.w3.org/2000/svg";
                .line                 {fill: none; stroke: #636273;}
                .bold-line            {stroke: #636273; shape-rendering: crispEdges; stroke-width: 2; }
                .thin-line            {stroke: #636273; shape-rendering: crispEdges}
                .filled               {fill: #636273; stroke: none;}
                text.terminal         {font-family: -apple-system, BlinkMacSystemFont, "Segoe UI", Roboto, Ubuntu, Cantarell, Helvetica, sans-serif;
                font-size: 12px;
                fill: #ffffff;
                font-weight: bold;
                }
                text.nonterminal      {font-family: -apple-system, BlinkMacSystemFont, "Segoe UI", Roboto, Ubuntu, Cantarell, Helvetica, sans-serif;
                font-size: 12px;
                fill: #e289a4;
                font-weight: normal;
                }
                text.regexp           {font-family: -apple-system, BlinkMacSystemFont, "Segoe UI", Roboto, Ubuntu, Cantarell, Helvetica, sans-serif;
                font-size: 12px;
                fill: #00141F;
                font-weight: normal;
                }
                rect, circle, polygon {fill: none; stroke: none;}
                rect.terminal         {fill: none; stroke: #be2f5b;}
                rect.nonterminal      {fill: rgba(255,255,255,0.1); stroke: none;}
                rect.text             {fill: none; stroke: none;}
                polygon.regexp        {fill: #C7ECFF; stroke: #038cbc;}
        </style>
    </defs>
    <polygon points="9 61 1 57 1 65"/>
    <polygon points="17 61 9 57 9 65"/><a xmlns:xlink="http://www.w3.org/1999/xlink" xlink:href="#drop" xlink:title="drop">
    <rect x="31" y="47" width="48" height="32"/>
    <rect x="29" y="45" width="48" height="32" class="nonterminal"/>
    <text class="nonterminal" x="39" y="65">drop</text></a><a xmlns:xlink="http://www.w3.org/1999/xlink" xlink:href="#partition" xlink:title="partition">
    <rect x="99" y="47" width="74" height="32"/>
    <rect x="97" y="45" width="74" height="32" class="nonterminal"/>
    <text class="nonterminal" x="107" y="65">partition</text></a><rect x="213" y="47" width="118" height="32" rx="10"/>
    <rect x="211" y="45" width="118" height="32" class="terminal" rx="10"/>
    <text class="terminal" x="221" y="65">partition name</text>
    <rect x="213" y="3" width="24" height="32" rx="10"/>
    <rect x="211" y="1" width="24" height="32" class="terminal" rx="10"/>
    <text class="terminal" x="221" y="21">,</text>
    <path xmlns:svg="http://www.w3.org/2000/svg" class="line" d="m17 61 h2 m0 0 h10 m48 0 h10 m0 0 h10 m74 0 h10 m20 0 h10 m118 0 h10 m-158 0 l20 0 m-1 0 q-9 0 -9 -10 l0 -24 q0 -10 10 -10 m138 44 l20 0 m-20 0 q10 0 10 -10 l0 -24 q0 -10 -10 -10 m-138 0 h10 m24 0 h10 m0 0 h94 m23 44 h-3"/>
    <polygon points="369 61 377 57 377 65"/>
    <polygon points="369 61 361 57 361 65"/></svg>
