<svg xmlns="http://www.w3.org/2000/svg" width="361" height="125">
    <defs>
        <style type="text/css">
            @namespace "http://www.w3.org/2000/svg";
                .line                 {fill: none; stroke: #636273;}
                .bold-line            {stroke: #636273; shape-rendering: crispEdges; stroke-width: 2; }
                .thin-line            {stroke: #636273; shape-rendering: crispEdges}
                .filled               {fill: #636273; stroke: none;}
                text.terminal         {font-family: -apple-system, BlinkMacSystemFont, "Segoe UI", Roboto, Ubuntu, Cantarell, Helvetica, sans-serif;
                font-size: 12px;
                fill: #ffffff;
                font-weight: bold;
                }
                text.nonterminal      {font-family: -apple-system, BlinkMacSystemFont, "Segoe UI", Roboto, Ubuntu, Cantarell, Helvetica, sans-serif;
                font-size: 12px;
                fill: #e289a4;
                font-weight: normal;
                }
                text.regexp           {font-family: -apple-system, BlinkMacSystemFont, "Segoe UI", Roboto, Ubuntu, Cantarell, Helvetica, sans-serif;
                font-size: 12px;
                fill: #00141F;
                font-weight: normal;
                }
                rect, circle, polygon {fill: none; stroke: none;}
                rect.terminal         {fill: none; stroke: #be2f5b;}
                rect.nonterminal      {fill: rgba(255,255,255,0.1); stroke: none;}
                rect.text             {fill: none; stroke: none;}
                polygon.regexp        {fill: #C7ECFF; stroke: #038cbc;}
        </style>
    </defs>
    <polygon points="9 17 1 13 1 21"/>
    <polygon points="17 17 9 13 9 21"/><a xmlns:xlink="http://www.w3.org/1999/xlink" xlink:href="#alter" xlink:title="alter">
    <rect x="31" y="3" width="48" height="32"/>
    <rect x="29" y="1" width="48" height="32" class="nonterminal"/>
    <text class="nonterminal" x="39" y="21">alter</text></a><a xmlns:xlink="http://www.w3.org/1999/xlink" xlink:href="#table" xlink:title="table">
    <rect x="99" y="3" width="52" height="32"/>
    <rect x="97" y="1" width="52" height="32" class="nonterminal"/>
    <text class="nonterminal" x="107" y="21">table</text></a><rect x="171" y="3" width="54" height="32" rx="10"/>
    <rect x="169" y="1" width="54" height="32" class="terminal" rx="10"/>
    <text class="terminal" x="179" y="21">table</text><a xmlns:xlink="http://www.w3.org/1999/xlink" xlink:href="#add" xlink:title="add">
    <rect x="265" y="3" width="44" height="32"/>
    <rect x="263" y="1" width="44" height="32" class="nonterminal"/>
    <text class="nonterminal" x="273" y="21">add</text></a><a xmlns:xlink="http://www.w3.org/1999/xlink" xlink:href="#drop" xlink:title="drop">
    <rect x="265" y="47" width="48" height="32"/>
    <rect x="263" y="45" width="48" height="32" class="nonterminal"/>
    <text class="nonterminal" x="273" y="65">drop</text></a><a xmlns:xlink="http://www.w3.org/1999/xlink" xlink:href="#alter" xlink:title="alter">
    <rect x="265" y="91" width="48" height="32"/>
    <rect x="263" y="89" width="48" height="32" class="nonterminal"/>
    <text class="nonterminal" x="273" y="109">alter</text></a><path xmlns:svg="http://www.w3.org/2000/svg" class="line" d="m17 17 h2 m0 0 h10 m48 0 h10 m0 0 h10 m52 0 h10 m0 0 h10 m54 0 h10 m20 0 h10 m44 0 h10 m0 0 h4 m-88 0 h20 m68 0 h20 m-108 0 q10 0 10 10 m88 0 q0 -10 10 -10 m-98 10 v24 m88 0 v-24 m-88 24 q0 10 10 10 m68 0 q10 0 10 -10 m-78 10 h10 m48 0 h10 m-78 -10 v20 m88 0 v-20 m-88 20 v24 m88 0 v-24 m-88 24 q0 10 10 10 m68 0 q10 0 10 -10 m-78 10 h10 m48 0 h10 m23 -88 h-3"/>
    <polygon points="351 17 359 13 359 21"/>
    <polygon points="351 17 343 13 343 21"/></svg>
