<svg xmlns="http://www.w3.org/2000/svg" width="779" height="85">
    <defs>
        <style type="text/css">
            @namespace "http://www.w3.org/2000/svg";
                .line                 {fill: none; stroke: #636273;}
                .bold-line            {stroke: #636273; shape-rendering: crispEdges; stroke-width: 2; }
                .thin-line            {stroke: #636273; shape-rendering: crispEdges}
                .filled               {fill: #636273; stroke: none;}
                text.terminal         {font-family: -apple-system, BlinkMacSystemFont, "Segoe UI", Roboto, Ubuntu, Cantarell, Helvetica, sans-serif;
                font-size: 12px;
                fill: #ffffff;
                font-weight: bold;
                }
                text.nonterminal      {font-family: -apple-system, BlinkMacSystemFont, "Segoe UI", Roboto, Ubuntu, Cantarell, Helvetica, sans-serif;
                font-size: 12px;
                fill: #e289a4;
                font-weight: normal;
                }
                text.regexp           {font-family: -apple-system, BlinkMacSystemFont, "Segoe UI", Roboto, Ubuntu, Cantarell, Helvetica, sans-serif;
                font-size: 12px;
                fill: #00141F;
                font-weight: normal;
                }
                rect, circle, polygon {fill: none; stroke: none;}
                rect.terminal         {fill: none; stroke: #be2f5b;}
                rect.nonterminal      {fill: rgba(255,255,255,0.1); stroke: none;}
                rect.text             {fill: none; stroke: none;}
                polygon.regexp        {fill: #C7ECFF; stroke: #038cbc;}
        </style>
    </defs>
    <polygon points="9 33 1 29 1 37"/>
    <polygon points="17 33 9 29 9 37"/>
    <rect x="31" y="19" width="56" height="32" rx="10"/>
    <rect x="29" y="17" width="56" height="32" class="terminal" rx="10"/>
    <text class="terminal" x="39" y="37">CASE</text>
    <rect x="147" y="19" width="62" height="32" rx="10"/>
    <rect x="145" y="17" width="62" height="32" class="terminal" rx="10"/>
    <text class="terminal" x="155" y="37">WHEN</text><a xmlns:xlink="http://www.w3.org/1999/xlink" xlink:href="#condition" xlink:title="condition">
    <rect x="229" y="19" width="78" height="32"/>
    <rect x="227" y="17" width="78" height="32" class="nonterminal"/>
    <text class="nonterminal" x="237" y="37">condition</text></a><rect x="327" y="19" width="56" height="32" rx="10"/>
    <rect x="325" y="17" width="56" height="32" class="terminal" rx="10"/>
    <text class="terminal" x="335" y="37">THEN</text><a xmlns:xlink="http://www.w3.org/1999/xlink" xlink:href="#value" xlink:title="value">
    <rect x="403" y="19" width="54" height="32"/>
    <rect x="401" y="17" width="54" height="32" class="nonterminal"/>
    <text class="nonterminal" x="411" y="37">value</text></a><rect x="537" y="51" width="52" height="32" rx="10"/>
    <rect x="535" y="49" width="52" height="32" class="terminal" rx="10"/>
    <text class="terminal" x="545" y="69">ELSE</text><a xmlns:xlink="http://www.w3.org/1999/xlink" xlink:href="#value" xlink:title="value">
    <rect x="609" y="51" width="54" height="32"/>
    <rect x="607" y="49" width="54" height="32" class="nonterminal"/>
    <text class="nonterminal" x="617" y="69">value</text></a><rect x="703" y="19" width="48" height="32" rx="10"/>
    <rect x="701" y="17" width="48" height="32" class="terminal" rx="10"/>
    <text class="terminal" x="711" y="37">END</text>
    <path xmlns:svg="http://www.w3.org/2000/svg" class="line" d="m17 33 h2 m0 0 h10 m56 0 h10 m40 0 h10 m62 0 h10 m0 0 h10 m78 0 h10 m0 0 h10 m56 0 h10 m0 0 h10 m54 0 h10 m-350 0 l20 0 m-1 0 q-9 0 -9 -10 l0 -12 q0 -10 10 -10 m330 32 l20 0 m-20 0 q10 0 10 -10 l0 -12 q0 -10 -10 -10 m-330 0 h10 m0 0 h320 m-370 32 h20 m370 0 h20 m-410 0 q10 0 10 10 m390 0 q0 -10 10 -10 m-400 10 v14 m390 0 v-14 m-390 14 q0 10 10 10 m370 0 q10 0 10 -10 m-380 10 h10 m0 0 h360 m40 -34 h10 m0 0 h136 m-166 0 h20 m146 0 h20 m-186 0 q10 0 10 10 m166 0 q0 -10 10 -10 m-176 10 v12 m166 0 v-12 m-166 12 q0 10 10 10 m146 0 q10 0 10 -10 m-156 10 h10 m52 0 h10 m0 0 h10 m54 0 h10 m20 -32 h10 m48 0 h10 m3 0 h-3"/>
    <polygon points="769 33 777 29 777 37"/>
    <polygon points="769 33 761 29 761 37"/></svg>
