<svg xmlns="http://www.w3.org/2000/svg" width="449" height="37">
    <defs>
        <style type="text/css">
            @namespace "http://www.w3.org/2000/svg";
                .line                 {fill: none; stroke: #636273;}
                .bold-line            {stroke: #636273; shape-rendering: crispEdges; stroke-width: 2; }
                .thin-line            {stroke: #636273; shape-rendering: crispEdges}
                .filled               {fill: #636273; stroke: none;}
                text.terminal         {font-family: -apple-system, BlinkMacSystemFont, "Segoe UI", Roboto, Ubuntu, Cantarell, Helvetica, sans-serif;
                font-size: 12px;
                fill: #ffffff;
                font-weight: bold;
                }
                text.nonterminal      {font-family: -apple-system, BlinkMacSystemFont, "Segoe UI", Roboto, Ubuntu, Cantarell, Helvetica, sans-serif;
                font-size: 12px;
                fill: #e289a4;
                font-weight: normal;
                }
                text.regexp           {font-family: -apple-system, BlinkMacSystemFont, "Segoe UI", Roboto, Ubuntu, Cantarell, Helvetica, sans-serif;
                font-size: 12px;
                fill: #00141F;
                font-weight: normal;
                }
                rect, circle, polygon {fill: none; stroke: none;}
                rect.terminal         {fill: none; stroke: #be2f5b;}
                rect.nonterminal      {fill: rgba(255,255,255,0.1); stroke: none;}
                rect.text             {fill: none; stroke: none;}
                polygon.regexp        {fill: #C7ECFF; stroke: #038cbc;}
        </style>
    </defs>
    <polygon points="9 17 1 13 1 21"/>
    <polygon points="17 17 9 13 9 21"/>
    <rect x="31" y="3" width="48" height="32" rx="10"/>
    <rect x="29" y="1" width="48" height="32" class="terminal" rx="10"/>
    <text class="terminal" x="39" y="21">cast</text>
    <rect x="99" y="3" width="26" height="32" rx="10"/>
    <rect x="97" y="1" width="26" height="32" class="terminal" rx="10"/>
    <text class="terminal" x="107" y="21">(</text><a xmlns:xlink="http://www.w3.org/1999/xlink" xlink:href="#columnRef" xlink:title="columnRef">
    <rect x="145" y="3" width="86" height="32"/>
    <rect x="143" y="1" width="86" height="32" class="nonterminal"/>
    <text class="nonterminal" x="153" y="21">columnRef</text></a><rect x="251" y="3" width="34" height="32" rx="10"/>
    <rect x="249" y="1" width="34" height="32" class="terminal" rx="10"/>
    <text class="terminal" x="259" y="21">as</text><a xmlns:xlink="http://www.w3.org/1999/xlink" xlink:href="#typeDef" xlink:title="typeDef">
    <rect x="305" y="3" width="70" height="32"/>
    <rect x="303" y="1" width="70" height="32" class="nonterminal"/>
    <text class="nonterminal" x="313" y="21">typeDef</text></a><rect x="395" y="3" width="26" height="32" rx="10"/>
    <rect x="393" y="1" width="26" height="32" class="terminal" rx="10"/>
    <text class="terminal" x="403" y="21">)</text>
    <path xmlns:svg="http://www.w3.org/2000/svg" class="line" d="m17 17 h2 m0 0 h10 m48 0 h10 m0 0 h10 m26 0 h10 m0 0 h10 m86 0 h10 m0 0 h10 m34 0 h10 m0 0 h10 m70 0 h10 m0 0 h10 m26 0 h10 m3 0 h-3"/>
    <polygon points="439 17 447 13 447 21"/>
    <polygon points="439 17 431 13 431 21"/></svg>
