<svg xmlns="http://www.w3.org/2000/svg" width="765" height="113">
        <defs>
            <style type="text/css">
                @namespace "http://www.w3.org/2000/svg";
                .line                 {fill: none; stroke: #636273;}
                .bold-line            {stroke: #636273; shape-rendering: crispEdges; stroke-width: 2; }
                .thin-line            {stroke: #636273; shape-rendering: crispEdges}
                .filled               {fill: #636273; stroke: none;}
                text.terminal         {font-family: -apple-system, BlinkMacSystemFont, "Segoe UI", Roboto, Ubuntu, Cantarell, Helvetica, sans-serif;
                font-size: 12px;
                fill: #ffffff;
                font-weight: bold;
                }
                text.nonterminal      {font-family: -apple-system, BlinkMacSystemFont, "Segoe UI", Roboto, Ubuntu, Cantarell, Helvetica, sans-serif;
                font-size: 12px;
                fill: #e289a4;
                font-weight: normal;
                }
                text.regexp           {font-family: -apple-system, BlinkMacSystemFont, "Segoe UI", Roboto, Ubuntu, Cantarell, Helvetica, sans-serif;
                font-size: 12px;
                fill: #00141F;
                font-weight: normal;
                }
                rect, circle, polygon {fill: none; stroke: none;}
                rect.terminal         {fill: none; stroke: #be2f5b;}
                rect.nonterminal      {fill: rgba(255,255,255,0.1); stroke: none;}
                rect.text             {fill: none; stroke: none;}
                polygon.regexp        {fill: #C7ECFF; stroke: #038cbc;}
            </style>
        </defs>
        <polygon points="9 17 1 13 1 21"/>
        <polygon points="17 17 9 13 9 21"/>
        <rect x="31" y="3" width="58" height="32" rx="10"/>
        <rect x="29" y="1" width="58" height="32" class="terminal" rx="10"/>
        <text class="terminal" x="39" y="21">COPY</text><a xmlns:xlink="http://www.w3.org/1999/xlink" xlink:href="#tableName" xlink:title="tableName">
        <rect x="109" y="3" width="88" height="32"/>
        <rect x="107" y="1" width="88" height="32" class="nonterminal"/>
        <text class="nonterminal" x="117" y="21">tableName</text></a><rect x="217" y="3" width="60" height="32" rx="10"/>
        <rect x="215" y="1" width="60" height="32" class="terminal" rx="10"/>
        <text class="terminal" x="225" y="21">FROM</text><a xmlns:xlink="http://www.w3.org/1999/xlink" xlink:href="#fileName" xlink:title="fileName">
        <rect x="297" y="3" width="74" height="32"/>
        <rect x="295" y="1" width="74" height="32" class="nonterminal"/>
        <text class="nonterminal" x="305" y="21">fileName</text></a><rect x="411" y="35" width="58" height="32" rx="10"/>
        <rect x="409" y="33" width="58" height="32" class="terminal" rx="10"/>
        <text class="terminal" x="419" y="53">WITH</text>
        <rect x="489" y="35" width="74" height="32" rx="10"/>
        <rect x="487" y="33" width="74" height="32" class="terminal" rx="10"/>
        <text class="terminal" x="497" y="53">HEADER</text><a xmlns:xlink="http://www.w3.org/1999/xlink" xlink:href="#true" xlink:title="true">
        <rect x="603" y="35" width="46" height="32"/>
        <rect x="601" y="33" width="46" height="32" class="nonterminal"/>
        <text class="nonterminal" x="611" y="53">true</text></a><a xmlns:xlink="http://www.w3.org/1999/xlink" xlink:href="#false" xlink:title="false">
        <rect x="603" y="79" width="50" height="32"/>
        <rect x="601" y="77" width="50" height="32" class="nonterminal"/>
        <text class="nonterminal" x="611" y="97">false</text></a><rect x="713" y="3" width="24" height="32" rx="10"/>
        <rect x="711" y="1" width="24" height="32" class="terminal" rx="10"/>
        <text class="terminal" x="721" y="21">;</text>
        <path xmlns:svg="http://www.w3.org/2000/svg" class="line" d="m17 17 h2 m0 0 h10 m58 0 h10 m0 0 h10 m88 0 h10 m0 0 h10 m60 0 h10 m0 0 h10 m74 0 h10 m20 0 h10 m0 0 h272 m-302 0 h20 m282 0 h20 m-322 0 q10 0 10 10 m302 0 q0 -10 10 -10 m-312 10 v12 m302 0 v-12 m-302 12 q0 10 10 10 m282 0 q10 0 10 -10 m-292 10 h10 m58 0 h10 m0 0 h10 m74 0 h10 m20 0 h10 m46 0 h10 m0 0 h4 m-90 0 h20 m70 0 h20 m-110 0 q10 0 10 10 m90 0 q0 -10 10 -10 m-100 10 v24 m90 0 v-24 m-90 24 q0 10 10 10 m70 0 q10 0 10 -10 m-80 10 h10 m50 0 h10 m40 -76 h10 m24 0 h10 m3 0 h-3"/>
        <polygon points="755 17 763 13 763 21"/>
        <polygon points="755 17 747 13 747 21"/></svg>
