<svg xmlns="http://www.w3.org/2000/svg" width="741" height="479">
    <defs>
        <style type="text/css">
            @namespace "http://www.w3.org/2000/svg";
            .line                 {fill: none; stroke: #636273;}
            .bold-line            {stroke: #636273; shape-rendering: crispEdges; stroke-width: 2; }
            .thin-line            {stroke: #636273; shape-rendering: crispEdges}
            .filled               {fill: #636273; stroke: none;}
            text.terminal         {font-family: -apple-system, BlinkMacSystemFont, "Segoe UI", Roboto, Ubuntu, Cantarell, Helvetica, sans-serif;
            font-size: 12px;
            fill: #ffffff;
            font-weight: bold;
            }
            text.nonterminal      {font-family: -apple-system, BlinkMacSystemFont, "Segoe UI", Roboto, Ubuntu, Cantarell, Helvetica, sans-serif;
            font-size: 12px;
            fill: #e289a4;
            font-weight: normal;
            }
            text.regexp           {font-family: -apple-system, BlinkMacSystemFont, "Segoe UI", Roboto, Ubuntu, Cantarell, Helvetica, sans-serif;
            font-size: 12px;
            fill: #00141F;
            font-weight: normal;
            }
            rect, circle, polygon {fill: none; stroke: none;}
            rect.terminal         {fill: none; stroke: #be2f5b;}
            rect.nonterminal      {fill: rgba(255,255,255,0.1); stroke: none;}
            rect.text             {fill: none; stroke: none;}
            polygon.regexp        {fill: #C7ECFF; stroke: #038cbc;}
        </style>
    </defs>
    <polygon points="9 17 1 13 1 21"/>
    <polygon points="17 17 9 13 9 21"/>
    <rect x="31" y="3" width="72" height="32" rx="10"/>
    <rect x="29" y="1" width="72" height="32" class="terminal" rx="10"/>
    <text class="terminal" x="39" y="21">CREATE</text>
    <rect x="123" y="3" width="62" height="32" rx="10"/>
    <rect x="121" y="1" width="62" height="32" class="terminal" rx="10"/>
    <text class="terminal" x="131" y="21">TABLE</text><a xmlns:xlink="http://www.w3.org/1999/xlink" xlink:href="#tableName" xlink:title="tableName">
    <rect x="205" y="3" width="88" height="32"/>
    <rect x="203" y="1" width="88" height="32" class="nonterminal"/>
    <text class="nonterminal" x="213" y="21">tableName</text></a><rect x="45" y="113" width="26" height="32" rx="10"/>
    <rect x="43" y="111" width="26" height="32" class="terminal" rx="10"/>
    <text class="terminal" x="53" y="131">(</text><a xmlns:xlink="http://www.w3.org/1999/xlink" xlink:href="#columnName" xlink:title="columnName">
    <rect x="111" y="113" width="102" height="32"/>
    <rect x="109" y="111" width="102" height="32" class="nonterminal"/>
    <text class="nonterminal" x="119" y="131">columnName</text></a><a xmlns:xlink="http://www.w3.org/1999/xlink" xlink:href="#typeDef" xlink:title="typeDef">
    <rect x="233" y="113" width="70" height="32"/>
    <rect x="231" y="111" width="70" height="32" class="nonterminal"/>
    <text class="nonterminal" x="241" y="131">typeDef</text></a><rect x="111" y="69" width="24" height="32" rx="10"/>
    <rect x="109" y="67" width="24" height="32" class="terminal" rx="10"/>
    <text class="terminal" x="119" y="87">,</text>
    <rect x="343" y="113" width="26" height="32" rx="10"/>
    <rect x="341" y="111" width="26" height="32" class="terminal" rx="10"/>
    <text class="terminal" x="351" y="131">)</text>
    <rect x="45" y="179" width="34" height="32" rx="10"/>
    <rect x="43" y="177" width="34" height="32" class="terminal" rx="10"/>
    <text class="terminal" x="53" y="197">as</text>
    <rect x="99" y="179" width="26" height="32" rx="10"/>
    <rect x="97" y="177" width="26" height="32" class="terminal" rx="10"/>
    <text class="terminal" x="107" y="197">(</text><a xmlns:xlink="http://www.w3.org/1999/xlink" xlink:href="#selectSql" xlink:title="selectSql">
    <rect x="145" y="179" width="76" height="32"/>
    <rect x="143" y="177" width="76" height="32" class="nonterminal"/>
    <text class="nonterminal" x="153" y="197">selectSql</text></a><rect x="241" y="179" width="26" height="32" rx="10"/>
    <rect x="239" y="177" width="26" height="32" class="terminal" rx="10"/>
    <text class="terminal" x="249" y="197">)</text>
    <rect x="327" y="179" width="24" height="32" rx="10"/>
    <rect x="325" y="177" width="24" height="32" class="terminal" rx="10"/>
    <text class="terminal" x="335" y="197">,</text><a xmlns:xlink="http://www.w3.org/1999/xlink" xlink:href="#castDef" xlink:title="castDef">
    <rect x="371" y="179" width="68" height="32"/>
    <rect x="369" y="177" width="68" height="32" class="nonterminal"/>
    <text class="nonterminal" x="379" y="197">castDef</text></a><rect x="539" y="179" width="24" height="32" rx="10"/>
    <rect x="537" y="177" width="24" height="32" class="terminal" rx="10"/>
    <text class="terminal" x="547" y="197">,</text><a xmlns:xlink="http://www.w3.org/1999/xlink" xlink:href="#indexDef" xlink:title="indexDef">
    <rect x="583" y="179" width="76" height="32"/>
    <rect x="581" y="177" width="76" height="32" class="nonterminal"/>
    <text class="nonterminal" x="591" y="197">indexDef</text></a><rect x="171" y="281" width="92" height="32" rx="10"/>
    <rect x="169" y="279" width="92" height="32" class="terminal" rx="10"/>
    <text class="terminal" x="179" y="299">timestamp</text><a xmlns:xlink="http://www.w3.org/1999/xlink" xlink:href="#columnRef" xlink:title="columnRef">
    <rect x="283" y="281" width="86" height="32"/>
    <rect x="281" y="279" width="86" height="32" class="nonterminal"/>
    <text class="nonterminal" x="291" y="299">columnRef</text></a><rect x="409" y="313" width="78" height="32" rx="10"/>
    <rect x="407" y="311" width="78" height="32" class="terminal" rx="10"/>
    <text class="terminal" x="417" y="331">partition</text>
    <rect x="507" y="313" width="36" height="32" rx="10"/>
    <rect x="505" y="311" width="36" height="32" class="terminal" rx="10"/>
    <text class="terminal" x="515" y="331">by</text>
    <rect x="583" y="313" width="58" height="32" rx="10"/>
    <rect x="581" y="311" width="58" height="32" class="terminal" rx="10"/>
    <text class="terminal" x="591" y="331">NONE</text>
    <rect x="583" y="357" width="48" height="32" rx="10"/>
    <rect x="581" y="355" width="48" height="32" class="terminal" rx="10"/>
    <text class="terminal" x="591" y="375">DAY</text>
    <rect x="583" y="401" width="70" height="32" rx="10"/>
    <rect x="581" y="399" width="70" height="32" class="terminal" rx="10"/>
    <text class="terminal" x="591" y="419">MONTH</text>
    <rect x="583" y="445" width="56" height="32" rx="10"/>
    <rect x="581" y="443" width="56" height="32" class="terminal" rx="10"/>
    <text class="terminal" x="591" y="463">YEAR</text>
    <path xmlns:svg="http://www.w3.org/2000/svg" class="line" d="m17 17 h2 m0 0 h10 m72 0 h10 m0 0 h10 m62 0 h10 m0 0 h10 m88 0 h10 m2 0 l2 0 m2 0 l2 0 m2 0 l2 0 m-312 110 l2 0 m2 0 l2 0 m2 0 l2 0 m22 0 h10 m26 0 h10 m20 0 h10 m102 0 h10 m0 0 h10 m70 0 h10 m-232 0 l20 0 m-1 0 q-9 0 -9 -10 l0 -24 q0 -10 10 -10 m212 44 l20 0 m-20 0 q10 0 10 -10 l0 -24 q0 -10 -10 -10 m-212 0 h10 m24 0 h10 m0 0 h168 m20 44 h10 m26 0 h10 m0 0 h330 m-694 0 h20 m674 0 h20 m-714 0 q10 0 10 10 m694 0 q0 -10 10 -10 m-704 10 v46 m694 0 v-46 m-694 46 q0 10 10 10 m674 0 q10 0 10 -10 m-684 10 h10 m34 0 h10 m0 0 h10 m26 0 h10 m0 0 h10 m76 0 h10 m0 0 h10 m26 0 h10 m40 0 h10 m24 0 h10 m0 0 h10 m68 0 h10 m-152 0 l20 0 m-1 0 q-9 0 -9 -10 l0 -12 q0 -10 10 -10 m132 32 l20 0 m-20 0 q10 0 10 -10 l0 -12 q0 -10 -10 -10 m-132 0 h10 m0 0 h122 m-172 32 h20 m172 0 h20 m-212 0 q10 0 10 10 m192 0 q0 -10 10 -10 m-202 10 v14 m192 0 v-14 m-192 14 q0 10 10 10 m172 0 q10 0 10 -10 m-182 10 h10 m0 0 h162 m60 -34 h10 m24 0 h10 m0 0 h10 m76 0 h10 m-160 0 l20 0 m-1 0 q-9 0 -9 -10 l0 -12 q0 -10 10 -10 m140 32 l20 0 m-20 0 q10 0 10 -10 l0 -12 q0 -10 -10 -10 m-140 0 h10 m0 0 h130 m-180 32 h20 m180 0 h20 m-220 0 q10 0 10 10 m200 0 q0 -10 10 -10 m-210 10 v14 m200 0 v-14 m-200 14 q0 10 10 10 m180 0 q10 0 10 -10 m-190 10 h10 m0 0 h170 m42 -100 l2 0 m2 0 l2 0 m2 0 l2 0 m-612 136 l2 0 m2 0 l2 0 m2 0 l2 0 m22 0 h10 m0 0 h532 m-562 0 h20 m542 0 h20 m-582 0 q10 0 10 10 m562 0 q0 -10 10 -10 m-572 10 v12 m562 0 v-12 m-562 12 q0 10 10 10 m542 0 q10 0 10 -10 m-552 10 h10 m92 0 h10 m0 0 h10 m86 0 h10 m20 0 h10 m0 0 h274 m-304 0 h20 m284 0 h20 m-324 0 q10 0 10 10 m304 0 q0 -10 10 -10 m-314 10 v12 m304 0 v-12 m-304 12 q0 10 10 10 m284 0 q10 0 10 -10 m-294 10 h10 m78 0 h10 m0 0 h10 m36 0 h10 m20 0 h10 m58 0 h10 m0 0 h12 m-110 0 h20 m90 0 h20 m-130 0 q10 0 10 10 m110 0 q0 -10 10 -10 m-120 10 v24 m110 0 v-24 m-110 24 q0 10 10 10 m90 0 q10 0 10 -10 m-100 10 h10 m48 0 h10 m0 0 h22 m-100 -10 v20 m110 0 v-20 m-110 20 v24 m110 0 v-24 m-110 24 q0 10 10 10 m90 0 q10 0 10 -10 m-100 10 h10 m70 0 h10 m-100 -10 v20 m110 0 v-20 m-110 20 v24 m110 0 v-24 m-110 24 q0 10 10 10 m90 0 q10 0 10 -10 m-100 10 h10 m56 0 h10 m0 0 h14 m63 -196 h-3"/>
    <polygon points="731 263 739 259 739 267"/>
    <polygon points="731 263 723 259 723 267"/></svg>
