<svg xmlns="http://www.w3.org/2000/svg" width="635" height="37">
    <defs>
        <style type="text/css">
            @namespace "http://www.w3.org/2000/svg";
                .line                 {fill: none; stroke: #636273;}
                .bold-line            {stroke: #636273; shape-rendering: crispEdges; stroke-width: 2; }
                .thin-line            {stroke: #636273; shape-rendering: crispEdges}
                .filled               {fill: #636273; stroke: none;}
                text.terminal         {font-family: -apple-system, BlinkMacSystemFont, "Segoe UI", Roboto, Ubuntu, Cantarell, Helvetica, sans-serif;
                font-size: 12px;
                fill: #ffffff;
                font-weight: bold;
                }
                text.nonterminal      {font-family: -apple-system, BlinkMacSystemFont, "Segoe UI", Roboto, Ubuntu, Cantarell, Helvetica, sans-serif;
                font-size: 12px;
                fill: #e289a4;
                font-weight: normal;
                }
                text.regexp           {font-family: -apple-system, BlinkMacSystemFont, "Segoe UI", Roboto, Ubuntu, Cantarell, Helvetica, sans-serif;
                font-size: 12px;
                fill: #00141F;
                font-weight: normal;
                }
                rect, circle, polygon {fill: none; stroke: none;}
                rect.terminal         {fill: none; stroke: #be2f5b;}
                rect.nonterminal      {fill: rgba(255,255,255,0.1); stroke: none;}
                rect.text             {fill: none; stroke: none;}
                polygon.regexp        {fill: #C7ECFF; stroke: #038cbc;}
        </style>
    </defs>
    <polygon points="9 17 1 13 1 21"/>
    <polygon points="17 17 9 13 9 21"/>
    <rect x="31" y="3" width="70" height="32" rx="10"/>
    <rect x="29" y="1" width="70" height="32" class="terminal" rx="10"/>
    <text class="terminal" x="39" y="21">SELECT</text><a xmlns:xlink="http://www.w3.org/1999/xlink" xlink:href="#someSelectStatement" xlink:title="someSelectStatement">
    <rect x="121" y="3" width="160" height="32"/>
    <rect x="119" y="1" width="160" height="32" class="nonterminal"/>
    <text class="nonterminal" x="129" y="21">someSelectStatement</text></a><rect x="301" y="3" width="92" height="32" rx="10"/>
    <rect x="299" y="1" width="92" height="32" class="terminal" rx="10"/>
    <text class="terminal" x="309" y="21">timestamp</text>
    <rect x="413" y="3" width="26" height="32" rx="10"/>
    <rect x="411" y="1" width="26" height="32" class="terminal" rx="10"/>
    <text class="terminal" x="421" y="21">(</text><a xmlns:xlink="http://www.w3.org/1999/xlink" xlink:href="#columnName" xlink:title="columnName">
    <rect x="459" y="3" width="102" height="32"/>
    <rect x="457" y="1" width="102" height="32" class="nonterminal"/>
    <text class="nonterminal" x="467" y="21">columnName</text></a><rect x="581" y="3" width="26" height="32" rx="10"/>
    <rect x="579" y="1" width="26" height="32" class="terminal" rx="10"/>
    <text class="terminal" x="589" y="21">)</text>
    <path xmlns:svg="http://www.w3.org/2000/svg" class="line" d="m17 17 h2 m0 0 h10 m70 0 h10 m0 0 h10 m160 0 h10 m0 0 h10 m92 0 h10 m0 0 h10 m26 0 h10 m0 0 h10 m102 0 h10 m0 0 h10 m26 0 h10 m3 0 h-3"/>
    <polygon points="625 17 633 13 633 21"/>
    <polygon points="625 17 617 13 617 21"/></svg>
