<svg xmlns="http://www.w3.org/2000/svg" width="467" height="81">
    <defs>
        <style type="text/css">
            @namespace "http://www.w3.org/2000/svg";
            .line                 {fill: none; stroke: #636273;}
            .bold-line            {stroke: #636273; shape-rendering: crispEdges; stroke-width: 2; }
            .thin-line            {stroke: #636273; shape-rendering: crispEdges}
            .filled               {fill: #636273; stroke: none;}
            text.terminal         {font-family: -apple-system, BlinkMacSystemFont, "Segoe UI", Roboto, Ubuntu, Cantarell, Helvetica, sans-serif;
            font-size: 12px;
            fill: #ffffff;
            font-weight: bold;
            }
            text.nonterminal      {font-family: -apple-system, BlinkMacSystemFont, "Segoe UI", Roboto, Ubuntu, Cantarell, Helvetica, sans-serif;
            font-size: 12px;
            fill: #e289a4;
            font-weight: normal;
            }
            text.regexp           {font-family: -apple-system, BlinkMacSystemFont, "Segoe UI", Roboto, Ubuntu, Cantarell, Helvetica, sans-serif;
            font-size: 12px;
            fill: #00141F;
            font-weight: normal;
            }
            rect, circle, polygon {fill: none; stroke: none;}
            rect.terminal         {fill: none; stroke: #be2f5b;}
            rect.nonterminal      {fill: rgba(255,255,255,0.1); stroke: none;}
            rect.text             {fill: none; stroke: none;}
            polygon.regexp        {fill: #C7ECFF; stroke: #038cbc;}
        </style>
    </defs>
    <polygon points="9 17 1 13 1 21"/>
    <polygon points="17 17 9 13 9 21"/><a xmlns:xlink="http://www.w3.org/1999/xlink" xlink:href="#leftInputQuery" xlink:title="leftInputQuery">
    <rect x="31" y="3" width="112" height="32"/>
    <rect x="29" y="1" width="112" height="32" class="nonterminal"/>
    <text class="nonterminal" x="39" y="21">leftInputQuery</text></a><rect x="183" y="3" width="72" height="32" rx="10"/>
    <rect x="181" y="1" width="72" height="32" class="terminal" rx="10"/>
    <text class="terminal" x="191" y="21">EXCEPT</text>
    <rect x="183" y="47" width="96" height="32" rx="10"/>
    <rect x="181" y="45" width="96" height="32" class="terminal" rx="10"/>
    <text class="terminal" x="191" y="65">INTERSECT</text><a xmlns:xlink="http://www.w3.org/1999/xlink" xlink:href="#rightInputQuery" xlink:title="rightInputQuery">
    <rect x="319" y="3" width="120" height="32"/>
    <rect x="317" y="1" width="120" height="32" class="nonterminal"/>
    <text class="nonterminal" x="327" y="21">rightInputQuery</text></a><path xmlns:svg="http://www.w3.org/2000/svg" class="line" d="m17 17 h2 m0 0 h10 m112 0 h10 m20 0 h10 m72 0 h10 m0 0 h24 m-136 0 h20 m116 0 h20 m-156 0 q10 0 10 10 m136 0 q0 -10 10 -10 m-146 10 v24 m136 0 v-24 m-136 24 q0 10 10 10 m116 0 q10 0 10 -10 m-126 10 h10 m96 0 h10 m20 -44 h10 m120 0 h10 m3 0 h-3"/>
    <polygon points="457 17 465 13 465 21"/>
    <polygon points="457 17 449 13 449 21"/></svg>