<svg xmlns="http://www.w3.org/2000/svg" width="503" height="69">
    <defs>
        <style type="text/css">
            @namespace "http://www.w3.org/2000/svg";
                .line                 {fill: none; stroke: #636273;}
                .bold-line            {stroke: #636273; shape-rendering: crispEdges; stroke-width: 2; }
                .thin-line            {stroke: #636273; shape-rendering: crispEdges}
                .filled               {fill: #636273; stroke: none;}
                text.terminal         {font-family: -apple-system, BlinkMacSystemFont, "Segoe UI", Roboto, Ubuntu, Cantarell, Helvetica, sans-serif;
                font-size: 12px;
                fill: #ffffff;
                font-weight: bold;
                }
                text.nonterminal      {font-family: -apple-system, BlinkMacSystemFont, "Segoe UI", Roboto, Ubuntu, Cantarell, Helvetica, sans-serif;
                font-size: 12px;
                fill: #e289a4;
                font-weight: normal;
                }
                text.regexp           {font-family: -apple-system, BlinkMacSystemFont, "Segoe UI", Roboto, Ubuntu, Cantarell, Helvetica, sans-serif;
                font-size: 12px;
                fill: #00141F;
                font-weight: normal;
                }
                rect, circle, polygon {fill: none; stroke: none;}
                rect.terminal         {fill: none; stroke: #be2f5b;}
                rect.nonterminal      {fill: rgba(255,255,255,0.1); stroke: none;}
                rect.text             {fill: none; stroke: none;}
                polygon.regexp        {fill: #C7ECFF; stroke: #038cbc;}
        </style>
    </defs>
    <polygon points="9 17 1 13 1 21"/>
    <polygon points="17 17 9 13 9 21"/>
    <rect x="31" y="3" width="56" height="32" rx="10"/>
    <rect x="29" y="1" width="56" height="32" class="terminal" rx="10"/>
    <text class="terminal" x="39" y="21">index</text>
    <rect x="107" y="3" width="26" height="32" rx="10"/>
    <rect x="105" y="1" width="26" height="32" class="terminal" rx="10"/>
    <text class="terminal" x="115" y="21">(</text><a xmlns:xlink="http://www.w3.org/1999/xlink" xlink:href="#columnRef" xlink:title="columnRef">
    <rect x="153" y="3" width="86" height="32"/>
    <rect x="151" y="1" width="86" height="32" class="nonterminal"/>
    <text class="nonterminal" x="161" y="21">columnRef</text></a><a xmlns:xlink="http://www.w3.org/1999/xlink" xlink:href="#indexCapacityDef" xlink:title="indexCapacityDef">
    <rect x="279" y="35" width="130" height="32"/>
    <rect x="277" y="33" width="130" height="32" class="nonterminal"/>
    <text class="nonterminal" x="287" y="53">indexCapacityDef</text></a><rect x="449" y="3" width="26" height="32" rx="10"/>
    <rect x="447" y="1" width="26" height="32" class="terminal" rx="10"/>
    <text class="terminal" x="457" y="21">)</text>
    <path xmlns:svg="http://www.w3.org/2000/svg" class="line" d="m17 17 h2 m0 0 h10 m56 0 h10 m0 0 h10 m26 0 h10 m0 0 h10 m86 0 h10 m20 0 h10 m0 0 h140 m-170 0 h20 m150 0 h20 m-190 0 q10 0 10 10 m170 0 q0 -10 10 -10 m-180 10 v12 m170 0 v-12 m-170 12 q0 10 10 10 m150 0 q10 0 10 -10 m-160 10 h10 m130 0 h10 m20 -32 h10 m26 0 h10 m3 0 h-3"/>
    <polygon points="493 17 501 13 501 21"/>
    <polygon points="493 17 485 13 485 21"/></svg>
