<svg xmlns="http://www.w3.org/2000/svg" width="831" height="157">
    <defs>
        <style type="text/css">
            @namespace "http://www.w3.org/2000/svg";
                .line                 {fill: none; stroke: #636273;}
                .bold-line            {stroke: #636273; shape-rendering: crispEdges; stroke-width: 2; }
                .thin-line            {stroke: #636273; shape-rendering: crispEdges}
                .filled               {fill: #636273; stroke: none;}
                text.terminal         {font-family: -apple-system, BlinkMacSystemFont, "Segoe UI", Roboto, Ubuntu, Cantarell, Helvetica, sans-serif;
                font-size: 12px;
                fill: #ffffff;
                font-weight: bold;
                }
                text.nonterminal      {font-family: -apple-system, BlinkMacSystemFont, "Segoe UI", Roboto, Ubuntu, Cantarell, Helvetica, sans-serif;
                font-size: 12px;
                fill: #e289a4;
                font-weight: normal;
                }
                text.regexp           {font-family: -apple-system, BlinkMacSystemFont, "Segoe UI", Roboto, Ubuntu, Cantarell, Helvetica, sans-serif;
                font-size: 12px;
                fill: #00141F;
                font-weight: normal;
                }
                rect, circle, polygon {fill: none; stroke: none;}
                rect.terminal         {fill: none; stroke: #be2f5b;}
                rect.nonterminal      {fill: rgba(255,255,255,0.1); stroke: none;}
                rect.text             {fill: none; stroke: none;}
                polygon.regexp        {fill: #C7ECFF; stroke: #038cbc;}
        </style>
    </defs>
    <polygon points="9 105 1 101 1 109"/>
    <polygon points="17 105 9 101 9 109"/><a xmlns:xlink="http://www.w3.org/1999/xlink" xlink:href="#Launch_Load_Balancing_Job" xlink:title="Launch_Load_Balancing_Job">
    <rect x="51" y="91" width="202" height="32"/>
    <rect x="49" y="89" width="202" height="32" class="nonterminal"/>
    <text class="nonterminal" x="59" y="109">Launch_Load_Balancing_Job</text></a><rect x="293" y="123" width="34" height="32" rx="10"/>
    <rect x="291" y="121" width="34" height="32" class="terminal" rx="10"/>
    <text class="terminal" x="301" y="141">IF</text><a xmlns:xlink="http://www.w3.org/1999/xlink" xlink:href="#load_ratio" xlink:title="load_ratio">
    <rect x="347" y="123" width="84" height="32"/>
    <rect x="345" y="121" width="84" height="32" class="nonterminal"/>
    <text class="nonterminal" x="355" y="141">load_ratio</text></a><rect x="451" y="123" width="30" height="32" rx="10"/>
    <rect x="449" y="121" width="30" height="32" class="terminal" rx="10"/>
    <text class="terminal" x="459" y="141">&gt;</text>
    <rect x="501" y="123" width="118" height="32" rx="10"/>
    <rect x="499" y="121" width="118" height="32" class="terminal" rx="10"/>
    <text class="terminal" x="509" y="141">max.load.ratio</text><a xmlns:xlink="http://www.w3.org/1999/xlink" xlink:href="#Rebalance_Load" xlink:title="Rebalance_Load">
    <rect x="639" y="123" width="124" height="32"/>
    <rect x="637" y="121" width="124" height="32" class="nonterminal"/>
    <text class="nonterminal" x="647" y="141">Rebalance_Load</text></a><rect x="71" y="3" width="202" height="32" rx="10"/>
    <rect x="69" y="1" width="202" height="32" class="terminal" rx="10"/>
    <text class="terminal" x="79" y="21">n.updates.per.load.balance</text>
    <rect x="293" y="3" width="30" height="32" rx="10"/>
    <rect x="291" y="1" width="30" height="32" class="terminal" rx="10"/>
    <text class="terminal" x="301" y="21">&lt;</text><a xmlns:xlink="http://www.w3.org/1999/xlink" xlink:href="#updates_since_last_rebalance" xlink:title="updates_since_last_rebalance">
    <rect x="343" y="3" width="214" height="32"/>
    <rect x="341" y="1" width="214" height="32" class="nonterminal"/>
    <text class="nonterminal" x="351" y="21">updates_since_last_rebalance</text></a><rect x="71" y="47" width="246" height="32" rx="10"/>
    <rect x="69" y="45" width="246" height="32" class="terminal" rx="10"/>
    <text class="terminal" x="79" y="65">maintenance.job.hysteresis.in.ms</text>
    <rect x="337" y="47" width="30" height="32" rx="10"/>
    <rect x="335" y="45" width="30" height="32" class="terminal" rx="10"/>
    <text class="terminal" x="345" y="65">&lt;</text><a xmlns:xlink="http://www.w3.org/1999/xlink" xlink:href="#time_since_last_rebalance" xlink:title="time_since_last_rebalance">
    <rect x="387" y="47" width="190" height="32"/>
    <rect x="385" y="45" width="190" height="32" class="nonterminal"/>
    <text class="nonterminal" x="395" y="65">time_since_last_rebalance</text></a><rect x="617" y="3" width="34" height="32" rx="10"/>
    <rect x="615" y="1" width="34" height="32" class="terminal" rx="10"/>
    <text class="terminal" x="625" y="21">IF</text>
    <path xmlns:svg="http://www.w3.org/2000/svg" class="line" d="m17 105 h2 m20 0 h10 m202 0 h10 m20 0 h10 m0 0 h480 m-510 0 h20 m490 0 h20 m-530 0 q10 0 10 10 m510 0 q0 -10 10 -10 m-520 10 v12 m510 0 v-12 m-510 12 q0 10 10 10 m490 0 q10 0 10 -10 m-500 10 h10 m34 0 h10 m0 0 h10 m84 0 h10 m0 0 h10 m30 0 h10 m0 0 h10 m118 0 h10 m0 0 h10 m124 0 h10 m-752 -32 l20 0 m-1 0 q-9 0 -9 -10 l0 -68 q0 -10 10 -10 m752 88 l20 0 m-20 0 q10 0 10 -10 l0 -68 q0 -10 -10 -10 m-732 0 h10 m202 0 h10 m0 0 h10 m30 0 h10 m0 0 h10 m214 0 h10 m0 0 h20 m-546 0 h20 m526 0 h20 m-566 0 q10 0 10 10 m546 0 q0 -10 10 -10 m-556 10 v24 m546 0 v-24 m-546 24 q0 10 10 10 m526 0 q10 0 10 -10 m-536 10 h10 m246 0 h10 m0 0 h10 m30 0 h10 m0 0 h10 m190 0 h10 m20 -44 h10 m34 0 h10 m0 0 h132 m23 88 h-3"/>
    <polygon points="821 105 829 101 829 109"/>
    <polygon points="821 105 813 101 813 109"/></svg>
