<svg xmlns="http://www.w3.org/2000/svg" width="945" height="125">
        <defs>
            <style type="text/css">
                @namespace "http://www.w3.org/2000/svg";
                .line                 {fill: none; stroke: #636273;}
                .bold-line            {stroke: #636273; shape-rendering: crispEdges; stroke-width: 2; }
                .thin-line            {stroke: #636273; shape-rendering: crispEdges}
                .filled               {fill: #636273; stroke: none;}
                text.terminal         {font-family: -apple-system, BlinkMacSystemFont, "Segoe UI", Roboto, Ubuntu, Cantarell, Helvetica, sans-serif;
                font-size: 12px;
                fill: #ffffff;
                font-weight: bold;
                }
                text.nonterminal      {font-family: -apple-system, BlinkMacSystemFont, "Segoe UI", Roboto, Ubuntu, Cantarell, Helvetica, sans-serif;
                font-size: 12px;
                fill: #e289a4;
                font-weight: normal;
                }
                text.regexp           {font-family: -apple-system, BlinkMacSystemFont, "Segoe UI", Roboto, Ubuntu, Cantarell, Helvetica, sans-serif;
                font-size: 12px;
                fill: #00141F;
                font-weight: normal;
                }
                rect, circle, polygon {fill: none; stroke: none;}
                rect.terminal         {fill: none; stroke: #be2f5b;}
                rect.nonterminal      {fill: rgba(255,255,255,0.1); stroke: none;}
                rect.text             {fill: none; stroke: none;}
                polygon.regexp        {fill: #C7ECFF; stroke: #038cbc;}
            </style>
        </defs>
        <polygon points="9 61 1 57 1 65"/>
        <polygon points="17 61 9 57 9 65"/>
        <rect x="31" y="47" width="70" height="32" rx="10"/>
        <rect x="29" y="45" width="70" height="32" class="terminal" rx="10"/>
        <text class="terminal" x="39" y="65">INSERT</text>
        <rect x="121" y="47" width="56" height="32" rx="10"/>
        <rect x="119" y="45" width="56" height="32" class="terminal" rx="10"/>
        <text class="terminal" x="129" y="65">INTO</text><a xmlns:xlink="http://www.w3.org/1999/xlink" xlink:href="#tableName" xlink:title="tableName">
        <rect x="197" y="47" width="88" height="32"/>
        <rect x="195" y="45" width="88" height="32" class="nonterminal"/>
        <text class="nonterminal" x="205" y="65">tableName</text></a><rect x="325" y="47" width="26" height="32" rx="10"/>
        <rect x="323" y="45" width="26" height="32" class="terminal" rx="10"/>
        <text class="terminal" x="333" y="65">(</text><a xmlns:xlink="http://www.w3.org/1999/xlink" xlink:href="#columnName" xlink:title="columnName">
        <rect x="391" y="47" width="102" height="32"/>
        <rect x="389" y="45" width="102" height="32" class="nonterminal"/>
        <text class="nonterminal" x="399" y="65">columnName</text></a><rect x="391" y="3" width="24" height="32" rx="10"/>
        <rect x="389" y="1" width="24" height="32" class="terminal" rx="10"/>
        <text class="terminal" x="399" y="21">,</text>
        <rect x="533" y="47" width="26" height="32" rx="10"/>
        <rect x="531" y="45" width="26" height="32" class="terminal" rx="10"/>
        <text class="terminal" x="541" y="65">)</text>
        <rect x="619" y="47" width="72" height="32" rx="10"/>
        <rect x="617" y="45" width="72" height="32" class="terminal" rx="10"/>
        <text class="terminal" x="627" y="65">VALUES</text>
        <rect x="711" y="47" width="26" height="32" rx="10"/>
        <rect x="709" y="45" width="26" height="32" class="terminal" rx="10"/>
        <text class="terminal" x="719" y="65">(</text><a xmlns:xlink="http://www.w3.org/1999/xlink" xlink:href="#value" xlink:title="value">
        <rect x="777" y="47" width="54" height="32"/>
        <rect x="775" y="45" width="54" height="32" class="nonterminal"/>
        <text class="nonterminal" x="785" y="65">value</text></a><rect x="777" y="3" width="24" height="32" rx="10"/>
        <rect x="775" y="1" width="24" height="32" class="terminal" rx="10"/>
        <text class="terminal" x="785" y="21">,</text>
        <rect x="871" y="47" width="26" height="32" rx="10"/>
        <rect x="869" y="45" width="26" height="32" class="terminal" rx="10"/>
        <text class="terminal" x="879" y="65">)</text>
        <rect x="619" y="91" width="70" height="32" rx="10"/>
        <rect x="617" y="89" width="70" height="32" class="terminal" rx="10"/>
        <text class="terminal" x="627" y="109">SELECT</text><a xmlns:xlink="http://www.w3.org/1999/xlink" xlink:href="#queryDef" xlink:title="queryDef">
        <rect x="709" y="91" width="78" height="32"/>
        <rect x="707" y="89" width="78" height="32" class="nonterminal"/>
        <text class="nonterminal" x="717" y="109">queryDef</text></a><path xmlns:svg="http://www.w3.org/2000/svg" class="line" d="m17 61 h2 m0 0 h10 m70 0 h10 m0 0 h10 m56 0 h10 m0 0 h10 m88 0 h10 m20 0 h10 m26 0 h10 m20 0 h10 m102 0 h10 m-142 0 l20 0 m-1 0 q-9 0 -9 -10 l0 -24 q0 -10 10 -10 m122 44 l20 0 m-20 0 q10 0 10 -10 l0 -24 q0 -10 -10 -10 m-122 0 h10 m24 0 h10 m0 0 h78 m20 44 h10 m26 0 h10 m-274 0 h20 m254 0 h20 m-294 0 q10 0 10 10 m274 0 q0 -10 10 -10 m-284 10 v14 m274 0 v-14 m-274 14 q0 10 10 10 m254 0 q10 0 10 -10 m-264 10 h10 m0 0 h244 m40 -34 h10 m72 0 h10 m0 0 h10 m26 0 h10 m20 0 h10 m54 0 h10 m-94 0 l20 0 m-1 0 q-9 0 -9 -10 l0 -24 q0 -10 10 -10 m74 44 l20 0 m-20 0 q10 0 10 -10 l0 -24 q0 -10 -10 -10 m-74 0 h10 m24 0 h10 m0 0 h30 m20 44 h10 m26 0 h10 m-318 0 h20 m298 0 h20 m-338 0 q10 0 10 10 m318 0 q0 -10 10 -10 m-328 10 v24 m318 0 v-24 m-318 24 q0 10 10 10 m298 0 q10 0 10 -10 m-308 10 h10 m70 0 h10 m0 0 h10 m78 0 h10 m0 0 h110 m23 -44 h-3"/>
        <polygon points="935 61 943 57 943 65"/>
        <polygon points="935 61 927 57 927 65"/></svg>
