<svg xmlns="http://www.w3.org/2000/svg" width="789" height="81">
    <defs>
        <style type="text/css">
            @namespace "http://www.w3.org/2000/svg";
                .line                 {fill: none; stroke: #636273;}
                .bold-line            {stroke: #636273; shape-rendering: crispEdges; stroke-width: 2; }
                .thin-line            {stroke: #636273; shape-rendering: crispEdges}
                .filled               {fill: #636273; stroke: none;}
                text.terminal         {font-family: -apple-system, BlinkMacSystemFont, "Segoe UI", Roboto, Ubuntu, Cantarell, Helvetica, sans-serif;
                font-size: 12px;
                fill: #ffffff;
                font-weight: bold;
                }
                text.nonterminal      {font-family: -apple-system, BlinkMacSystemFont, "Segoe UI", Roboto, Ubuntu, Cantarell, Helvetica, sans-serif;
                font-size: 12px;
                fill: #e289a4;
                font-weight: normal;
                }
                text.regexp           {font-family: -apple-system, BlinkMacSystemFont, "Segoe UI", Roboto, Ubuntu, Cantarell, Helvetica, sans-serif;
                font-size: 12px;
                fill: #00141F;
                font-weight: normal;
                }
                rect, circle, polygon {fill: none; stroke: none;}
                rect.terminal         {fill: none; stroke: #be2f5b;}
                rect.nonterminal      {fill: rgba(255,255,255,0.1); stroke: none;}
                rect.text             {fill: none; stroke: none;}
                polygon.regexp        {fill: #C7ECFF; stroke: #038cbc;}
        </style>
    </defs>
    <polygon points="9 61 1 57 1 65"/>
    <polygon points="17 61 9 57 9 65"/>
    <rect x="31" y="47" width="70" height="32" rx="10"/>
    <rect x="29" y="45" width="70" height="32" class="terminal" rx="10"/>
    <text class="terminal" x="39" y="65">SELECT</text><a xmlns:xlink="http://www.w3.org/1999/xlink" xlink:href="#columnName" xlink:title="columnName">
    <rect x="141" y="47" width="102" height="32"/>
    <rect x="139" y="45" width="102" height="32" class="nonterminal"/>
    <text class="nonterminal" x="149" y="65">columnName</text></a><rect x="141" y="3" width="24" height="32" rx="10"/>
    <rect x="139" y="1" width="24" height="32" class="terminal" rx="10"/>
    <text class="terminal" x="149" y="21">,</text>
    <rect x="283" y="47" width="60" height="32" rx="10"/>
    <rect x="281" y="45" width="60" height="32" class="terminal" rx="10"/>
    <text class="terminal" x="291" y="65">FROM</text><a xmlns:xlink="http://www.w3.org/1999/xlink" xlink:href="#tableName" xlink:title="tableName">
    <rect x="363" y="47" width="88" height="32"/>
    <rect x="361" y="45" width="88" height="32" class="nonterminal"/>
    <text class="nonterminal" x="371" y="65">tableName</text></a><rect x="471" y="47" width="70" height="32" rx="10"/>
    <rect x="469" y="45" width="70" height="32" class="terminal" rx="10"/>
    <text class="terminal" x="479" y="65">LATEST</text>
    <rect x="561" y="47" width="38" height="32" rx="10"/>
    <rect x="559" y="45" width="38" height="32" class="terminal" rx="10"/>
    <text class="terminal" x="569" y="65">BY</text><a xmlns:xlink="http://www.w3.org/1999/xlink" xlink:href="#columnName" xlink:title="columnName">
    <rect x="639" y="47" width="102" height="32"/>
    <rect x="637" y="45" width="102" height="32" class="nonterminal"/>
    <text class="nonterminal" x="647" y="65">columnName</text></a><rect x="639" y="3" width="24" height="32" rx="10"/>
    <rect x="637" y="1" width="24" height="32" class="terminal" rx="10"/>
    <text class="terminal" x="647" y="21">,</text>
    <path xmlns:svg="http://www.w3.org/2000/svg" class="line" d="m17 61 h2 m0 0 h10 m70 0 h10 m20 0 h10 m102 0 h10 m-142 0 l20 0 m-1 0 q-9 0 -9 -10 l0 -24 q0 -10 10 -10 m122 44 l20 0 m-20 0 q10 0 10 -10 l0 -24 q0 -10 -10 -10 m-122 0 h10 m24 0 h10 m0 0 h78 m20 44 h10 m60 0 h10 m0 0 h10 m88 0 h10 m0 0 h10 m70 0 h10 m0 0 h10 m38 0 h10 m20 0 h10 m102 0 h10 m-142 0 l20 0 m-1 0 q-9 0 -9 -10 l0 -24 q0 -10 10 -10 m122 44 l20 0 m-20 0 q10 0 10 -10 l0 -24 q0 -10 -10 -10 m-122 0 h10 m24 0 h10 m0 0 h78 m23 44 h-3"/>
    <polygon points="779 61 787 57 787 65"/>
    <polygon points="779 61 771 57 771 65"/></svg>
