<svg xmlns="http://www.w3.org/2000/svg" width="473" height="37">
    <defs>
        <style type="text/css">
            @namespace "http://www.w3.org/2000/svg";
                .line                 {fill: none; stroke: #636273;}
                .bold-line            {stroke: #636273; shape-rendering: crispEdges; stroke-width: 2; }
                .thin-line            {stroke: #636273; shape-rendering: crispEdges}
                .filled               {fill: #636273; stroke: none;}
                text.terminal         {font-family: -apple-system, BlinkMacSystemFont, "Segoe UI", Roboto, Ubuntu, Cantarell, Helvetica, sans-serif;
                font-size: 12px;
                fill: #ffffff;
                font-weight: bold;
                }
                text.nonterminal      {font-family: -apple-system, BlinkMacSystemFont, "Segoe UI", Roboto, Ubuntu, Cantarell, Helvetica, sans-serif;
                font-size: 12px;
                fill: #e289a4;
                font-weight: normal;
                }
                text.regexp           {font-family: -apple-system, BlinkMacSystemFont, "Segoe UI", Roboto, Ubuntu, Cantarell, Helvetica, sans-serif;
                font-size: 12px;
                fill: #00141F;
                font-weight: normal;
                }
                rect, circle, polygon {fill: none; stroke: none;}
                rect.terminal         {fill: none; stroke: #be2f5b;}
                rect.nonterminal      {fill: rgba(255,255,255,0.1); stroke: none;}
                rect.text             {fill: none; stroke: none;}
                polygon.regexp        {fill: #C7ECFF; stroke: #038cbc;}
        </style>
    </defs>
    <polygon points="9 17 1 13 1 21"/>
    <polygon points="17 17 9 13 9 21"/>
    <rect x="31" y="3" width="76" height="32" rx="10"/>
    <rect x="29" y="1" width="76" height="32" class="terminal" rx="10"/>
    <text class="terminal" x="39" y="21">RENAME</text>
    <rect x="127" y="3" width="62" height="32" rx="10"/>
    <rect x="125" y="1" width="62" height="32" class="terminal" rx="10"/>
    <text class="terminal" x="135" y="21">TABLE</text><a xmlns:xlink="http://www.w3.org/1999/xlink" xlink:href="#oldName" xlink:title="oldName">
    <rect x="209" y="3" width="76" height="32"/>
    <rect x="207" y="1" width="76" height="32" class="nonterminal"/>
    <text class="nonterminal" x="217" y="21">oldName</text></a><rect x="305" y="3" width="38" height="32" rx="10"/>
    <rect x="303" y="1" width="38" height="32" class="terminal" rx="10"/>
    <text class="terminal" x="313" y="21">TO</text><a xmlns:xlink="http://www.w3.org/1999/xlink" xlink:href="#newName" xlink:title="newName">
    <rect x="363" y="3" width="82" height="32"/>
    <rect x="361" y="1" width="82" height="32" class="nonterminal"/>
    <text class="nonterminal" x="371" y="21">newName</text></a><path xmlns:svg="http://www.w3.org/2000/svg" class="line" d="m17 17 h2 m0 0 h10 m76 0 h10 m0 0 h10 m62 0 h10 m0 0 h10 m76 0 h10 m0 0 h10 m38 0 h10 m0 0 h10 m82 0 h10 m3 0 h-3"/>
    <polygon points="463 17 471 13 471 21"/>
    <polygon points="463 17 455 13 455 21"/></svg>
