<svg xmlns="http://www.w3.org/2000/svg" width="675" height="37">
    <defs>
        <style type="text/css">
            @namespace "http://www.w3.org/2000/svg";
                .line                 {fill: none; stroke: #636273;}
                .bold-line            {stroke: #636273; shape-rendering: crispEdges; stroke-width: 2; }
                .thin-line            {stroke: #636273; shape-rendering: crispEdges}
                .filled               {fill: #636273; stroke: none;}
                text.terminal         {font-family: -apple-system, BlinkMacSystemFont, "Segoe UI", Roboto, Ubuntu, Cantarell, Helvetica, sans-serif;
                font-size: 12px;
                fill: #ffffff;
                font-weight: bold;
                }
                text.nonterminal      {font-family: -apple-system, BlinkMacSystemFont, "Segoe UI", Roboto, Ubuntu, Cantarell, Helvetica, sans-serif;
                font-size: 12px;
                fill: #e289a4;
                font-weight: normal;
                }
                text.regexp           {font-family: -apple-system, BlinkMacSystemFont, "Segoe UI", Roboto, Ubuntu, Cantarell, Helvetica, sans-serif;
                font-size: 12px;
                fill: #00141F;
                font-weight: normal;
                }
                rect, circle, polygon {fill: none; stroke: none;}
                rect.terminal         {fill: none; stroke: #be2f5b;}
                rect.nonterminal      {fill: rgba(255,255,255,0.1); stroke: none;}
                rect.text             {fill: none; stroke: none;}
                polygon.regexp        {fill: #C7ECFF; stroke: #038cbc;}
        </style>
    </defs>
    <polygon points="9 17 1 13 1 21"/>
    <polygon points="17 17 9 13 9 21"/>
    <rect x="31" y="3" width="72" height="32" rx="10"/>
    <rect x="29" y="1" width="72" height="32" class="terminal" rx="10"/>
    <text class="terminal" x="39" y="21">CREATE</text><a xmlns:xlink="http://www.w3.org/1999/xlink" xlink:href="#someCreateTableStatement" xlink:title="someCreateTableStatement">
    <rect x="123" y="3" width="198" height="32"/>
    <rect x="121" y="1" width="198" height="32" class="nonterminal"/>
    <text class="nonterminal" x="131" y="21">someCreateTableStatement</text></a><rect x="341" y="3" width="92" height="32" rx="10"/>
    <rect x="339" y="1" width="92" height="32" class="terminal" rx="10"/>
    <text class="terminal" x="349" y="21">timestamp</text>
    <rect x="453" y="3" width="26" height="32" rx="10"/>
    <rect x="451" y="1" width="26" height="32" class="terminal" rx="10"/>
    <text class="terminal" x="461" y="21">(</text><a xmlns:xlink="http://www.w3.org/1999/xlink" xlink:href="#columnName" xlink:title="columnName">
    <rect x="499" y="3" width="102" height="32"/>
    <rect x="497" y="1" width="102" height="32" class="nonterminal"/>
    <text class="nonterminal" x="507" y="21">columnName</text></a><rect x="621" y="3" width="26" height="32" rx="10"/>
    <rect x="619" y="1" width="26" height="32" class="terminal" rx="10"/>
    <text class="terminal" x="629" y="21">)</text>
    <path xmlns:svg="http://www.w3.org/2000/svg" class="line" d="m17 17 h2 m0 0 h10 m72 0 h10 m0 0 h10 m198 0 h10 m0 0 h10 m92 0 h10 m0 0 h10 m26 0 h10 m0 0 h10 m102 0 h10 m0 0 h10 m26 0 h10 m3 0 h-3"/>
    <polygon points="665 17 673 13 673 21"/>
    <polygon points="665 17 657 13 657 21"/></svg>
