<svg xmlns="http://www.w3.org/2000/svg" width="567" height="257">
    <defs>
        <style type="text/css">
            @namespace "http://www.w3.org/2000/svg";
                .line                 {fill: none; stroke: #636273;}
                .bold-line            {stroke: #636273; shape-rendering: crispEdges; stroke-width: 2; }
                .thin-line            {stroke: #636273; shape-rendering: crispEdges}
                .filled               {fill: #636273; stroke: none;}
                text.terminal         {font-family: -apple-system, BlinkMacSystemFont, "Segoe UI", Roboto, Ubuntu, Cantarell, Helvetica, sans-serif;
                font-size: 12px;
                fill: #ffffff;
                font-weight: bold;
                }
                text.nonterminal      {font-family: -apple-system, BlinkMacSystemFont, "Segoe UI", Roboto, Ubuntu, Cantarell, Helvetica, sans-serif;
                font-size: 12px;
                fill: #e289a4;
                font-weight: normal;
                }
                text.regexp           {font-family: -apple-system, BlinkMacSystemFont, "Segoe UI", Roboto, Ubuntu, Cantarell, Helvetica, sans-serif;
                font-size: 12px;
                fill: #00141F;
                font-weight: normal;
                }
                rect, circle, polygon {fill: none; stroke: none;}
                rect.terminal         {fill: none; stroke: #be2f5b;}
                rect.nonterminal      {fill: rgba(255,255,255,0.1); stroke: none;}
                rect.text             {fill: none; stroke: none;}
                polygon.regexp        {fill: #C7ECFF; stroke: #038cbc;}
        </style>
    </defs>
    <polygon points="9 17 1 13 1 21"/>
    <polygon points="17 17 9 13 9 21"/>
    <rect x="31" y="3" width="70" height="32" rx="10"/>
    <rect x="29" y="1" width="70" height="32" class="terminal" rx="10"/>
    <text class="terminal" x="39" y="21">WHERE</text><a xmlns:xlink="http://www.w3.org/1999/xlink" xlink:href="#timestampColumn" xlink:title="timestampColumn">
    <rect x="121" y="3" width="134" height="32"/>
    <rect x="119" y="1" width="134" height="32" class="nonterminal"/>
    <text class="nonterminal" x="129" y="21">timestampColumn</text></a><rect x="275" y="3" width="30" height="32" rx="10"/>
    <rect x="273" y="1" width="30" height="32" class="terminal" rx="10"/>
    <text class="terminal" x="283" y="21">=</text>
    <rect x="345" y="3" width="52" height="32" rx="10"/>
    <rect x="343" y="1" width="52" height="32" class="terminal" rx="10"/>
    <text class="terminal" x="353" y="21">yyyy</text>
    <rect x="345" y="47" width="80" height="32" rx="10"/>
    <rect x="343" y="45" width="80" height="32" class="terminal" rx="10"/>
    <text class="terminal" x="353" y="65">yyyy-MM</text>
    <rect x="345" y="91" width="106" height="32" rx="10"/>
    <rect x="343" y="89" width="106" height="32" class="terminal" rx="10"/>
    <text class="terminal" x="353" y="109">YYYY-MM-dd</text>
    <rect x="345" y="135" width="126" height="32" rx="10"/>
    <rect x="343" y="133" width="126" height="32" class="terminal" rx="10"/>
    <text class="terminal" x="353" y="153">yyyy-MM-ddThh</text>
    <rect x="345" y="179" width="156" height="32" rx="10"/>
    <rect x="343" y="177" width="156" height="32" class="terminal" rx="10"/>
    <text class="terminal" x="353" y="197">yyyy-MM-ddThh:mm</text>
    <rect x="345" y="223" width="174" height="32" rx="10"/>
    <rect x="343" y="221" width="174" height="32" class="terminal" rx="10"/>
    <text class="terminal" x="353" y="241">yyyy-MM-ddThh:mm:ss</text>
    <path xmlns:svg="http://www.w3.org/2000/svg" class="line" d="m17 17 h2 m0 0 h10 m70 0 h10 m0 0 h10 m134 0 h10 m0 0 h10 m30 0 h10 m20 0 h10 m52 0 h10 m0 0 h122 m-214 0 h20 m194 0 h20 m-234 0 q10 0 10 10 m214 0 q0 -10 10 -10 m-224 10 v24 m214 0 v-24 m-214 24 q0 10 10 10 m194 0 q10 0 10 -10 m-204 10 h10 m80 0 h10 m0 0 h94 m-204 -10 v20 m214 0 v-20 m-214 20 v24 m214 0 v-24 m-214 24 q0 10 10 10 m194 0 q10 0 10 -10 m-204 10 h10 m106 0 h10 m0 0 h68 m-204 -10 v20 m214 0 v-20 m-214 20 v24 m214 0 v-24 m-214 24 q0 10 10 10 m194 0 q10 0 10 -10 m-204 10 h10 m126 0 h10 m0 0 h48 m-204 -10 v20 m214 0 v-20 m-214 20 v24 m214 0 v-24 m-214 24 q0 10 10 10 m194 0 q10 0 10 -10 m-204 10 h10 m156 0 h10 m0 0 h18 m-204 -10 v20 m214 0 v-20 m-214 20 v24 m214 0 v-24 m-214 24 q0 10 10 10 m194 0 q10 0 10 -10 m-204 10 h10 m174 0 h10 m23 -220 h-3"/>
    <polygon points="557 17 565 13 565 21"/>
    <polygon points="557 17 549 13 549 21"/></svg>
