<svg xmlns="http://www.w3.org/2000/svg" width="485" height="37">
    <defs>
        <style type="text/css">
            @namespace "http://www.w3.org/2000/svg";
                .line                 {fill: none; stroke: #636273;}
                .bold-line            {stroke: #636273; shape-rendering: crispEdges; stroke-width: 2; }
                .thin-line            {stroke: #636273; shape-rendering: crispEdges}
                .filled               {fill: #636273; stroke: none;}
                text.terminal         {font-family: -apple-system, BlinkMacSystemFont, "Segoe UI", Roboto, Ubuntu, Cantarell, Helvetica, sans-serif;
                font-size: 12px;
                fill: #ffffff;
                font-weight: bold;
                }
                text.nonterminal      {font-family: -apple-system, BlinkMacSystemFont, "Segoe UI", Roboto, Ubuntu, Cantarell, Helvetica, sans-serif;
                font-size: 12px;
                fill: #e289a4;
                font-weight: normal;
                }
                text.regexp           {font-family: -apple-system, BlinkMacSystemFont, "Segoe UI", Roboto, Ubuntu, Cantarell, Helvetica, sans-serif;
                font-size: 12px;
                fill: #00141F;
                font-weight: normal;
                }
                rect, circle, polygon {fill: none; stroke: none;}
                rect.terminal         {fill: none; stroke: #be2f5b;}
                rect.nonterminal      {fill: rgba(255,255,255,0.1); stroke: none;}
                rect.text             {fill: none; stroke: none;}
                polygon.regexp        {fill: #C7ECFF; stroke: #038cbc;}
        </style>
    </defs>
    <polygon points="9 17 1 13 1 21"/>
    <polygon points="17 17 9 13 9 21"/>
    <rect x="31" y="3" width="70" height="32" rx="10"/>
    <rect x="29" y="1" width="70" height="32" class="terminal" rx="10"/>
    <text class="terminal" x="39" y="21">WHERE</text>
    <rect x="121" y="3" width="40" height="32" rx="10"/>
    <rect x="119" y="1" width="40" height="32" class="terminal" rx="10"/>
    <text class="terminal" x="129" y="21">!~</text>
    <rect x="181" y="3" width="26" height="32" rx="10"/>
    <rect x="179" y="1" width="26" height="32" class="terminal" rx="10"/>
    <text class="terminal" x="189" y="21">(</text><a xmlns:xlink="http://www.w3.org/1999/xlink" xlink:href="#column" xlink:title="column">
    <rect x="227" y="3" width="64" height="32"/>
    <rect x="225" y="1" width="64" height="32" class="nonterminal"/>
    <text class="nonterminal" x="235" y="21">column</text></a><rect x="311" y="3" width="24" height="32" rx="10"/>
    <rect x="309" y="1" width="24" height="32" class="terminal" rx="10"/>
    <text class="terminal" x="319" y="21">;</text><a xmlns:xlink="http://www.w3.org/1999/xlink" xlink:href="#regex" xlink:title="regex">
    <rect x="355" y="3" width="56" height="32"/>
    <rect x="353" y="1" width="56" height="32" class="nonterminal"/>
    <text class="nonterminal" x="363" y="21">regex</text></a><rect x="431" y="3" width="26" height="32" rx="10"/>
    <rect x="429" y="1" width="26" height="32" class="terminal" rx="10"/>
    <text class="terminal" x="439" y="21">)</text>
    <path xmlns:svg="http://www.w3.org/2000/svg" class="line" d="m17 17 h2 m0 0 h10 m70 0 h10 m0 0 h10 m40 0 h10 m0 0 h10 m26 0 h10 m0 0 h10 m64 0 h10 m0 0 h10 m24 0 h10 m0 0 h10 m56 0 h10 m0 0 h10 m26 0 h10 m3 0 h-3"/>
    <polygon points="475 17 483 13 483 21"/>
    <polygon points="475 17 467 13 467 21"/></svg>
