<svg xmlns="http://www.w3.org/2000/svg" width="387" height="257">
    <defs>
        <style type="text/css">
            @namespace "http://www.w3.org/2000/svg";
                .line                 {fill: none; stroke: #636273;}
                .bold-line            {stroke: #636273; shape-rendering: crispEdges; stroke-width: 2; }
                .thin-line            {stroke: #636273; shape-rendering: crispEdges}
                .filled               {fill: #636273; stroke: none;}
                text.terminal         {font-family: -apple-system, BlinkMacSystemFont, "Segoe UI", Roboto, Ubuntu, Cantarell, Helvetica, sans-serif;
                font-size: 12px;
                fill: #ffffff;
                font-weight: bold;
                }
                text.nonterminal      {font-family: -apple-system, BlinkMacSystemFont, "Segoe UI", Roboto, Ubuntu, Cantarell, Helvetica, sans-serif;
                font-size: 12px;
                fill: #e289a4;
                font-weight: normal;
                }
                text.regexp           {font-family: -apple-system, BlinkMacSystemFont, "Segoe UI", Roboto, Ubuntu, Cantarell, Helvetica, sans-serif;
                font-size: 12px;
                fill: #00141F;
                font-weight: normal;
                }
                rect, circle, polygon {fill: none; stroke: none;}
                rect.terminal         {fill: none; stroke: #be2f5b;}
                rect.nonterminal      {fill: rgba(255,255,255,0.1); stroke: none;}
                rect.text             {fill: none; stroke: none;}
                polygon.regexp        {fill: #C7ECFF; stroke: #038cbc;}
        </style>
    </defs>
    <polygon points="9 17 1 13 1 21"/>
    <polygon points="17 17 9 13 9 21"/>
    <rect x="31" y="3" width="70" height="32" rx="10"/>
    <rect x="29" y="1" width="70" height="32" class="terminal" rx="10"/>
    <text class="terminal" x="39" y="21">WHERE</text><a xmlns:xlink="http://www.w3.org/1999/xlink" xlink:href="#column" xlink:title="column">
    <rect x="121" y="3" width="64" height="32"/>
    <rect x="119" y="1" width="64" height="32" class="nonterminal"/>
    <text class="nonterminal" x="129" y="21">column</text></a><rect x="225" y="3" width="30" height="32" rx="10"/>
    <rect x="223" y="1" width="30" height="32" class="terminal" rx="10"/>
    <text class="terminal" x="233" y="21">=</text>
    <rect x="225" y="47" width="34" height="32" rx="10"/>
    <rect x="223" y="45" width="34" height="32" class="terminal" rx="10"/>
    <text class="terminal" x="233" y="65">!=</text>
    <rect x="225" y="91" width="30" height="32" rx="10"/>
    <rect x="223" y="89" width="30" height="32" class="terminal" rx="10"/>
    <text class="terminal" x="233" y="109">&gt;</text>
    <rect x="225" y="135" width="40" height="32" rx="10"/>
    <rect x="223" y="133" width="40" height="32" class="terminal" rx="10"/>
    <text class="terminal" x="233" y="153">&gt;=</text>
    <rect x="225" y="179" width="30" height="32" rx="10"/>
    <rect x="223" y="177" width="30" height="32" class="terminal" rx="10"/>
    <text class="terminal" x="233" y="197">&lt;</text>
    <rect x="225" y="223" width="40" height="32" rx="10"/>
    <rect x="223" y="221" width="40" height="32" class="terminal" rx="10"/>
    <text class="terminal" x="233" y="241">&lt;=</text><a xmlns:xlink="http://www.w3.org/1999/xlink" xlink:href="#value" xlink:title="value">
    <rect x="305" y="3" width="54" height="32"/>
    <rect x="303" y="1" width="54" height="32" class="nonterminal"/>
    <text class="nonterminal" x="313" y="21">value</text></a><path xmlns:svg="http://www.w3.org/2000/svg" class="line" d="m17 17 h2 m0 0 h10 m70 0 h10 m0 0 h10 m64 0 h10 m20 0 h10 m30 0 h10 m0 0 h10 m-80 0 h20 m60 0 h20 m-100 0 q10 0 10 10 m80 0 q0 -10 10 -10 m-90 10 v24 m80 0 v-24 m-80 24 q0 10 10 10 m60 0 q10 0 10 -10 m-70 10 h10 m34 0 h10 m0 0 h6 m-70 -10 v20 m80 0 v-20 m-80 20 v24 m80 0 v-24 m-80 24 q0 10 10 10 m60 0 q10 0 10 -10 m-70 10 h10 m30 0 h10 m0 0 h10 m-70 -10 v20 m80 0 v-20 m-80 20 v24 m80 0 v-24 m-80 24 q0 10 10 10 m60 0 q10 0 10 -10 m-70 10 h10 m40 0 h10 m-70 -10 v20 m80 0 v-20 m-80 20 v24 m80 0 v-24 m-80 24 q0 10 10 10 m60 0 q10 0 10 -10 m-70 10 h10 m30 0 h10 m0 0 h10 m-70 -10 v20 m80 0 v-20 m-80 20 v24 m80 0 v-24 m-80 24 q0 10 10 10 m60 0 q10 0 10 -10 m-70 10 h10 m40 0 h10 m20 -220 h10 m54 0 h10 m3 0 h-3"/>
    <polygon points="377 17 385 13 385 21"/>
    <polygon points="377 17 369 13 369 21"/></svg>
