<svg xmlns="http://www.w3.org/2000/svg" width="651" height="81">
    <defs>
        <style type="text/css">
            @namespace "http://www.w3.org/2000/svg";
            .line                 {fill: none; stroke: #636273;}
            .bold-line            {stroke: #636273; shape-rendering: crispEdges; stroke-width: 2; }
            .thin-line            {stroke: #636273; shape-rendering: crispEdges}
            .filled               {fill: #636273; stroke: none;}
            text.terminal         {font-family: -apple-system, BlinkMacSystemFont, "Segoe UI", Roboto, Ubuntu, Cantarell, Helvetica, sans-serif;
            font-size: 12px;
            fill: #ffffff;
            font-weight: bold;
            }
            text.nonterminal      {font-family: -apple-system, BlinkMacSystemFont, "Segoe UI", Roboto, Ubuntu, Cantarell, Helvetica, sans-serif;
            font-size: 12px;
            fill: #e289a4;
            font-weight: normal;
            }
            text.regexp           {font-family: -apple-system, BlinkMacSystemFont, "Segoe UI", Roboto, Ubuntu, Cantarell, Helvetica, sans-serif;
            font-size: 12px;
            fill: #00141F;
            font-weight: normal;
            }
            rect, circle, polygon {fill: none; stroke: none;}
            rect.terminal         {fill: none; stroke: #be2f5b;}
            rect.nonterminal      {fill: rgba(255,255,255,0.1); stroke: none;}
            rect.text             {fill: none; stroke: none;}
            polygon.regexp        {fill: #C7ECFF; stroke: #038cbc;}
        </style>
    </defs>
    <polygon points="9 61 1 57 1 65"/>
    <polygon points="17 61 9 57 9 65"/>
    <rect x="31" y="47" width="58" height="32" rx="10"/>
    <rect x="29" y="45" width="58" height="32" class="terminal" rx="10"/>
    <text class="terminal" x="39" y="65">WITH</text><a xmlns:xlink="http://www.w3.org/1999/xlink" xlink:href="#subQueryName" xlink:title="subQueryName">
    <rect x="129" y="47" width="116" height="32"/>
    <rect x="127" y="45" width="116" height="32" class="nonterminal"/>
    <text class="nonterminal" x="137" y="65">subQueryName</text></a><rect x="265" y="47" width="38" height="32" rx="10"/>
    <rect x="263" y="45" width="38" height="32" class="terminal" rx="10"/>
    <text class="terminal" x="273" y="65">AS</text>
    <rect x="323" y="47" width="26" height="32" rx="10"/>
    <rect x="321" y="45" width="26" height="32" class="terminal" rx="10"/>
    <text class="terminal" x="331" y="65">(</text><a xmlns:xlink="http://www.w3.org/1999/xlink" xlink:href="#subQuery" xlink:title="subQuery">
    <rect x="369" y="47" width="80" height="32"/>
    <rect x="367" y="45" width="80" height="32" class="nonterminal"/>
    <text class="nonterminal" x="377" y="65">subQuery</text></a><rect x="469" y="47" width="26" height="32" rx="10"/>
    <rect x="467" y="45" width="26" height="32" class="terminal" rx="10"/>
    <text class="terminal" x="477" y="65">)</text>
    <rect x="129" y="3" width="24" height="32" rx="10"/>
    <rect x="127" y="1" width="24" height="32" class="terminal" rx="10"/>
    <text class="terminal" x="137" y="21">,</text><a xmlns:xlink="http://www.w3.org/1999/xlink" xlink:href="#mainQuery" xlink:title="mainQuery">
    <rect x="535" y="47" width="88" height="32"/>
    <rect x="533" y="45" width="88" height="32" class="nonterminal"/>
    <text class="nonterminal" x="543" y="65">mainQuery</text></a><path xmlns:svg="http://www.w3.org/2000/svg" class="line" d="m17 61 h2 m0 0 h10 m58 0 h10 m20 0 h10 m116 0 h10 m0 0 h10 m38 0 h10 m0 0 h10 m26 0 h10 m0 0 h10 m80 0 h10 m0 0 h10 m26 0 h10 m-406 0 l20 0 m-1 0 q-9 0 -9 -10 l0 -24 q0 -10 10 -10 m386 44 l20 0 m-20 0 q10 0 10 -10 l0 -24 q0 -10 -10 -10 m-386 0 h10 m24 0 h10 m0 0 h342 m20 44 h10 m88 0 h10 m3 0 h-3"/>
    <polygon points="641 61 649 57 649 65"/>
    <polygon points="641 61 633 57 633 65"/></svg>