<?xml version="1.0" encoding="UTF-8" standalone="no"?> <!-- Created with Vectornator for iOS (http://vectornator.io/) --><!DOCTYPE svg PUBLIC "-//W3C//DTD SVG 1.1//EN" "http://www.w3.org/Graphics/SVG/1.1/DTD/svg11.dtd">
<svg height="100%" style="fill-rule:evenodd;clip-rule:evenodd;stroke-linecap:round;stroke-linejoin:round;" xmlns:xlink="http://www.w3.org/1999/xlink" xmlns="http://www.w3.org/2000/svg" xml:space="preserve" width="100%" xmlns:vectornator="http://vectornator.io" version="1.1" viewBox="0 0 180 105">
<metadata>
<vectornator:setting key="DynamicGuides" value="1"/>
<vectornator:setting key="Units" value="Points"/>
<vectornator:setting key="RulersVisible" value="1"/>
<vectornator:setting key="SnapToGuides" value="1"/>
<vectornator:setting key="GridSpacing" value="36"/>
</metadata>
<defs/>
<g id="layer1 copy" vectornator:layerName="layer1 copy">
<path d="M60.3837+3.91319L127.177+3.91319C128.083+3.91319+128.818+4.40179+128.818+5.00439L128.818+97.5769C128.818+98.1799+128.083+98.6679+127.177+98.6679L60.3837+98.6679C59.4767+98.6679+58.7427+98.1799+58.7427+97.5769L58.7427+5.00439C58.7427+4.40179+59.4767+3.91319+60.3837+3.91319Z" fill-rule="evenodd" fill="#464353" opacity="1"/>
<path d="M30.1953+59.9006L30.2313+35.772C30.2317+35.5042+30.3348+35.2847+30.4621+35.2804L32.3529+35.2446C32.4809+35.2422+32.5843+35.4584+32.5839+35.7275L32.548+59.8561L30.1953+59.9006Z" fill-rule="evenodd" fill="#ffffff" opacity="1"/>
<path d="M31.1488+71.0608L30.8704+70.2061L28.6183+63.3021L28.4209+62.6929C28.3939+62.6085+28.3917+62.511+28.4149+62.4233C28.438+62.3355+28.4845+62.2652+28.5434+62.2288C28.5707+62.2122+28.5998+62.2036+28.6292+62.2033L29.9683+62.1855C30.0957+62.1838+30.1995+62.0309+30.2008+61.8431L30.2368+44.9182C30.2372+44.7304+30.3403+44.5764+30.4676+44.5733L32.3584+44.5483C32.4864+44.5466+32.5898+44.6982+32.5894+44.887L32.5535+61.8119C32.554+61.9988+32.6562+62.1486+32.7829+62.1482L34.1518+62.1301C34.1812+62.1296+34.2103+62.1375+34.2375+62.1534C34.2963+62.1883+34.3425+62.2577+34.3651+62.345C34.3878+62.4324+34.385+62.5301+34.3574+62.6152L34.1544+63.2287L31.8489+70.1931L31.564+71.0568C31.5244+71.1735+31.4437+71.2478+31.3556+71.2486C31.2676+71.2495+31.1875+71.1767+31.1488+71.0608Z" fill-rule="evenodd" fill="#ffffff" opacity="1"/>
<path d="M67.6717+70.2877L119.889+70.2877L119.889+70.2877L119.889+94.2099L119.889+94.2099L67.6717+94.2099L67.6717+94.2099L67.6717+70.2877L67.6717+70.2877Z" fill-rule="evenodd" fill="#d14671" opacity="1"/>
<text x="0" font-family="sans-serif" y="0" text-anchor="middle" vectornator:text="data&#x20;column&#x20;file" fill="#ffffff" font-size="6" vectornator:width="45.0234" opacity="1" transform="matrix(1 0 0 1 70.615 4.91319)">
<tspan x="22.5117" y="6" textLength="42.0234">
data column file</tspan>
</text>
<path d="M67.6717+15.1852L119.889+15.1852L119.889+15.1852L119.889+39.1072L119.889+39.1072L67.6717+39.1072L67.6717+39.1072L67.6717+15.1852L67.6717+15.1852Z" fill-rule="evenodd" fill="#d14671" opacity="1"/>
<path d="M67.6717+42.9269L119.889+42.9269L119.889+42.9269L119.889+66.8489L119.889+66.8489L67.6717+66.8489L67.6717+66.8489L67.6717+42.9269L67.6717+42.9269Z" fill-rule="evenodd" fill="#d14671" opacity="1"/>
<path d="M119.97+84.9224L120.339+84.7487L123.323+83.3428L123.586+83.2196C123.622+83.2027+123.665+83.2013+123.703+83.2158C123.74+83.2302+123.771+83.2593+123.787+83.296C123.794+83.3131+123.797+83.3313+123.798+83.3496L123.805+84.1855C123.806+84.265+123.872+84.3298+123.953+84.3307L131.267+84.3531C131.349+84.3534+131.415+84.4177+131.416+84.4972L131.427+85.6775C131.428+85.7579+131.362+85.8219+131.281+85.8219L123.967+85.7989C123.886+85.7999+123.821+85.8639+123.821+85.9429L123.829+86.7969C123.829+86.8159+123.826+86.8339+123.819+86.8509C123.804+86.8869+123.774+86.9159+123.736+86.9299C123.698+86.9449+123.656+86.9429+123.62+86.9249L123.354+86.7989L120.345+85.3595L119.972+85.1816C119.921+85.1569+119.889+85.1065+119.889+85.0516C119.888+84.9966+119.92+84.9466+119.97+84.9224Z" fill-rule="evenodd" fill="#61cfee" opacity="1"/>
<text x="0" font-family="sans-serif" y="0" text-anchor="middle" vectornator:text="memory&#x20;page" fill="#ffffff" font-size="5" vectornator:width="33.5688" opacity="1" transform="matrix(1 0 0 1 132.959 82.0727)">
<tspan x="16.7844" y="5" textLength="30.5688">
memory page</tspan>
</text>
<text x="0" font-family="sans-serif" y="0" text-anchor="middle" vectornator:text="Read&#x20;value&#x20;at&#x20;row&#x20;N" fill="#ffffff" font-size="5" vectornator:width="36.1902" opacity="1" transform="matrix(1 0 0 1 13.4724 21.1545)">
<tspan x="18.7897" y="5" textLength="32.2437">
Read value at </tspan>
<tspan x="18.0951" y="11" textLength="13.0566">
row N</tspan>
</text>
<text x="0" font-family="sans-serif" y="0" text-anchor="middle" vectornator:text="Page&#xA;+&#xA;Offset" fill="#ffffff" font-size="5" vectornator:width="16.2495" opacity="1" transform="matrix(1 0 0 1 23.2648 75.2058)">
<tspan x="8.12476" y="5" textLength="11.6772">
Page
</tspan>
<tspan x="8.12476" y="11" textLength="2.91992">
+
</tspan>
<tspan x="8.12476" y="17" textLength="13.2495">
Offset</tspan>
</text>
<path d="M68.1367+85.1376L67.3737+85.4506L61.2147+87.9829L60.6707+88.2049C60.5957+88.2359+60.5087+88.2379+60.4307+88.2119C60.3517+88.1859+60.2897+88.1339+60.2567+88.0679C60.2417+88.0369+60.2347+88.0039+60.2337+87.9709L60.2187+86.4649C60.2167+86.3219+60.0807+86.2049+59.9127+86.2039L44.8123+86.1629C44.6448+86.1629+44.5073+86.0469+44.5046+85.9039L44.4823+83.7773C44.4808+83.6333+44.6161+83.517+44.7845+83.5174L59.8847+83.5579C60.0517+83.5573+60.1857+83.4424+60.1847+83.2999L60.1687+81.7605C60.1687+81.7274+60.1757+81.6947+60.1897+81.6641C60.2207+81.5979+60.2827+81.546+60.3607+81.5205C60.4387+81.495+60.5257+81.4982+60.6017+81.5293L61.1487+81.7575L67.3627+84.3502L68.1327+84.6707C68.2377+84.7152+68.3037+84.806+68.3047+84.905C68.3047+85.004+68.2397+85.0941+68.1367+85.1376Z" fill-rule="evenodd" fill="#ffffff" opacity="1"/>
<path d="M71.1817+82.2486L115.412+82.3337C115.903+82.3346+116.305+82.5784+116.313+82.8796L116.379+87.3509C116.383+87.6529+115.987+87.8979+115.493+87.8969L71.2637+87.8119L71.1817+82.2486Z" fill-rule="evenodd" fill="#61cfee" opacity="1"/>
</g>
</svg>
