<?xml version="1.0" encoding="UTF-8" standalone="no"?> <!-- Created with Vectornator for iOS (http://vectornator.io/) --><!DOCTYPE svg PUBLIC "-//W3C//DTD SVG 1.1//EN" "http://www.w3.org/Graphics/SVG/1.1/DTD/svg11.dtd">
<svg height="100%" style="fill-rule:evenodd;clip-rule:evenodd;stroke-linecap:round;stroke-linejoin:round;" xmlns:xlink="http://www.w3.org/1999/xlink" xmlns="http://www.w3.org/2000/svg" xml:space="preserve" width="100%" xmlns:vectornator="http://vectornator.io" version="1.1" viewBox="0 0 198.45 113.4">
<metadata>
<vectornator:setting key="DisplayWhiteBackground" value="0"/>
<vectornator:setting key="RulersVisible" value="1"/>
<vectornator:setting key="GridSpacing" value="36"/>
<vectornator:setting key="Units" value="Millimeters"/>
<vectornator:setting key="DynamicGuides" value="1"/>
<vectornator:setting key="SnapToPoints" value="0"/>
<vectornator:setting key="CMYKEnabledKey" value="0"/>
<vectornator:setting key="SnapToGrid" value="0"/>
<vectornator:setting key="SnapToGuides" value="1"/>
<vectornator:setting key="SnapToEdges" value="0"/>
</metadata>
<defs/>
<g id="layer1 copy" vectornator:layerName="layer1 copy">
<text x="0" font-family="sans-serif" y="0" text-anchor="middle" vectornator:text="new&#x20;commit&#x20;point" fill="#d14671" font-size="5" vectornator:width="49.9339" opacity="1" transform="matrix(1 0 0 1 132.135 70.6244)">
<tspan x="24.9669" y="5" textLength="38.9038">
new commit point</tspan>
</text>
<path d="M56.509+22.1765L76.6922+22.1765C76.9661+22.1765+77.1881+22.5666+77.1881+23.0477L77.1881+96.9459C77.1881+97.427+76.9661+97.817+76.6922+97.817L56.509+97.817C56.2351+97.817+56.0131+97.427+56.0131+96.9459L56.0131+23.0477C56.0131+22.5666+56.2351+22.1765+56.509+22.1765Z" opacity="1" fill="#464353"/>
<path d="M150.433+6.64643L185.979+6.64643L185.979+6.64643L185.979+24.7792L185.979+24.7792L150.433+24.7792L150.433+24.7792L150.433+6.64643L150.433+6.64643Z" opacity="1" fill="#d14671"/>
<text x="0" font-family="sans-serif" y="0" text-anchor="middle" vectornator:text="column&#x20;files" fill="#ffffff" font-size="5" vectornator:width="51.1341" opacity="1" transform="matrix(1 0 0 1 66.8257 101.181)">
<tspan x="25.567" y="5" textLength="26.3989">
column files</tspan>
</text>
<text x="0" font-family="sans-serif" y="0" text-anchor="middle" vectornator:text="row&#x20;1" fill="#ffffff" font-size="5" vectornator:width="47.1676" opacity="1" transform="matrix(1 0 0 1 5.12821 43.4965)">
<tspan x="23.5838" y="5" textLength="12.2266">
row 1</tspan>
</text>
<path d="M81.9847+22.1765L102.168+22.1765C102.442+22.1765+102.664+22.5666+102.664+23.0477L102.664+96.9459C102.664+97.427+102.442+97.817+102.168+97.817L81.9847+97.817C81.7108+97.817+81.4888+97.427+81.4888+96.9459L81.4888+23.0477C81.4888+22.5666+81.7108+22.1765+81.9847+22.1765Z" opacity="1" fill="#464353"/>
<path d="M108.093+22.1765L128.276+22.1765C128.55+22.1765+128.772+22.5666+128.772+23.0477L128.772+96.9459C128.772+97.427+128.55+97.817+128.276+97.817L108.093+97.817C107.819+97.817+107.597+97.427+107.597+96.9459L107.597+23.0477C107.597+22.5666+107.819+22.1765+108.093+22.1765Z" opacity="1" fill="#464353"/>
<path d="M130.594+46.8434L130.105+46.9826L126.157+48.1086L125.808+48.2073C125.76+48.2208+125.704+48.2219+125.654+48.2103C125.604+48.1988+125.564+48.1755+125.543+48.1461C125.533+48.1324+125.529+48.1179+125.528+48.1032L125.518+47.4336C125.517+47.3699+125.43+47.318+125.322+47.3174L115.643+47.2994C115.536+47.2992+115.448+47.2476+115.446+47.184L115.432+46.2386C115.431+46.1746+115.517+46.1228+115.625+46.123L125.305+46.141C125.411+46.1408+125.497+46.0897+125.497+46.0263L125.486+45.3419C125.486+45.3272+125.491+45.3126+125.5+45.299C125.52+45.2696+125.559+45.2465+125.609+45.2352C125.659+45.2239+125.715+45.2253+125.764+45.2391L126.115+45.3406L130.098+46.4933L130.592+46.6358C130.658+46.6556+130.701+46.6959+130.701+46.7399C130.702+46.784+130.66+46.824+130.594+46.8434Z" opacity="1" fill="#ffffff"/>
<path d="M116.432+47.3201L41.8411+47.3021C41.0133+47.3019+40.3346+47.2504+40.3212+47.1867L40.2107+46.2413C40.2032+46.1773+40.8716+46.1256+41.7036+46.1258L116.294+46.1438L116.432+47.3201Z" opacity="1" fill="#ffffff"/>
<path d="M130.594+62.6017L130.105+62.7408L126.157+63.8669L125.808+63.9656C125.76+63.9791+125.704+63.9802+125.654+63.9686C125.604+63.957+125.564+63.9338+125.543+63.9043C125.533+63.8907+125.529+63.8761+125.528+63.8614L125.518+63.1919C125.517+63.1282+125.43+63.0763+125.322+63.0756L115.643+63.0577C115.536+63.0575+115.448+63.0059+115.446+62.9422L115.432+61.9969C115.431+61.9328+115.517+61.8811+115.625+61.8813L125.305+61.8993C125.411+61.8991+125.497+61.848+125.497+61.7846L125.486+61.1002C125.486+61.0855+125.491+61.0709+125.5+61.0573C125.52+61.0279+125.559+61.0048+125.609+60.9935C125.659+60.9821+125.715+60.9835+125.764+60.9974L126.115+61.0988L130.098+62.2516L130.592+62.3941C130.658+62.4138+130.701+62.4542+130.701+62.4982C130.702+62.5422+130.66+62.5823+130.594+62.6017Z" opacity="1" fill="#ffffff"/>
<path d="M116.432+63.0784L41.8411+63.0604C41.0133+63.0602+40.3346+63.0087+40.3212+62.945L40.2107+61.9996C40.2032+61.9356+40.8716+61.8839+41.7036+61.8841L116.294+61.9021L116.432+63.0784Z" opacity="1" fill="#ffffff"/>
<path d="M131.126+32.5338L131.426+32.4469L133.845+31.744L134.059+31.6824C134.088+31.6739+134.122+31.6732+134.153+31.6805C134.184+31.6877+134.208+31.7022+134.221+31.7206C134.227+31.7291+134.23+31.7382+134.23+31.7474L134.236+32.1653C134.237+32.2051+134.291+32.2375+134.356+32.2379L140.287+32.2491C140.353+32.2493+140.407+32.2814+140.408+32.3212L140.417+32.9114C140.417+32.9513+140.364+32.9836+140.298+32.9835L134.367+32.9722C134.302+32.9724+134.249+33.0043+134.249+33.0439L134.256+33.4711C134.256+33.4803+134.253+33.4894+134.248+33.4979C134.235+33.5162+134.211+33.5306+134.18+33.5377C134.15+33.5448+134.116+33.5439+134.086+33.5353L133.871+33.4719L131.43+32.7523L131.128+32.6634C131.087+32.651+131.061+32.6258+131.06+32.5984C131.06+32.5709+131.086+32.5459+131.126+32.5338Z" opacity="1" fill="#61cfee"/>
<path d="M56.0131+32.1304L127.216+32.1448C128.006+32.1449+128.654+32.1863+128.667+32.2373L128.772+32.995C128.779+33.0463+128.141+33.0877+127.347+33.0876L56.1444+33.0732L56.0131+32.1304Z" opacity="1" fill="#61cfee"/>
<text x="0" font-family="sans-serif" y="0" text-anchor="middle" vectornator:text="row&#x20;2" fill="#ffffff" font-size="5" vectornator:width="47.1676" opacity="1" transform="matrix(1 0 0 1 5.12821 60.3337)">
<tspan x="23.5838" y="5" textLength="12.2266">
row 2</tspan>
</text>
<text x="0" font-family="sans-serif" y="0" text-anchor="middle" vectornator:text="1" fill="#ffffff" font-size="5" vectornator:width="20.7717" opacity="1" transform="matrix(1 0 0 1 56.2147 39.3468)">
<tspan x="10.3859" y="5" textLength="2.78076">
1</tspan>
</text>
<text x="0" font-family="sans-serif" y="0" text-anchor="middle" vectornator:text="2" fill="#ffffff" font-size="5" vectornator:width="20.7717" opacity="1" transform="matrix(1 0 0 1 81.6904 39.3468)">
<tspan x="10.3859" y="5" textLength="2.78076">
2</tspan>
</text>
<text x="0" font-family="sans-serif" y="0" text-anchor="middle" vectornator:text="3" fill="#ffffff" font-size="5" vectornator:width="20.7717" opacity="1" transform="matrix(1 0 0 1 107.574 39.3468)">
<tspan x="10.3859" y="5" textLength="2.78076">
3</tspan>
</text>
<text x="0" font-family="sans-serif" y="0" text-anchor="middle" vectornator:text="4" fill="#ffffff" font-size="5" vectornator:width="20.7717" opacity="1" transform="matrix(1 0 0 1 56.0109 54.7789)">
<tspan x="10.3859" y="5" textLength="2.78076">
4</tspan>
</text>
<text x="0" font-family="sans-serif" y="0" text-anchor="middle" vectornator:text="5" fill="#ffffff" font-size="5" vectornator:width="20.7717" opacity="1" transform="matrix(1 0 0 1 82.0069 54.7789)">
<tspan x="10.3859" y="5" textLength="2.78076">
5</tspan>
</text>
<text x="0" font-family="sans-serif" y="0" text-anchor="middle" vectornator:text="6" fill="#ffffff" font-size="5" vectornator:width="20.7717" opacity="1" transform="matrix(1 0 0 1 107.799 54.7789)">
<tspan x="10.3859" y="5" textLength="2.78076">
6</tspan>
</text>
<path d="M139.84+32.609C139.871+32.6061+139.839+32.4699+139.839+32.2482L139.812+12.2747C139.812+12.0531+139.837+11.8706+139.868+11.8662L140.332+11.8237C140.364+11.8208+140.389+11.9991+140.39+12.2219L140.417+32.1953C140.417+32.4158+140.315+32.5962+140.346+32.5949L139.84+32.609Z" opacity="1" fill="#61cfee"/>
<path d="M139.812+11.8516C139.814+11.8829+139.894+11.8511+140.023+11.851L151.712+11.8237C151.842+11.8234+151.949+11.8483+151.951+11.8796L151.976+12.3437C151.978+12.3751+151.873+12.4008+151.743+12.4011L140.054+12.4284C139.925+12.429+139.82+12.3263+139.82+12.3574L139.812+11.8516Z" opacity="1" fill="#61cfee"/>
<text x="0" font-family="sans-serif" y="0" text-anchor="middle" vectornator:text="tx&#x20;file" fill="#ffffff" font-size="5" vectornator:width="47.1676" opacity="1" transform="matrix(1 0 0 1 144.622 13.4318)">
<tspan x="23.5838" y="5" textLength="11.6699">
tx file</tspan>
</text>
<text x="0" font-family="sans-serif" y="0" text-anchor="middle" vectornator:text="prev&#x20;commit&#x20;point" fill="#61cfee" font-size="5" vectornator:width="47.0059" opacity="1" transform="matrix(1 0 0 1 94.4568 11.1288)">
<tspan x="23.503" y="5" textLength="39.458">
prev commit point</tspan>
</text>
<path d="M181.283+78.0201C181.372+78.0128+181.281+77.6615+181.281+77.0901L181.203+25.605C181.202+25.0337+181.274+24.5634+181.363+24.5519L182.692+24.4424C182.782+24.435+182.855+24.8945+182.856+25.4687L182.934+76.9538C182.936+77.5222+182.642+77.9872+182.731+77.9839L181.283+78.0201Z" opacity="1" fill="#d14671"/>
<path d="M130.521+77.5311L130.821+77.3691L133.24+76.0581L133.454+75.9433C133.483+75.9275+133.517+75.9263+133.548+75.9397C133.579+75.9532+133.604+75.9803+133.616+76.0146C133.622+76.0305+133.625+76.0474+133.625+76.0645L133.632+76.844C133.632+76.9181+133.686+76.9785+133.752+76.9793L139.682+77.0002C139.748+77.0005+139.802+77.0605+139.803+77.1346L139.812+78.2351C139.813+78.3097+139.76+78.3699+139.693+78.3696L133.762+78.3487C133.697+78.349+133.645+78.4085+133.645+78.4822L133.651+79.279C133.651+79.2961+133.648+79.3131+133.643+79.3289C133.631+79.3631+133.606+79.39+133.576+79.4032C133.545+79.4164+133.511+79.4148+133.481+79.3987L133.266+79.2806L130.825+77.9386L130.523+77.7728C130.482+77.7497+130.456+77.7027+130.456+77.6515C130.455+77.6002+130.481+77.5536+130.521+77.5311Z" opacity="1" fill="#d14671"/>
<path d="M137.313+77.0689C137.319+77.1375+137.618+77.0676+138.105+77.0674L181.944+77.0075C182.431+77.0068+182.831+77.0616+182.841+77.1303L182.934+78.149C182.94+78.218+182.549+78.2744+182.06+78.2751L138.221+78.3351C137.737+78.3362+137.341+78.1108+137.344+78.1791L137.313+77.0689Z" opacity="1" fill="#d14671"/>
<path d="M56.0131+77.8238L127.216+77.8382C128.006+77.8384+128.654+77.8797+128.667+77.9307L128.772+78.6884C128.779+78.7397+128.141+78.7811+127.347+78.781L56.1444+78.7666L56.0131+77.8238Z" opacity="1" fill="#d14671"/>
<text x="0" font-family="sans-serif" y="0" text-anchor="middle" vectornator:text="insert&#x20;2&#x20;rows" fill="#ffffff" font-size="5" vectornator:width="47.1676" opacity="1" transform="matrix(1 0 0 1 5.12821 27.8032)">
<tspan x="23.5838" y="5" textLength="28.3423">
insert 2 rows</tspan>
</text>
<path d="M168.201+22.3237L168.34+22.8125L169.466+26.7608L169.565+27.1092C169.578+27.1575+169.579+27.2132+169.568+27.2634C169.556+27.3136+169.533+27.3538+169.504+27.3746C169.49+27.3841+169.475+27.3891+169.461+27.3892L168.791+27.3994C168.727+27.4003+168.675+27.4878+168.675+27.5952L168.657+37.2743C168.657+37.3817+168.605+37.4698+168.541+37.4715L167.596+37.4859C167.532+37.4868+167.48+37.4001+167.481+37.2921L167.498+27.613C167.498+27.5062+167.447+27.4205+167.384+27.4207L166.699+27.4311C166.685+27.4314+166.67+27.4268+166.656+27.4178C166.627+27.3978+166.604+27.3581+166.593+27.3082C166.581+27.2582+166.583+27.2023+166.597+27.1537L166.698+26.8028L167.851+22.82L167.993+22.326C168.013+22.2593+168.053+22.2168+168.097+22.2163C168.141+22.2158+168.182+22.2575+168.201+22.3237Z" opacity="1" fill="#ffffff"/>
<path d="M168.678+37.473L168.66+61.9463C168.659+62.2179+168.608+62.4406+168.544+62.445L167.599+62.4812C167.535+62.4837+167.483+62.2644+167.483+61.9914L167.501+37.5182L168.678+37.473Z" opacity="1" fill="#ffffff"/>
<path d="M168.623+63.0784L155.958+63.0604C155.817+63.0602+155.702+63.0087+155.7+62.945L155.681+61.9996C155.68+61.9356+155.793+61.8839+155.934+61.8841L168.6+61.9021L168.623+63.0784Z" opacity="1" fill="#ffffff"/>
<text x="0" font-family="sans-serif" y="0" text-anchor="middle" vectornator:text="commit" fill="#ffffff" font-size="5" vectornator:width="47.0059" opacity="1" transform="matrix(1 0 0 1 119.477 58.9968)">
<tspan x="23.503" y="5" textLength="16.1108">
commit</tspan>
</text>
</g>
</svg>
