<svg xmlns="http://www.w3.org/2000/svg" width="447" height="125">
    <defs>
        <style type="text/css">
            @namespace "http://www.w3.org/2000/svg";
                .line                 {fill: none; stroke: #636273;}
                .bold-line            {stroke: #636273; shape-rendering: crispEdges; stroke-width: 2; }
                .thin-line            {stroke: #636273; shape-rendering: crispEdges}
                .filled               {fill: #636273; stroke: none;}
                text.terminal         {font-family: -apple-system, BlinkMacSystemFont, "Segoe UI", Roboto, Ubuntu, Cantarell, Helvetica, sans-serif;
                font-size: 12px;
                fill: #ffffff;
                font-weight: bold;
                }
                text.nonterminal      {font-family: -apple-system, BlinkMacSystemFont, "Segoe UI", Roboto, Ubuntu, Cantarell, Helvetica, sans-serif;
                font-size: 12px;
                fill: #e289a4;
                font-weight: normal;
                }
                text.regexp           {font-family: -apple-system, BlinkMacSystemFont, "Segoe UI", Roboto, Ubuntu, Cantarell, Helvetica, sans-serif;
                font-size: 12px;
                fill: #00141F;
                font-weight: normal;
                }
                rect, circle, polygon {fill: none; stroke: none;}
                rect.terminal         {fill: none; stroke: #be2f5b;}
                rect.nonterminal      {fill: rgba(255,255,255,0.1); stroke: none;}
                rect.text             {fill: none; stroke: none;}
                polygon.regexp        {fill: #C7ECFF; stroke: #038cbc;}
        </style>
    </defs>
    <polygon points="9 61 1 57 1 65"/>
    <polygon points="17 61 9 57 9 65"/>
    <rect x="31" y="47" width="74" height="32" rx="10"/>
    <rect x="29" y="45" width="74" height="32" class="terminal" rx="10"/>
    <text class="terminal" x="39" y="65">BACKUP</text>
    <rect x="145" y="47" width="62" height="32" rx="10"/>
    <rect x="143" y="45" width="62" height="32" class="terminal" rx="10"/>
    <text class="terminal" x="153" y="65">TABLE</text><a xmlns:xlink="http://www.w3.org/1999/xlink" xlink:href="#tableName" xlink:title="tableName">
    <rect x="247" y="47" width="88" height="32"/>
    <rect x="245" y="45" width="88" height="32" class="nonterminal"/>
    <text class="nonterminal" x="255" y="65">tableName</text></a><rect x="247" y="3" width="24" height="32" rx="10"/>
    <rect x="245" y="1" width="24" height="32" class="terminal" rx="10"/>
    <text class="terminal" x="255" y="21">,</text>
    <rect x="145" y="91" width="92" height="32" rx="10"/>
    <rect x="143" y="89" width="92" height="32" class="terminal" rx="10"/>
    <text class="terminal" x="153" y="109">DATABASE</text>
    <rect x="395" y="47" width="24" height="32" rx="10"/>
    <rect x="393" y="45" width="24" height="32" class="terminal" rx="10"/>
    <text class="terminal" x="403" y="65">;</text>
    <path xmlns:svg="http://www.w3.org/2000/svg" class="line" d="m17 61 h2 m0 0 h10 m74 0 h10 m20 0 h10 m62 0 h10 m20 0 h10 m88 0 h10 m-128 0 l20 0 m-1 0 q-9 0 -9 -10 l0 -24 q0 -10 10 -10 m108 44 l20 0 m-20 0 q10 0 10 -10 l0 -24 q0 -10 -10 -10 m-108 0 h10 m24 0 h10 m0 0 h64 m-230 44 h20 m230 0 h20 m-270 0 q10 0 10 10 m250 0 q0 -10 10 -10 m-260 10 v24 m250 0 v-24 m-250 24 q0 10 10 10 m230 0 q10 0 10 -10 m-240 10 h10 m92 0 h10 m0 0 h118 m20 -44 h10 m24 0 h10 m3 0 h-3"/>
    <polygon points="437 61 445 57 445 65"/>
    <polygon points="437 61 429 57 429 65"/></svg>
