<svg xmlns="http://www.w3.org/2000/svg" width="923" height="257">
    <defs>
        <style type="text/css">
            @namespace "http://www.w3.org/2000/svg";
                .line                 {fill: none; stroke: #636273;}
                .bold-line            {stroke: #636273; shape-rendering: crispEdges; stroke-width: 2; }
                .thin-line            {stroke: #636273; shape-rendering: crispEdges}
                .filled               {fill: #636273; stroke: none;}
                text.terminal         {font-family: -apple-system, BlinkMacSystemFont, "Segoe UI", Roboto, Ubuntu, Cantarell, Helvetica, sans-serif;
                font-size: 12px;
                fill: #ffffff;
                font-weight: bold;
                }
                text.nonterminal      {font-family: -apple-system, BlinkMacSystemFont, "Segoe UI", Roboto, Ubuntu, Cantarell, Helvetica, sans-serif;
                font-size: 12px;
                fill: #e289a4;
                font-weight: normal;
                }
                text.regexp           {font-family: -apple-system, BlinkMacSystemFont, "Segoe UI", Roboto, Ubuntu, Cantarell, Helvetica, sans-serif;
                font-size: 12px;
                fill: #00141F;
                font-weight: normal;
                }
                rect, circle, polygon {fill: none; stroke: none;}
                rect.terminal         {fill: none; stroke: #be2f5b;}
                rect.nonterminal      {fill: rgba(255,255,255,0.1); stroke: none;}
                rect.text             {fill: none; stroke: none;}
                polygon.regexp        {fill: #C7ECFF; stroke: #038cbc;}
        </style>
    </defs>
    <polygon points="9 17 1 13 1 21"/>
    <polygon points="17 17 9 13 9 21"/><a xmlns:xlink="http://www.w3.org/1999/xlink" xlink:href="#user_1" xlink:title="user_1">
    <rect x="51" y="3" width="64" height="32"/>
    <rect x="49" y="1" width="64" height="32" class="nonterminal"/>
    <text class="nonterminal" x="59" y="21">user_1</text></a><a xmlns:xlink="http://www.w3.org/1999/xlink" xlink:href="#user_2" xlink:title="user_2">
    <rect x="51" y="47" width="64" height="32"/>
    <rect x="49" y="45" width="64" height="32" class="nonterminal"/>
    <text class="nonterminal" x="59" y="65">user_2</text></a><rect x="51" y="91" width="32" height="32" rx="10"/>
    <rect x="49" y="89" width="32" height="32" class="terminal" rx="10"/>
    <text class="terminal" x="59" y="109">...</text>
    <rect x="155" y="3" width="108" height="32" rx="10"/>
    <rect x="153" y="1" width="108" height="32" class="terminal" rx="10"/>
    <text class="terminal" x="163" y="21">TCP requests</text><a xmlns:xlink="http://www.w3.org/1999/xlink" xlink:href="#network_IO_thread" xlink:title="network_IO_thread">
    <rect x="283" y="3" width="144" height="32"/>
    <rect x="281" y="1" width="144" height="32" class="nonterminal"/>
    <text class="nonterminal" x="291" y="21">network_IO_thread</text></a><rect x="447" y="3" width="106" height="32" rx="10"/>
    <rect x="445" y="1" width="106" height="32" class="terminal" rx="10"/>
    <text class="terminal" x="455" y="21">write_queue</text><a xmlns:xlink="http://www.w3.org/1999/xlink" xlink:href="#worker_1" xlink:title="worker_1">
    <rect x="593" y="3" width="78" height="32"/>
    <rect x="591" y="1" width="78" height="32" class="nonterminal"/>
    <text class="nonterminal" x="601" y="21">worker_1</text></a><rect x="691" y="3" width="56" height="32" rx="10"/>
    <rect x="689" y="1" width="56" height="32" class="terminal" rx="10"/>
    <text class="terminal" x="699" y="21">write</text><a xmlns:xlink="http://www.w3.org/1999/xlink" xlink:href="#table_1" xlink:title="table_1">
    <rect x="787" y="3" width="68" height="32"/>
    <rect x="785" y="1" width="68" height="32" class="nonterminal"/>
    <text class="nonterminal" x="795" y="21">table_1</text></a><a xmlns:xlink="http://www.w3.org/1999/xlink" xlink:href="#table_2" xlink:title="table_2">
    <rect x="787" y="47" width="68" height="32"/>
    <rect x="785" y="45" width="68" height="32" class="nonterminal"/>
    <text class="nonterminal" x="795" y="65">table_2</text></a><rect x="787" y="91" width="32" height="32" rx="10"/>
    <rect x="785" y="89" width="32" height="32" class="terminal" rx="10"/>
    <text class="terminal" x="795" y="109">...</text><a xmlns:xlink="http://www.w3.org/1999/xlink" xlink:href="#worker_2" xlink:title="worker_2">
    <rect x="593" y="135" width="78" height="32"/>
    <rect x="591" y="133" width="78" height="32" class="nonterminal"/>
    <text class="nonterminal" x="601" y="153">worker_2</text></a><rect x="691" y="135" width="56" height="32" rx="10"/>
    <rect x="689" y="133" width="56" height="32" class="terminal" rx="10"/>
    <text class="terminal" x="699" y="153">write</text><a xmlns:xlink="http://www.w3.org/1999/xlink" xlink:href="#table_3" xlink:title="table_3">
    <rect x="787" y="135" width="68" height="32"/>
    <rect x="785" y="133" width="68" height="32" class="nonterminal"/>
    <text class="nonterminal" x="795" y="153">table_3</text></a><a xmlns:xlink="http://www.w3.org/1999/xlink" xlink:href="#table_4" xlink:title="table_4">
    <rect x="787" y="179" width="68" height="32"/>
    <rect x="785" y="177" width="68" height="32" class="nonterminal"/>
    <text class="nonterminal" x="795" y="197">table_4</text></a><rect x="787" y="223" width="32" height="32" rx="10"/>
    <rect x="785" y="221" width="32" height="32" class="terminal" rx="10"/>
    <text class="terminal" x="795" y="241">...</text>
    <path xmlns:svg="http://www.w3.org/2000/svg" class="line" d="m17 17 h2 m20 0 h10 m64 0 h10 m-104 0 h20 m84 0 h20 m-124 0 q10 0 10 10 m104 0 q0 -10 10 -10 m-114 10 v24 m104 0 v-24 m-104 24 q0 10 10 10 m84 0 q10 0 10 -10 m-94 10 h10 m64 0 h10 m-94 -10 v20 m104 0 v-20 m-104 20 v24 m104 0 v-24 m-104 24 q0 10 10 10 m84 0 q10 0 10 -10 m-94 10 h10 m32 0 h10 m0 0 h32 m20 -88 h10 m108 0 h10 m0 0 h10 m144 0 h10 m0 0 h10 m106 0 h10 m20 0 h10 m78 0 h10 m0 0 h10 m56 0 h10 m20 0 h10 m68 0 h10 m-108 0 h20 m88 0 h20 m-128 0 q10 0 10 10 m108 0 q0 -10 10 -10 m-118 10 v24 m108 0 v-24 m-108 24 q0 10 10 10 m88 0 q10 0 10 -10 m-98 10 h10 m68 0 h10 m-98 -10 v20 m108 0 v-20 m-108 20 v24 m108 0 v-24 m-108 24 q0 10 10 10 m88 0 q10 0 10 -10 m-98 10 h10 m32 0 h10 m0 0 h36 m-302 -88 h20 m302 0 h20 m-342 0 q10 0 10 10 m322 0 q0 -10 10 -10 m-332 10 v112 m322 0 v-112 m-322 112 q0 10 10 10 m302 0 q10 0 10 -10 m-312 10 h10 m78 0 h10 m0 0 h10 m56 0 h10 m20 0 h10 m68 0 h10 m-108 0 h20 m88 0 h20 m-128 0 q10 0 10 10 m108 0 q0 -10 10 -10 m-118 10 v24 m108 0 v-24 m-108 24 q0 10 10 10 m88 0 q10 0 10 -10 m-98 10 h10 m68 0 h10 m-98 -10 v20 m108 0 v-20 m-108 20 v24 m108 0 v-24 m-108 24 q0 10 10 10 m88 0 q10 0 10 -10 m-98 10 h10 m32 0 h10 m0 0 h36 m43 -220 h-3"/>
    <polygon points="913 17 921 13 921 21"/>
    <polygon points="913 17 905 13 905 21"/></svg>
