<svg xmlns="http://www.w3.org/2000/svg" width="1089" height="465">
         <defs>
            <style type="text/css">
                @namespace "http://www.w3.org/2000/svg";
                .line                 {fill: none; stroke: #636273;}
                .bold-line            {stroke: #636273; shape-rendering: crispEdges; stroke-width: 2; }
                .thin-line            {stroke: #636273; shape-rendering: crispEdges}
                .filled               {fill: #636273; stroke: none;}
                text.terminal         {font-family: -apple-system, BlinkMacSystemFont, "Segoe UI", Roboto, Ubuntu, Cantarell, Helvetica, sans-serif;
                font-size: 12px;
                fill: #ffffff;
                font-weight: bold;
                }
                text.nonterminal      {font-family: -apple-system, BlinkMacSystemFont, "Segoe UI", Roboto, Ubuntu, Cantarell, Helvetica, sans-serif;
                font-size: 12px;
                fill: #e289a4;
                font-weight: normal;
                }
                text.regexp           {font-family: -apple-system, BlinkMacSystemFont, "Segoe UI", Roboto, Ubuntu, Cantarell, Helvetica, sans-serif;
                font-size: 12px;
                fill: #00141F;
                font-weight: normal;
                }
                rect, circle, polygon {fill: none; stroke: none;}
                rect.terminal         {fill: none; stroke: #be2f5b;}
                rect.nonterminal      {fill: rgba(255,255,255,0.1); stroke: none;}
                rect.text             {fill: none; stroke: none;}
                polygon.regexp        {fill: #C7ECFF; stroke: #038cbc;}
  </style>
         </defs>
         <polygon points="9 33 1 29 1 37"/>
         <polygon points="17 33 9 29 9 37"/>
         <rect x="51" y="19" width="70" height="32" rx="10"/>
         <rect x="49" y="17" width="70" height="32" class="terminal" rx="10"/>
         <text class="terminal" x="59" y="37">SELECT</text><a xmlns:xlink="http://www.w3.org/1999/xlink" xlink:href="#columnn-expression" xlink:title="columnn-expression">
            <rect x="181" y="19" width="148" height="32"/>
            <rect x="179" y="17" width="148" height="32" class="nonterminal"/>
            <text class="nonterminal" x="189" y="37">columnn-expression</text></a><rect x="369" y="51" width="24" height="32" rx="10"/>
         <rect x="367" y="49" width="24" height="32" class="terminal" rx="10"/>
         <text class="terminal" x="377" y="69">,</text>
         <rect x="473" y="19" width="60" height="32" rx="10"/>
         <rect x="471" y="17" width="60" height="32" class="terminal" rx="10"/>
         <text class="terminal" x="481" y="37">FROM</text>
         <rect x="593" y="19" width="54" height="32" rx="10"/>
         <rect x="591" y="17" width="54" height="32" class="terminal" rx="10"/>
         <text class="terminal" x="601" y="37">table</text>
         <rect x="593" y="63" width="26" height="32" rx="10"/>
         <rect x="591" y="61" width="26" height="32" class="terminal" rx="10"/>
         <text class="terminal" x="601" y="81">(</text><a xmlns:xlink="http://www.w3.org/1999/xlink" xlink:href="#sub-query" xlink:title="sub-query">
            <rect x="639" y="63" width="84" height="32"/>
            <rect x="637" y="61" width="84" height="32" class="nonterminal"/>
            <text class="nonterminal" x="647" y="81">sub-query</text></a><rect x="743" y="63" width="26" height="32" rx="10"/>
         <rect x="741" y="61" width="26" height="32" class="terminal" rx="10"/>
         <text class="terminal" x="751" y="81">)</text>
         <rect x="85" y="197" width="64" height="32" rx="10"/>
         <rect x="83" y="195" width="64" height="32" class="terminal" rx="10"/>
         <text class="terminal" x="93" y="215">INNER</text>
         <rect x="85" y="241" width="66" height="32" rx="10"/>
         <rect x="83" y="239" width="66" height="32" class="terminal" rx="10"/>
         <text class="terminal" x="93" y="259">OUTER</text>
         <rect x="85" y="285" width="66" height="32" rx="10"/>
         <rect x="83" y="283" width="66" height="32" class="terminal" rx="10"/>
         <text class="terminal" x="93" y="303">CROSS</text>
         <rect x="85" y="329" width="56" height="32" rx="10"/>
         <rect x="83" y="327" width="56" height="32" class="terminal" rx="10"/>
         <text class="terminal" x="93" y="347">ASOF</text>
         <rect x="191" y="165" width="54" height="32" rx="10"/>
         <rect x="189" y="163" width="54" height="32" class="terminal" rx="10"/>
         <text class="terminal" x="199" y="183">JOIN</text>
         <rect x="285" y="165" width="54" height="32" rx="10"/>
         <rect x="283" y="163" width="54" height="32" class="terminal" rx="10"/>
         <text class="terminal" x="293" y="183">table</text>
         <rect x="285" y="209" width="26" height="32" rx="10"/>
         <rect x="283" y="207" width="26" height="32" class="terminal" rx="10"/>
         <text class="terminal" x="293" y="227">(</text><a xmlns:xlink="http://www.w3.org/1999/xlink" xlink:href="#sub-query" xlink:title="sub-query">
            <rect x="331" y="209" width="84" height="32"/>
            <rect x="329" y="207" width="84" height="32" class="nonterminal"/>
            <text class="nonterminal" x="339" y="227">sub-query</text></a><rect x="435" y="209" width="26" height="32" rx="10"/>
         <rect x="433" y="207" width="26" height="32" class="terminal" rx="10"/>
         <text class="terminal" x="443" y="227">)</text>
         <rect x="521" y="165" width="40" height="32" rx="10"/>
         <rect x="519" y="163" width="40" height="32" class="terminal" rx="10"/>
         <text class="terminal" x="529" y="183">ON</text>
         <rect x="601" y="197" width="26" height="32" rx="10"/>
         <rect x="599" y="195" width="26" height="32" class="terminal" rx="10"/>
         <text class="terminal" x="609" y="215">(</text><a xmlns:xlink="http://www.w3.org/1999/xlink" xlink:href="#column" xlink:title="column">
            <rect x="647" y="197" width="64" height="32"/>
            <rect x="645" y="195" width="64" height="32" class="nonterminal"/>
            <text class="nonterminal" x="655" y="215">column</text></a><rect x="731" y="197" width="26" height="32" rx="10"/>
         <rect x="729" y="195" width="26" height="32" class="terminal" rx="10"/>
         <text class="terminal" x="739" y="215">)</text><a xmlns:xlink="http://www.w3.org/1999/xlink" xlink:href="#column" xlink:title="column">
            <rect x="621" y="263" width="64" height="32"/>
            <rect x="619" y="261" width="64" height="32" class="nonterminal"/>
            <text class="nonterminal" x="629" y="281">column</text></a><rect x="705" y="263" width="30" height="32" rx="10"/>
         <rect x="703" y="261" width="30" height="32" class="terminal" rx="10"/>
         <text class="terminal" x="713" y="281">=</text><a xmlns:xlink="http://www.w3.org/1999/xlink" xlink:href="#other-column" xlink:title="other-column">
            <rect x="755" y="263" width="104" height="32"/>
            <rect x="753" y="261" width="104" height="32" class="nonterminal"/>
            <text class="nonterminal" x="763" y="281">other-column</text></a><rect x="899" y="295" width="48" height="32" rx="10"/>
         <rect x="897" y="293" width="48" height="32" class="terminal" rx="10"/>
         <text class="terminal" x="907" y="313">AND</text>
         <rect x="847" y="431" width="70" height="32" rx="10"/>
         <rect x="845" y="429" width="70" height="32" class="terminal" rx="10"/>
         <text class="terminal" x="855" y="449">WHERE</text><a xmlns:xlink="http://www.w3.org/1999/xlink" xlink:href="#where-clause" xlink:title="where-clause">
            <rect x="937" y="431" width="104" height="32"/>
            <rect x="935" y="429" width="104" height="32" class="nonterminal"/>
            <text class="nonterminal" x="945" y="449">where-clause</text></a><path xmlns:svg="http://www.w3.org/2000/svg" class="line" d="m17 33 h2 m20 0 h10 m70 0 h10 m40 0 h10 m148 0 h10 m20 0 h10 m0 0 h34 m-64 0 h20 m44 0 h20 m-84 0 q10 0 10 10 m64 0 q0 -10 10 -10 m-74 10 v12 m64 0 v-12 m-64 12 q0 10 10 10 m44 0 q10 0 10 -10 m-54 10 h10 m24 0 h10 m-252 -32 l20 0 m-1 0 q-9 0 -9 -10 l0 -12 q0 -10 10 -10 m252 32 l20 0 m-20 0 q10 0 10 -10 l0 -12 q0 -10 -10 -10 m-252 0 h10 m0 0 h242 m-292 32 h20 m292 0 h20 m-332 0 q10 0 10 10 m312 0 q0 -10 10 -10 m-322 10 v46 m312 0 v-46 m-312 46 q0 10 10 10 m292 0 q10 0 10 -10 m-302 10 h10 m0 0 h282 m20 -66 h10 m60 0 h10 m-522 0 h20 m502 0 h20 m-542 0 q10 0 10 10 m522 0 q0 -10 10 -10 m-532 10 v62 m522 0 v-62 m-522 62 q0 10 10 10 m502 0 q10 0 10 -10 m-512 10 h10 m0 0 h492 m40 -82 h10 m54 0 h10 m0 0 h122 m-216 0 h20 m196 0 h20 m-236 0 q10 0 10 10 m216 0 q0 -10 10 -10 m-226 10 v24 m216 0 v-24 m-216 24 q0 10 10 10 m196 0 q10 0 10 -10 m-206 10 h10 m26 0 h10 m0 0 h10 m84 0 h10 m0 0 h10 m26 0 h10 m22 -44 l2 0 m2 0 l2 0 m2 0 l2 0 m-808 146 l2 0 m2 0 l2 0 m2 0 l2 0 m62 0 h10 m0 0 h76 m-106 0 h20 m86 0 h20 m-126 0 q10 0 10 10 m106 0 q0 -10 10 -10 m-116 10 v12 m106 0 v-12 m-106 12 q0 10 10 10 m86 0 q10 0 10 -10 m-96 10 h10 m64 0 h10 m0 0 h2 m-96 -10 v20 m106 0 v-20 m-106 20 v24 m106 0 v-24 m-106 24 q0 10 10 10 m86 0 q10 0 10 -10 m-96 10 h10 m66 0 h10 m-96 -10 v20 m106 0 v-20 m-106 20 v24 m106 0 v-24 m-106 24 q0 10 10 10 m86 0 q10 0 10 -10 m-96 10 h10 m66 0 h10 m-96 -10 v20 m106 0 v-20 m-106 20 v24 m106 0 v-24 m-106 24 q0 10 10 10 m86 0 q10 0 10 -10 m-96 10 h10 m56 0 h10 m0 0 h10 m20 -164 h10 m54 0 h10 m20 0 h10 m54 0 h10 m0 0 h122 m-216 0 h20 m196 0 h20 m-236 0 q10 0 10 10 m216 0 q0 -10 10 -10 m-226 10 v24 m216 0 v-24 m-216 24 q0 10 10 10 m196 0 q10 0 10 -10 m-206 10 h10 m26 0 h10 m0 0 h10 m84 0 h10 m0 0 h10 m26 0 h10 m40 -44 h10 m40 0 h10 m20 0 h10 m0 0 h396 m-426 0 h20 m406 0 h20 m-446 0 q10 0 10 10 m426 0 q0 -10 10 -10 m-436 10 v12 m426 0 v-12 m-426 12 q0 10 10 10 m406 0 q10 0 10 -10 m-416 10 h10 m26 0 h10 m0 0 h10 m64 0 h10 m0 0 h10 m26 0 h10 m0 0 h230 m-416 -10 v20 m426 0 v-20 m-426 20 v46 m426 0 v-46 m-426 46 q0 10 10 10 m406 0 q10 0 10 -10 m-396 10 h10 m64 0 h10 m0 0 h10 m30 0 h10 m0 0 h10 m104 0 h10 m20 0 h10 m0 0 h58 m-88 0 h20 m68 0 h20 m-108 0 q10 0 10 10 m88 0 q0 -10 10 -10 m-98 10 v12 m88 0 v-12 m-88 12 q0 10 10 10 m68 0 q10 0 10 -10 m-78 10 h10 m48 0 h10 m-366 -32 l20 0 m-1 0 q-9 0 -9 -10 l0 -12 q0 -10 10 -10 m366 32 l20 0 m-20 0 q10 0 10 -10 l0 -12 q0 -10 -10 -10 m-366 0 h10 m0 0 h356 m-486 -66 h20 m506 0 h20 m-546 0 q10 0 10 10 m526 0 q0 -10 10 -10 m-536 10 v144 m526 0 v-144 m-526 144 q0 10 10 10 m506 0 q10 0 10 -10 m-516 10 h10 m0 0 h496 m-982 -164 l20 0 m-1 0 q-9 0 -9 -10 l0 -12 q0 -10 10 -10 m982 32 l20 0 m-20 0 q10 0 10 -10 l0 -12 q0 -10 -10 -10 m-982 0 h10 m0 0 h972 m-1022 32 h20 m1022 0 h20 m-1062 0 q10 0 10 10 m1042 0 q0 -10 10 -10 m-1052 10 v178 m1042 0 v-178 m-1042 178 q0 10 10 10 m1022 0 q10 0 10 -10 m-1032 10 h10 m0 0 h1012 m22 -198 l2 0 m2 0 l2 0 m2 0 l2 0 m-284 234 l2 0 m2 0 l2 0 m2 0 l2 0 m22 0 h10 m0 0 h204 m-234 0 h20 m214 0 h20 m-254 0 q10 0 10 10 m234 0 q0 -10 10 -10 m-244 10 v12 m234 0 v-12 m-234 12 q0 10 10 10 m214 0 q10 0 10 -10 m-224 10 h10 m70 0 h10 m0 0 h10 m104 0 h10 m23 -32 h-3"/>
         <polygon points="1079 413 1087 409 1087 417"/>
         <polygon points="1079 413 1071 409 1071 417"/></svg>
