<svg xmlns="http://www.w3.org/2000/svg" width="747" height="81">
    <defs>
        <style type="text/css">
            @namespace "http://www.w3.org/2000/svg";
                .line                 {fill: none; stroke: #636273;}
                .bold-line            {stroke: #636273; shape-rendering: crispEdges; stroke-width: 2; }
                .thin-line            {stroke: #636273; shape-rendering: crispEdges}
                .filled               {fill: #636273; stroke: none;}
                text.terminal         {font-family: -apple-system, BlinkMacSystemFont, "Segoe UI", Roboto, Ubuntu, Cantarell, Helvetica, sans-serif;
                font-size: 12px;
                fill: #ffffff;
                font-weight: bold;
                }
                text.nonterminal      {font-family: -apple-system, BlinkMacSystemFont, "Segoe UI", Roboto, Ubuntu, Cantarell, Helvetica, sans-serif;
                font-size: 12px;
                fill: #e289a4;
                font-weight: normal;
                }
                text.regexp           {font-family: -apple-system, BlinkMacSystemFont, "Segoe UI", Roboto, Ubuntu, Cantarell, Helvetica, sans-serif;
                font-size: 12px;
                fill: #00141F;
                font-weight: normal;
                }
                rect, circle, polygon {fill: none; stroke: none;}
                rect.terminal         {fill: none; stroke: #be2f5b;}
                rect.nonterminal      {fill: rgba(255,255,255,0.1); stroke: none;}
                rect.text             {fill: none; stroke: none;}
                polygon.regexp        {fill: #C7ECFF; stroke: #038cbc;}
        </style>
    </defs>
    <polygon points="9 17 1 13 1 21"/>
    <polygon points="17 17 9 13 9 21"/>
    <rect x="31" y="3" width="70" height="32" rx="10"/>
    <rect x="29" y="1" width="70" height="32" class="terminal" rx="10"/>
    <text class="terminal" x="39" y="21">SELECT</text><a xmlns:xlink="http://www.w3.org/1999/xlink" xlink:href="#someSelectStatement" xlink:title="someSelectStatement">
    <rect x="121" y="3" width="160" height="32"/>
    <rect x="119" y="1" width="160" height="32" class="nonterminal"/>
    <text class="nonterminal" x="129" y="21">someSelectStatement</text></a><rect x="301" y="3" width="60" height="32" rx="10"/>
    <rect x="299" y="1" width="60" height="32" class="terminal" rx="10"/>
    <text class="terminal" x="309" y="21">LIMIT</text><a xmlns:xlink="http://www.w3.org/1999/xlink" xlink:href="#numberOfRecords" xlink:title="numberOfRecords">
    <rect x="401" y="3" width="132" height="32"/>
    <rect x="399" y="1" width="132" height="32" class="nonterminal"/>
    <text class="nonterminal" x="409" y="21">numberOfRecords</text></a><a xmlns:xlink="http://www.w3.org/1999/xlink" xlink:href="#upperBound" xlink:title="upperBound">
    <rect x="401" y="47" width="96" height="32"/>
    <rect x="399" y="45" width="96" height="32" class="nonterminal"/>
    <text class="nonterminal" x="409" y="65">upperBound</text></a><rect x="517" y="47" width="24" height="32" rx="10"/>
    <rect x="515" y="45" width="24" height="32" class="terminal" rx="10"/>
    <text class="terminal" x="525" y="65">,</text><a xmlns:xlink="http://www.w3.org/1999/xlink" xlink:href="#lowerBound" xlink:title="lowerBound">
    <rect x="561" y="47" width="94" height="32"/>
    <rect x="559" y="45" width="94" height="32" class="nonterminal"/>
    <text class="nonterminal" x="569" y="65">lowerBound</text></a><rect x="695" y="3" width="24" height="32" rx="10"/>
    <rect x="693" y="1" width="24" height="32" class="terminal" rx="10"/>
    <text class="terminal" x="703" y="21">;</text>
    <path xmlns:svg="http://www.w3.org/2000/svg" class="line" d="m17 17 h2 m0 0 h10 m70 0 h10 m0 0 h10 m160 0 h10 m0 0 h10 m60 0 h10 m20 0 h10 m132 0 h10 m0 0 h122 m-294 0 h20 m274 0 h20 m-314 0 q10 0 10 10 m294 0 q0 -10 10 -10 m-304 10 v24 m294 0 v-24 m-294 24 q0 10 10 10 m274 0 q10 0 10 -10 m-284 10 h10 m96 0 h10 m0 0 h10 m24 0 h10 m0 0 h10 m94 0 h10 m20 -44 h10 m24 0 h10 m3 0 h-3"/>
    <polygon points="737 17 745 13 745 21"/>
    <polygon points="737 17 729 13 729 21"/></svg>
