<svg xmlns="http://www.w3.org/2000/svg" width="834" height="184">
    <defs>
        <style type="text/css">
            @namespace "http://www.w3.org/2000/svg";
                .line                 {fill: none; stroke: #636273;}
                .bold-line            {stroke: #636273; shape-rendering: crispEdges; stroke-width: 2; }
                .thin-line            {stroke: #636273; shape-rendering: crispEdges}
                .filled               {fill: #636273; stroke: none;}
                text.terminal         {font-family: -apple-system, BlinkMacSystemFont, "Segoe UI", Roboto, Ubuntu, Cantarell, Helvetica, sans-serif;
                font-size: 12px;
                fill: #ffffff;
                font-weight: bold;
                }
                text.nonterminal      {font-family: -apple-system, BlinkMacSystemFont, "Segoe UI", Roboto, Ubuntu, Cantarell, Helvetica, sans-serif;
                font-size: 12px;
                fill: #e289a4;
                font-weight: normal;
                }
                text.regexp           {font-family: -apple-system, BlinkMacSystemFont, "Segoe UI", Roboto, Ubuntu, Cantarell, Helvetica, sans-serif;
                font-size: 12px;
                fill: #00141F;
                font-weight: normal;
                }
                rect, circle, polygon {fill: none; stroke: none;}
                rect.terminal         {fill: none; stroke: #be2f5b;}
                rect.nonterminal      {fill: rgba(255,255,255,0.1); stroke: none;}
                rect.text             {fill: none; stroke: none;}
                polygon.regexp        {fill: #C7ECFF; stroke: #038cbc;}
        </style>
    </defs>
    <polygon points="9 61 1 57 1 65"/>
    <polygon points="17 61 9 57 9 65"/>
    <a xmlns:xlink="http://www.w3.org/1999/xlink" xlink:href="#select" xlink:title="select">
        <rect x="51" y="47" width="56" height="32"/>
        <rect x="49" y="45" width="56" height="32" class="nonterminal"/>
        <text class="nonterminal" x="59" y="65">select</text>
    </a>
    <a xmlns:xlink="http://www.w3.org/1999/xlink" xlink:href="#column" xlink:title="column">
        <rect x="167" y="47" width="64" height="32"/>
        <rect x="165" y="45" width="64" height="32" class="nonterminal"/>
        <text class="nonterminal" x="175" y="65">column</text>
    </a>
    <a xmlns:xlink="http://www.w3.org/1999/xlink" xlink:href="#expression" xlink:title="expression">
        <rect x="167" y="91" width="88" height="32"/>
        <rect x="165" y="89" width="88" height="32" class="nonterminal"/>
        <text class="nonterminal" x="175" y="109">expression</text>
    </a>
    <a xmlns:xlink="http://www.w3.org/1999/xlink" xlink:href="#function" xlink:title="function">
        <rect x="167" y="135" width="70" height="32"/>
        <rect x="165" y="133" width="70" height="32" class="nonterminal"/>
        <text class="nonterminal" x="175" y="153">function</text>
    </a>
    <a xmlns:xlink="http://www.w3.org/1999/xlink" xlink:href="#alias" xlink:title="alias">
        <rect x="315" y="79" width="48" height="32"/>
        <rect x="313" y="77" width="48" height="32" class="nonterminal"/>
        <text class="nonterminal" x="323" y="97">alias</text>
    </a>
    <rect x="147" y="3" width="24" height="32" rx="10"/>
    <rect x="145" y="1" width="24" height="32" class="terminal" rx="10"/>
    <text class="terminal" x="155" y="21">,</text>
    <a xmlns:xlink="http://www.w3.org/1999/xlink" xlink:href="#from" xlink:title="from">
        <rect x="423" y="47" width="48" height="32"/>
        <rect x="421" y="45" width="48" height="32" class="nonterminal"/>
        <text class="nonterminal" x="431" y="65">from</text>
    </a>
    <a xmlns:xlink="http://www.w3.org/1999/xlink" xlink:href="#table" xlink:title="table">
        <rect x="531" y="47" width="52" height="32"/>
        <rect x="529" y="45" width="52" height="32" class="nonterminal"/>
        <text class="nonterminal" x="539" y="65">table</text>
    </a>
    <rect x="531" y="91" width="26" height="32" rx="10"/>
    <rect x="529" y="89" width="26" height="32" class="terminal" rx="10"/>
    <text class="terminal" x="539" y="109">(</text>
    <a xmlns:xlink="http://www.w3.org/1999/xlink" xlink:href="#query" xlink:title="query">
        <rect x="577" y="91" width="56" height="32"/>
        <rect x="575" y="89" width="56" height="32" class="nonterminal"/>
        <text class="nonterminal" x="585" y="109">query</text>
    </a>
    <rect x="653" y="91" width="26" height="32" rx="10"/>
    <rect x="651" y="89" width="26" height="32" class="terminal" rx="10"/>
    <text class="terminal" x="661" y="109">)</text>
    <a xmlns:xlink="http://www.w3.org/1999/xlink" xlink:href="#alias" xlink:title="alias">
        <rect x="739" y="79" width="48" height="32"/>
        <rect x="737" y="77" width="48" height="32" class="nonterminal"/>
        <text class="nonterminal" x="747" y="97">alias</text>
    </a>
    <svg:path xmlns:svg="http://www.w3.org/2000/svg" class="line" d="m17 61 h2 m20 0 h10 m56 0 h10 m40 0 h10 m64 0 h10 m0 0 h24 m-128 0 h20 m108 0 h20 m-148 0 q10 0 10 10 m128 0 q0 -10 10 -10 m-138 10 v24 m128 0 v-24 m-128 24 q0 10 10 10 m108 0 q10 0 10 -10 m-118 10 h10 m88 0 h10 m-118 -10 v20 m128 0 v-20 m-128 20 v24 m128 0 v-24 m-128 24 q0 10 10 10 m108 0 q10 0 10 -10 m-118 10 h10 m70 0 h10 m0 0 h18 m40 -88 h10 m0 0 h58 m-88 0 h20 m68 0 h20 m-108 0 q10 0 10 10 m88 0 q0 -10 10 -10 m-98 10 v12 m88 0 v-12 m-88 12 q0 10 10 10 m68 0 q10 0 10 -10 m-78 10 h10 m48 0 h10 m-256 -32 l20 0 m-1 0 q-9 0 -9 -10 l0 -24 q0 -10 10 -10 m256 44 l20 0 m-20 0 q10 0 10 -10 l0 -24 q0 -10 -10 -10 m-256 0 h10 m24 0 h10 m0 0 h212 m20 44 h10 m48 0 h10 m-460 0 h20 m440 0 h20 m-480 0 q10 0 10 10 m460 0 q0 -10 10 -10 m-470 10 v102 m460 0 v-102 m-460 102 q0 10 10 10 m440 0 q10 0 10 -10 m-450 10 h10 m0 0 h430 m40 -122 h10 m52 0 h10 m0 0 h96 m-188 0 h20 m168 0 h20 m-208 0 q10 0 10 10 m188 0 q0 -10 10 -10 m-198 10 v24 m188 0 v-24 m-188 24 q0 10 10 10 m168 0 q10 0 10 -10 m-178 10 h10 m26 0 h10 m0 0 h10 m56 0 h10 m0 0 h10 m26 0 h10 m40 -44 h10 m0 0 h58 m-88 0 h20 m68 0 h20 m-108 0 q10 0 10 10 m88 0 q0 -10 10 -10 m-98 10 v12 m88 0 v-12 m-88 12 q0 10 10 10 m68 0 q10 0 10 -10 m-78 10 h10 m48 0 h10 m23 -32 h-3"/>
    <polygon points="825 61 833 57 833 65"/>
    <polygon points="825 61 817 57 817 65"/>
</svg>
