<svg xmlns="http://www.w3.org/2000/svg" width="619" height="113">
    <defs>
        <style type="text/css">
            @namespace "http://www.w3.org/2000/svg";
                .line                 {fill: none; stroke: #636273;}
                .bold-line            {stroke: #636273; shape-rendering: crispEdges; stroke-width: 2; }
                .thin-line            {stroke: #636273; shape-rendering: crispEdges}
                .filled               {fill: #636273; stroke: none;}
                text.terminal         {font-family: -apple-system, BlinkMacSystemFont, "Segoe UI", Roboto, Ubuntu, Cantarell, Helvetica, sans-serif;
                font-size: 12px;
                fill: #ffffff;
                font-weight: bold;
                }
                text.nonterminal      {font-family: -apple-system, BlinkMacSystemFont, "Segoe UI", Roboto, Ubuntu, Cantarell, Helvetica, sans-serif;
                font-size: 12px;
                fill: #e289a4;
                font-weight: normal;
                }
                text.regexp           {font-family: -apple-system, BlinkMacSystemFont, "Segoe UI", Roboto, Ubuntu, Cantarell, Helvetica, sans-serif;
                font-size: 12px;
                fill: #00141F;
                font-weight: normal;
                }
                rect, circle, polygon {fill: none; stroke: none;}
                rect.terminal         {fill: none; stroke: #be2f5b;}
                rect.nonterminal      {fill: rgba(255,255,255,0.1); stroke: none;}
                rect.text             {fill: none; stroke: none;}
                polygon.regexp        {fill: #C7ECFF; stroke: #038cbc;}
        </style>
    </defs>
    <polygon points="9 61 1 57 1 65"/>
    <polygon points="17 61 9 57 9 65"/>
    <rect x="31" y="47" width="70" height="32" rx="10"/>
    <rect x="29" y="45" width="70" height="32" class="terminal" rx="10"/>
    <text class="terminal" x="39" y="65">WHERE</text>
    <rect x="141" y="79" width="48" height="32" rx="10"/>
    <rect x="139" y="77" width="48" height="32" class="terminal" rx="10"/>
    <text class="terminal" x="149" y="97">NOT</text><a xmlns:xlink="http://www.w3.org/1999/xlink" xlink:href="#columnName" xlink:title="columnName">
    <rect x="229" y="47" width="102" height="32"/>
    <rect x="227" y="45" width="102" height="32" class="nonterminal"/>
    <text class="nonterminal" x="237" y="65">columnName</text></a><rect x="351" y="47" width="32" height="32" rx="10"/>
    <rect x="349" y="45" width="32" height="32" class="terminal" rx="10"/>
    <text class="terminal" x="359" y="65">in</text>
    <rect x="403" y="47" width="26" height="32" rx="10"/>
    <rect x="401" y="45" width="26" height="32" class="terminal" rx="10"/>
    <text class="terminal" x="411" y="65">(</text><a xmlns:xlink="http://www.w3.org/1999/xlink" xlink:href="#string" xlink:title="string">
    <rect x="469" y="47" width="56" height="32"/>
    <rect x="467" y="45" width="56" height="32" class="nonterminal"/>
    <text class="nonterminal" x="477" y="65">string</text></a><rect x="469" y="3" width="24" height="32" rx="10"/>
    <rect x="467" y="1" width="24" height="32" class="terminal" rx="10"/>
    <text class="terminal" x="477" y="21">,</text>
    <rect x="565" y="47" width="26" height="32" rx="10"/>
    <rect x="563" y="45" width="26" height="32" class="terminal" rx="10"/>
    <text class="terminal" x="573" y="65">)</text>
    <path xmlns:svg="http://www.w3.org/2000/svg" class="line" d="m17 61 h2 m0 0 h10 m70 0 h10 m20 0 h10 m0 0 h58 m-88 0 h20 m68 0 h20 m-108 0 q10 0 10 10 m88 0 q0 -10 10 -10 m-98 10 v12 m88 0 v-12 m-88 12 q0 10 10 10 m68 0 q10 0 10 -10 m-78 10 h10 m48 0 h10 m20 -32 h10 m102 0 h10 m0 0 h10 m32 0 h10 m0 0 h10 m26 0 h10 m20 0 h10 m56 0 h10 m-96 0 l20 0 m-1 0 q-9 0 -9 -10 l0 -24 q0 -10 10 -10 m76 44 l20 0 m-20 0 q10 0 10 -10 l0 -24 q0 -10 -10 -10 m-76 0 h10 m24 0 h10 m0 0 h32 m20 44 h10 m26 0 h10 m3 0 h-3"/>
    <polygon points="609 61 617 57 617 65"/>
    <polygon points="609 61 601 57 601 65"/></svg>
