<svg xmlns="http://www.w3.org/2000/svg" width="671" height="37">
    <defs>
        <style type="text/css">
            @namespace "http://www.w3.org/2000/svg";
                .line                 {fill: none; stroke: #636273;}
                .bold-line            {stroke: #636273; shape-rendering: crispEdges; stroke-width: 2; }
                .thin-line            {stroke: #636273; shape-rendering: crispEdges}
                .filled               {fill: #636273; stroke: none;}
                text.terminal         {font-family: -apple-system, BlinkMacSystemFont, "Segoe UI", Roboto, Ubuntu, Cantarell, Helvetica, sans-serif;
                font-size: 12px;
                fill: #ffffff;
                font-weight: bold;
                }
                text.nonterminal      {font-family: -apple-system, BlinkMacSystemFont, "Segoe UI", Roboto, Ubuntu, Cantarell, Helvetica, sans-serif;
                font-size: 12px;
                fill: #e289a4;
                font-weight: normal;
                }
                text.regexp           {font-family: -apple-system, BlinkMacSystemFont, "Segoe UI", Roboto, Ubuntu, Cantarell, Helvetica, sans-serif;
                font-size: 12px;
                fill: #00141F;
                font-weight: normal;
                }
                rect, circle, polygon {fill: none; stroke: none;}
                rect.terminal         {fill: none; stroke: #be2f5b;}
                rect.nonterminal      {fill: rgba(255,255,255,0.1); stroke: none;}
                rect.text             {fill: none; stroke: none;}
                polygon.regexp        {fill: #C7ECFF; stroke: #038cbc;}
        </style>
    </defs>
    <polygon points="9 17 1 13 1 21"/>
    <polygon points="17 17 9 13 9 21"/>
    <rect x="31" y="3" width="70" height="32" rx="10"/>
    <rect x="29" y="1" width="70" height="32" class="terminal" rx="10"/>
    <text class="terminal" x="39" y="21">WHERE</text><a xmlns:xlink="http://www.w3.org/1999/xlink" xlink:href="#timestamp" xlink:title="timestamp">
    <rect x="121" y="3" width="88" height="32"/>
    <rect x="119" y="1" width="88" height="32" class="nonterminal"/>
    <text class="nonterminal" x="129" y="21">timestamp</text></a><rect x="229" y="3" width="32" height="32" rx="10"/>
    <rect x="227" y="1" width="32" height="32" class="terminal" rx="10"/>
    <text class="terminal" x="237" y="21">in</text>
    <rect x="281" y="3" width="26" height="32" rx="10"/>
    <rect x="279" y="1" width="26" height="32" class="terminal" rx="10"/>
    <text class="terminal" x="289" y="21">(</text><a xmlns:xlink="http://www.w3.org/1999/xlink" xlink:href="#upper_bound" xlink:title="upper_bound">
    <rect x="327" y="3" width="104" height="32"/>
    <rect x="325" y="1" width="104" height="32" class="nonterminal"/>
    <text class="nonterminal" x="335" y="21">lower_bound</text></a><rect x="451" y="3" width="24" height="32" rx="10"/>
    <rect x="449" y="1" width="24" height="32" class="terminal" rx="10"/>
    <text class="terminal" x="459" y="21">,</text><a xmlns:xlink="http://www.w3.org/1999/xlink" xlink:href="#lower_bound" xlink:title="lower_bound">
    <rect x="495" y="3" width="102" height="32"/>
    <rect x="493" y="1" width="102" height="32" class="nonterminal"/>
    <text class="nonterminal" x="503" y="21">upper_bound</text></a><rect x="617" y="3" width="26" height="32" rx="10"/>
    <rect x="615" y="1" width="26" height="32" class="terminal" rx="10"/>
    <text class="terminal" x="625" y="21">)</text>
    <path xmlns:svg="http://www.w3.org/2000/svg" class="line" d="m17 17 h2 m0 0 h10 m70 0 h10 m0 0 h10 m88 0 h10 m0 0 h10 m32 0 h10 m0 0 h10 m26 0 h10 m0 0 h10 m104 0 h10 m0 0 h10 m24 0 h10 m0 0 h10 m102 0 h10 m0 0 h10 m26 0 h10 m3 0 h-3"/>
    <polygon points="661 17 669 13 669 21"/>
    <polygon points="661 17 653 13 653 21"/></svg>
