<svg xmlns="http://www.w3.org/2000/svg" width="579" height="189">
    <defs>
        <style type="text/css">
            @namespace "http://www.w3.org/2000/svg";
                .line                 {fill: none; stroke: #636273;}
                .bold-line            {stroke: #636273; shape-rendering: crispEdges; stroke-width: 2; }
                .thin-line            {stroke: #636273; shape-rendering: crispEdges}
                .filled               {fill: #636273; stroke: none;}
                text.terminal         {font-family: -apple-system, BlinkMacSystemFont, "Segoe UI", Roboto, Ubuntu, Cantarell, Helvetica, sans-serif;
                font-size: 12px;
                fill: #ffffff;
                font-weight: bold;
                }
                text.nonterminal      {font-family: -apple-system, BlinkMacSystemFont, "Segoe UI", Roboto, Ubuntu, Cantarell, Helvetica, sans-serif;
                font-size: 12px;
                fill: #e289a4;
                font-weight: normal;
                }
                text.regexp           {font-family: -apple-system, BlinkMacSystemFont, "Segoe UI", Roboto, Ubuntu, Cantarell, Helvetica, sans-serif;
                font-size: 12px;
                fill: #00141F;
                font-weight: normal;
                }
                rect, circle, polygon {fill: none; stroke: none;}
                rect.terminal         {fill: none; stroke: #be2f5b;}
                rect.nonterminal      {fill: rgba(255,255,255,0.1); stroke: none;}
                rect.text             {fill: none; stroke: none;}
                polygon.regexp        {fill: #C7ECFF; stroke: #038cbc;}
        </style>
    </defs>
    <polygon points="9 33 1 29 1 37"/>
    <polygon points="17 33 9 29 9 37"/>
    <rect x="31" y="19" width="70" height="32" rx="10"/>
    <rect x="29" y="17" width="70" height="32" class="terminal" rx="10"/>
    <text class="terminal" x="39" y="37">WHERE</text>
    <rect x="181" y="51" width="26" height="32" rx="10"/>
    <rect x="179" y="49" width="26" height="32" class="terminal" rx="10"/>
    <text class="terminal" x="189" y="69">(</text>
    <rect x="267" y="51" width="48" height="32" rx="10"/>
    <rect x="265" y="49" width="48" height="32" class="terminal" rx="10"/>
    <text class="terminal" x="275" y="69">AND</text>
    <rect x="267" y="95" width="40" height="32" rx="10"/>
    <rect x="265" y="93" width="40" height="32" class="terminal" rx="10"/>
    <text class="terminal" x="275" y="113">OR</text>
    <rect x="267" y="139" width="48" height="32" rx="10"/>
    <rect x="265" y="137" width="48" height="32" class="terminal" rx="10"/>
    <text class="terminal" x="275" y="157">NOT</text><a xmlns:xlink="http://www.w3.org/1999/xlink" xlink:href="#boolean" xlink:title="boolean">
    <rect x="355" y="19" width="70" height="32"/>
    <rect x="353" y="17" width="70" height="32" class="nonterminal"/>
    <text class="nonterminal" x="363" y="37">boolean</text></a><rect x="465" y="51" width="26" height="32" rx="10"/>
    <rect x="463" y="49" width="26" height="32" class="terminal" rx="10"/>
    <text class="terminal" x="473" y="69">)</text>
    <path xmlns:svg="http://www.w3.org/2000/svg" class="line" d="m17 33 h2 m0 0 h10 m70 0 h10 m60 0 h10 m0 0 h36 m-66 0 h20 m46 0 h20 m-86 0 q10 0 10 10 m66 0 q0 -10 10 -10 m-76 10 v12 m66 0 v-12 m-66 12 q0 10 10 10 m46 0 q10 0 10 -10 m-56 10 h10 m26 0 h10 m40 -32 h10 m0 0 h58 m-88 0 h20 m68 0 h20 m-108 0 q10 0 10 10 m88 0 q0 -10 10 -10 m-98 10 v12 m88 0 v-12 m-88 12 q0 10 10 10 m68 0 q10 0 10 -10 m-78 10 h10 m48 0 h10 m-78 -10 v20 m88 0 v-20 m-88 20 v24 m88 0 v-24 m-88 24 q0 10 10 10 m68 0 q10 0 10 -10 m-78 10 h10 m40 0 h10 m0 0 h8 m-78 -10 v20 m88 0 v-20 m-88 20 v24 m88 0 v-24 m-88 24 q0 10 10 10 m68 0 q10 0 10 -10 m-78 10 h10 m48 0 h10 m20 -120 h10 m70 0 h10 m20 0 h10 m0 0 h36 m-66 0 h20 m46 0 h20 m-86 0 q10 0 10 10 m66 0 q0 -10 10 -10 m-76 10 v12 m66 0 v-12 m-66 12 q0 10 10 10 m46 0 q10 0 10 -10 m-56 10 h10 m26 0 h10 m-370 -32 l20 0 m-1 0 q-9 0 -9 -10 l0 -12 q0 -10 10 -10 m370 32 l20 0 m-20 0 q10 0 10 -10 l0 -12 q0 -10 -10 -10 m-370 0 h10 m0 0 h360 m-410 32 h20 m410 0 h20 m-450 0 q10 0 10 10 m430 0 q0 -10 10 -10 m-440 10 v134 m430 0 v-134 m-430 134 q0 10 10 10 m410 0 q10 0 10 -10 m-420 10 h10 m0 0 h400 m23 -154 h-3"/>
    <polygon points="569 33 577 29 577 37"/>
    <polygon points="569 33 561 29 561 37"/></svg>
