<svg xmlns="http://www.w3.org/2000/svg" width="452" height="80">
    <defs>
        <style type="text/css">
            @namespace "http://www.w3.org/2000/svg";
                .line                 {fill: none; stroke: #636273;}
                .bold-line            {stroke: #636273; shape-rendering: crispEdges; stroke-width: 2; }
                .thin-line            {stroke: #636273; shape-rendering: crispEdges}
                .filled               {fill: #636273; stroke: none;}
                text.terminal         {font-family: -apple-system, BlinkMacSystemFont, "Segoe UI", Roboto, Ubuntu, Cantarell, Helvetica, sans-serif;
                font-size: 12px;
                fill: #ffffff;
                font-weight: bold;
                }
                text.nonterminal      {font-family: -apple-system, BlinkMacSystemFont, "Segoe UI", Roboto, Ubuntu, Cantarell, Helvetica, sans-serif;
                font-size: 12px;
                fill: #e289a4;
                font-weight: normal;
                }
                text.regexp           {font-family: -apple-system, BlinkMacSystemFont, "Segoe UI", Roboto, Ubuntu, Cantarell, Helvetica, sans-serif;
                font-size: 12px;
                fill: #00141F;
                font-weight: normal;
                }
                rect, circle, polygon {fill: none; stroke: none;}
                rect.terminal         {fill: none; stroke: #be2f5b;}
                rect.nonterminal      {fill: rgba(255,255,255,0.1); stroke: none;}
                rect.text             {fill: none; stroke: none;}
                polygon.regexp        {fill: #C7ECFF; stroke: #038cbc;}
        </style>
    </defs>
    <polygon points="9 17 1 13 1 21"/>
    <polygon points="17 17 9 13 9 21"/>
    <a xmlns:xlink="http://www.w3.org/1999/xlink" xlink:href="#select_statement" xlink:title="select_statement">
        <rect x="51" y="3" width="130" height="32"/>
        <rect x="49" y="1" width="130" height="32" class="nonterminal"/>
        <text class="nonterminal" x="59" y="21">select_statement</text>
    </a>
    <rect x="51" y="47" width="26" height="32" rx="10"/>
    <rect x="49" y="45" width="26" height="32" class="terminal" rx="10"/>
    <text class="terminal" x="59" y="65">(</text>
    <a xmlns:xlink="http://www.w3.org/1999/xlink" xlink:href="#query" xlink:title="query">
        <rect x="97" y="47" width="56" height="32"/>
        <rect x="95" y="45" width="56" height="32" class="nonterminal"/>
        <text class="nonterminal" x="105" y="65">query</text>
    </a>
    <rect x="173" y="47" width="26" height="32" rx="10"/>
    <rect x="171" y="45" width="26" height="32" class="terminal" rx="10"/>
    <text class="terminal" x="181" y="65">)</text>
    <a xmlns:xlink="http://www.w3.org/1999/xlink" xlink:href="#where" xlink:title="where">
        <rect x="239" y="3" width="60" height="32"/>
        <rect x="237" y="1" width="60" height="32" class="nonterminal"/>
        <text class="nonterminal" x="247" y="21">where</text>
    </a>
    <a xmlns:xlink="http://www.w3.org/1999/xlink" xlink:href="#boolean_expr" xlink:title="boolean_expr">
        <rect x="319" y="3" width="106" height="32"/>
        <rect x="317" y="1" width="106" height="32" class="nonterminal"/>
        <text class="nonterminal" x="327" y="21">boolean_expr</text>
    </a>
    <svg:path xmlns:svg="http://www.w3.org/2000/svg" class="line" d="m17 17 h2 m20 0 h10 m130 0 h10 m0 0 h18 m-188 0 h20 m168 0 h20 m-208 0 q10 0 10 10 m188 0 q0 -10 10 -10 m-198 10 v24 m188 0 v-24 m-188 24 q0 10 10 10 m168 0 q10 0 10 -10 m-178 10 h10 m26 0 h10 m0 0 h10 m56 0 h10 m0 0 h10 m26 0 h10 m20 -44 h10 m60 0 h10 m0 0 h10 m106 0 h10 m3 0 h-3"/>
    <polygon points="443 17 451 13 451 21"/>
    <polygon points="443 17 435 13 435 21"/>
</svg>
