<?xml version="1.0" encoding="UTF-8" standalone="no"?> <!-- Created with Vectornator for iOS (http://vectornator.io/) --><!DOCTYPE svg PUBLIC "-//W3C//DTD SVG 1.1//EN" "http://www.w3.org/Graphics/SVG/1.1/DTD/svg11.dtd">
<svg height="100%" style="fill-rule:evenodd;clip-rule:evenodd;stroke-linecap:round;stroke-linejoin:round;" xmlns:xlink="http://www.w3.org/1999/xlink" xmlns="http://www.w3.org/2000/svg" xml:space="preserve" width="100%" xmlns:vectornator="http://vectornator.io" version="1.1" viewBox="0 0 212.625 170.1">
<metadata>
<vectornator:setting key="DisplayWhiteBackground" value="0"/>
<vectornator:setting key="RulersVisible" value="1"/>
<vectornator:setting key="GridSpacing" value="36"/>
<vectornator:setting key="Units" value="Millimeters"/>
<vectornator:setting key="DynamicGuides" value="1"/>
<vectornator:setting key="SnapToPoints" value="0"/>
<vectornator:setting key="CMYKEnabledKey" value="0"/>
<vectornator:setting key="SnapToGrid" value="0"/>
<vectornator:setting key="SnapToGuides" value="1"/>
<vectornator:setting key="SnapToEdges" value="0"/>
</metadata>
<defs/>
<g id="layer1 copy" vectornator:layerName="layer1 copy">
<path d="M55.8428+6.57583L93.5609+6.57583C94.0727+6.57583+94.4877+6.68866+94.4877+6.82785L94.4877+28.2069C94.4877+28.3461+94.0727+28.4589+93.5609+28.4589L55.8428+28.4589C55.331+28.4589+54.9161+28.3461+54.9161+28.2069L54.9161+6.82785C54.9161+6.68867+55.331+6.57583+55.8428+6.57583Z" opacity="1" fill="#5f5e67"/>
<text x="0" font-family="sans-serif" y="0" text-anchor="middle" vectornator:text="table&#x20;&#xA;directory" fill="#ffffff" font-size="5" vectornator:width="51.1341" opacity="1" transform="matrix(1 0 0 1 49.1348 11.86)">
<tspan x="26.2616" y="5" textLength="12.2314">
table 
</tspan>
<tspan x="25.567" y="11" textLength="19.1724">
directory</tspan>
</text>
<path d="M55.5089+43.1304L79.6352+43.1304C79.9626+43.1304+80.228+43.4689+80.228+43.8865L80.228+108.025C80.228+108.443+79.9626+108.781+79.6352+108.781L55.5089+108.781C55.1815+108.781+54.9161+108.443+54.9161+108.025L54.9161+43.8865C54.9161+43.4689+55.1815+43.1304+55.5089+43.1304Z" opacity="1" fill="#464353"/>
<path d="M97.0789+6.57583L134.797+6.57583C135.309+6.57583+135.724+6.62702+135.724+6.69017L135.724+16.3892C135.724+16.4524+135.309+16.5036+134.797+16.5036L97.0789+16.5036C96.5671+16.5036+96.1522+16.4524+96.1522+16.3892L96.1522+6.69017C96.1522+6.62702+96.5671+6.57583+97.0789+6.57583Z" opacity="1" fill="#5f5e67"/>
<path d="M97.0789+18.5312L134.797+18.5312C135.309+18.5312+135.724+18.5824+135.724+18.6455L135.724+28.3446C135.724+28.4077+135.309+28.4589+134.797+28.4589L97.0789+28.4589C96.5671+28.4589+96.1522+28.4077+96.1522+28.3446L96.1522+18.6455C96.1522+18.5824+96.5671+18.5312+97.0789+18.5312Z" opacity="1" fill="#5f5e67"/>
<path d="M56.8085+31.1378L133.831+31.1378C134.876+31.1378+135.724+31.189+135.724+31.2521L135.724+40.9512C135.724+41.0143+134.876+41.0655+133.831+41.0655L56.8085+41.0655C55.7634+41.0655+54.9161+41.0143+54.9161+40.9512L54.9161+31.2521C54.9161+31.189+55.7634+31.1378+56.8085+31.1378Z" opacity="1" fill="#5f5e67"/>
<path d="M83.2567+43.1304L107.383+43.1304C107.71+43.1304+107.976+43.4689+107.976+43.8865L107.976+108.025C107.976+108.443+107.71+108.781+107.383+108.781L83.2567+108.781C82.9294+108.781+82.664+108.443+82.664+108.025L82.664+43.8865C82.664+43.4689+82.9294+43.1304+83.2567+43.1304Z" opacity="1" fill="#464353"/>
<path d="M111.005+43.1304L135.131+43.1304C135.458+43.1304+135.724+43.4689+135.724+43.8865L135.724+108.025C135.724+108.443+135.458+108.781+135.131+108.781L111.005+108.781C110.677+108.781+110.412+108.443+110.412+108.025L110.412+43.8865C110.412+43.4689+110.677+43.1304+111.005+43.1304Z" opacity="1" fill="#464353"/>
<text x="0" font-family="sans-serif" y="0" text-anchor="middle" vectornator:text="tx&#x20;file" fill="#ffffff" font-size="5" vectornator:width="51.1341" opacity="1" transform="matrix(1 0 0 1 90.3709 20.1595)">
<tspan x="25.567" y="5" textLength="11.6699">
tx file</tspan>
</text>
<text x="0" font-family="sans-serif" y="0" text-anchor="middle" vectornator:text="metadata" fill="#ffffff" font-size="5" vectornator:width="51.1341" opacity="1" transform="matrix(1 0 0 1 90.3709 9.21792)">
<tspan x="25.567" y="5" textLength="20.8472">
metadata</tspan>
</text>
<text x="0" font-family="sans-serif" y="0" text-anchor="middle" vectornator:text="partition&#x20;directory" fill="#ffffff" font-size="5" vectornator:width="51.1341" opacity="1" transform="matrix(1 0 0 1 70.5851 32.7661)">
<tspan x="25.567" y="5" textLength="38.3496">
partition directory</tspan>
</text>
<text x="0" font-family="sans-serif" y="0" text-anchor="middle" vectornator:text="column&#xA;file" fill="#ffffff" font-size="5" vectornator:width="20.4028" opacity="1" transform="matrix(1 0 0 1 57.3707 44.4666)">
<tspan x="10.2014" y="5" textLength="16.1182">
column
</tspan>
<tspan x="10.2014" y="11" textLength="6.3916">
file</tspan>
</text>
<text x="0" font-family="sans-serif" y="0" text-anchor="middle" vectornator:text="column&#xA;file" fill="#ffffff" font-size="5" vectornator:width="20.4028" opacity="1" transform="matrix(1 0 0 1 85.9508 44.4666)">
<tspan x="10.2014" y="5" textLength="16.1182">
column
</tspan>
<tspan x="10.2014" y="11" textLength="6.3916">
file</tspan>
</text>
<text x="0" font-family="sans-serif" y="0" text-anchor="middle" vectornator:text="column&#xA;file" fill="#ffffff" font-size="5" vectornator:width="20.4028" opacity="1" transform="matrix(1 0 0 1 112.866 44.4666)">
<tspan x="10.2014" y="5" textLength="16.1182">
column
</tspan>
<tspan x="10.2014" y="11" textLength="6.3916">
file</tspan>
</text>
<path d="M56.4514+57.4569L78.2381+57.4569C78.5337+57.4569+78.7734+57.6051+78.7734+57.788L78.7734+85.8692C78.7734+86.052+78.5337+86.2002+78.2381+86.2002L56.4514+86.2002C56.1557+86.2002+55.9161+86.052+55.9161+85.8692L55.9161+57.788C55.9161+57.6051+56.1557+57.4569+56.4514+57.4569Z" opacity="1" fill="#5f5e67"/>
<path d="M84.4266+57.4569L106.213+57.4569C106.509+57.4569+106.749+57.6051+106.749+57.788L106.749+85.8692C106.749+86.052+106.509+86.2002+106.213+86.2002L84.4266+86.2002C84.1309+86.2002+83.8913+86.052+83.8913+85.8692L83.8913+57.788C83.8913+57.6051+84.1309+57.4569+84.4266+57.4569Z" opacity="1" fill="#5f5e67"/>
<path d="M112.174+57.4569L133.961+57.4569C134.257+57.4569+134.496+57.6051+134.496+57.788L134.496+85.8692C134.496+86.052+134.257+86.2002+133.961+86.2002L112.174+86.2002C111.879+86.2002+111.639+86.052+111.639+85.8692L111.639+57.788C111.639+57.6051+111.879+57.4569+112.174+57.4569Z" opacity="1" fill="#5f5e67"/>
<path d="M138.758+57.4569L189.051+57.4569C189.734+57.4569+190.287+57.6051+190.287+57.788L190.287+85.8692C190.287+86.052+189.734+86.2002+189.051+86.2002L138.758+86.2002C138.075+86.2002+137.522+86.052+137.522+85.8692L137.522+57.788C137.522+57.6051+138.075+57.4569+138.758+57.4569Z" opacity="1" fill="#5f5e67"/>
<text x="0" font-family="sans-serif" y="0" text-anchor="middle" vectornator:text="Committed&#x20;data,&#x20;available&#x20;to&#x20;read" fill="#ffffff" font-size="5" vectornator:width="50.3003" opacity="1" transform="matrix(1 0 0 1 138.754 67.9564)">
<tspan x="25.8448" y="5" textLength="38.0713">
Committed data, </tspan>
<tspan x="25.1502" y="11" textLength="36.6919">
available to read</tspan>
</text>
<path d="M56.4514+86.937L78.2381+86.937C78.5337+86.937+78.7734+87.0421+78.7734+87.1718L78.7734+107.092C78.7734+107.222+78.5337+107.327+78.2381+107.327L56.4514+107.327C56.1557+107.327+55.9161+107.222+55.9161+107.092L55.9161+87.1718C55.9161+87.0421+56.1557+86.937+56.4514+86.937Z" opacity="1" fill="#d14671"/>
<path d="M84.4266+86.937L106.213+86.937C106.509+86.937+106.749+87.0421+106.749+87.1718L106.749+107.092C106.749+107.222+106.509+107.327+106.213+107.327L84.4266+107.327C84.1309+107.327+83.8913+107.222+83.8913+107.092L83.8913+87.1718C83.8913+87.0421+84.1309+86.937+84.4266+86.937Z" opacity="1" fill="#d14671"/>
<path d="M112.174+86.937L133.961+86.937C134.257+86.937+134.496+87.0421+134.496+87.1718L134.496+107.092C134.496+107.222+134.257+107.327+133.961+107.327L112.174+107.327C111.879+107.327+111.639+107.222+111.639+107.092L111.639+87.1718C111.639+87.0421+111.879+86.937+112.174+86.937Z" opacity="1" fill="#d14671"/>
<path d="M129.621+73.2283L129.939+73.0892L132.513+71.9631L132.74+71.8644C132.772+71.8509+132.808+71.8498+132.841+71.8614C132.874+71.8729+132.9+71.8962+132.913+71.9256C132.919+71.9393+132.923+71.9538+132.923+71.9685L132.929+72.6381C132.93+72.7018+132.987+72.7537+133.057+72.7543L139.367+72.7723C139.437+72.7725+139.495+72.8241+139.496+72.8878L139.505+73.8331C139.506+73.8971+139.449+73.9489+139.379+73.9487L133.069+73.9307C132.999+73.9309+132.943+73.982+132.943+74.0454L132.95+74.7298C132.95+74.7445+132.947+74.7591+132.941+74.7727C132.928+74.8021+132.903+74.8252+132.87+74.8365C132.837+74.8478+132.801+74.8464+132.769+74.8326L132.541+74.7311L129.944+73.5784L129.622+73.4359C129.579+73.4161+129.551+73.3758+129.55+73.3318C129.55+73.2877+129.577+73.2477+129.621+73.2283Z" opacity="1" fill="#ffffff"/>
<path d="M138.758+86.937L189.051+86.937C189.734+86.937+190.287+87.048+190.287+87.185L190.287+108.222C190.287+108.359+189.734+108.47+189.051+108.47L138.758+108.47C138.075+108.47+137.522+108.359+137.522+108.222L137.522+87.185C137.522+87.048+138.075+86.937+138.758+86.937Z" opacity="1" fill="#d14671"/>
<text x="0" font-family="sans-serif" y="0" text-anchor="middle" vectornator:text="Sliding&#x20;memory&#x20;mapped&#x20;page&#x20;in&#x20;write&#x20;only&#x20;mode" fill="#ffffff" font-size="5" vectornator:width="46.1271" opacity="1" transform="matrix(1 0 0 1 140.841 88.9256)">
<tspan x="23.7581" y="5" textLength="35.8447">
Sliding memory </tspan>
<tspan x="23.7581" y="11" textLength="37.251">
mapped page in </tspan>
<tspan x="23.0635" y="17" textLength="35.0146">
write only mode</tspan>
</text>
<path d="M129.621+98.9729L129.939+98.8337L132.513+97.7076L132.74+97.6089C132.772+97.5954+132.808+97.5943+132.841+97.6059C132.874+97.6175+132.9+97.6407+132.913+97.6702C132.919+97.6838+132.923+97.6984+132.923+97.7131L132.929+98.3826C132.93+98.4463+132.987+98.4982+133.057+98.4989L139.367+98.5169C139.437+98.5171+139.495+98.5686+139.496+98.6323L139.505+99.5777C139.506+99.6417+139.449+99.6934+139.379+99.6932L133.069+99.6752C132.999+99.6755+132.943+99.7266+132.943+99.7899L132.95+100.474C132.95+100.489+132.947+100.504+132.941+100.517C132.928+100.547+132.903+100.57+132.87+100.581C132.837+100.592+132.801+100.591+132.769+100.577L132.541+100.476L129.944+99.323L129.622+99.1805C129.579+99.1607+129.551+99.1203+129.55+99.0763C129.55+99.0323+129.577+98.9922+129.621+98.9729Z" opacity="1" fill="#ffffff"/>
<path d="M144.272+14.8412L199.01+14.8412C199.753+14.8412+200.355+14.9456+200.355+15.0745L200.355+34.8683C200.355+34.9972+199.753+35.1017+199.01+35.1017L144.272+35.1017C143.53+35.1017+142.927+34.9972+142.928+34.8683L142.928+15.0745C142.928+14.9456+143.53+14.8412+144.272+14.8412Z" opacity="1" fill="#d94774"/>
<text x="0" font-family="sans-serif" y="0" text-anchor="middle" vectornator:text="commit&#x20;automatically&#x20;updates&#x20;read&#x20;record&#x20;count" fill="#ffffff" font-size="5" vectornator:width="51.6277" opacity="1" transform="matrix(1 0 0 1 146.274 16.5312)">
<tspan x="26.5084" y="5" textLength="48.0688">
commit automatically </tspan>
<tspan x="26.5084" y="11" textLength="46.1401">
updates read record </tspan>
<tspan x="25.8138" y="17" textLength="12.2314">
count</tspan>
</text>
<path d="M135.794+23.9893L136.112+23.8501L138.686+22.724L138.914+22.6254C138.945+22.6118+138.981+22.6108+139.014+22.6223C139.047+22.6339+139.073+22.6572+139.087+22.6866C139.093+22.7003+139.096+22.7148+139.096+22.7295L139.103+23.3991C139.103+23.4627+139.16+23.5147+139.23+23.5153L145.54+23.5333C145.61+23.5335+145.668+23.585+145.669+23.6487L145.678+24.5941C145.679+24.6581+145.622+24.7098+145.552+24.7096L139.242+24.6917C139.172+24.6919+139.116+24.743+139.117+24.8064L139.123+25.4908C139.124+25.5055+139.121+25.5201+139.115+25.5337C139.102+25.5631+139.076+25.5861+139.043+25.5975C139.011+25.6088+138.974+25.6074+138.943+25.5936L138.714+25.4921L136.117+24.3394L135.795+24.1969C135.752+24.1771+135.724+24.1368+135.724+24.0927C135.723+24.0487+135.751+24.0086+135.794+23.9893Z" opacity="1" fill="#ffffff"/>
<path d="M55.846+108.902L55.5274+109.041L52.9534+110.167L52.7263+110.266C52.6948+110.279+52.6585+110.28+52.6258+110.269C52.5931+110.257+52.5669+110.234+52.5533+110.205C52.5471+110.191+52.5439+110.176+52.5438+110.162L52.5371+109.492C52.5365+109.428+52.4795+109.377+52.4095+109.376L46.0995+109.358C46.0295+109.358+45.972+109.306+45.9709+109.242L45.9616+108.297C45.9609+108.233+46.0175+108.181+46.0879+108.182L52.3978+108.2C52.4675+108.199+52.5234+108.148+52.5232+108.085L52.5165+107.4C52.5163+107.386+52.5192+107.371+52.5251+107.358C52.5382+107.328+52.564+107.305+52.5966+107.294C52.6292+107.282+52.6656+107.284+52.6973+107.298L52.9261+107.399L55.5226+108.552L55.8445+108.694C55.888+108.714+55.9158+108.754+55.9161+108.798C55.9164+108.842+55.8893+108.883+55.846+108.902Z" opacity="1" fill="#d14671"/>
<text x="0" font-family="sans-serif" y="0" text-anchor="middle" vectornator:text="APPEND&#x20;position" fill="#ffffff" font-size="5" vectornator:width="46.0311" opacity="1" transform="matrix(1 0 0 1 1.88496 105.698)">
<tspan x="23.0156" y="5" textLength="39.1846">
APPEND position</tspan>
</text>
<g opacity="1">
<path d="M96.1492+130.899C90.6552+130.899+86.0512+129.285+84.7942+127.109C84.5732+127.492+84.4442+127.89+84.4442+128.303L84.4442+131.864C84.4442+134.615+89.6862+136.847+96.1492+136.847C102.616+136.847+107.86+134.615+107.86+131.864L107.86+128.303C107.86+127.89+107.729+127.492+107.506+127.109C106.249+129.284+101.649+130.899+96.1492+130.899Z" opacity="1" fill="#d94774"/>
<path d="M96.1492+138.255C90.6552+138.255+86.0512+136.639+84.7942+134.467C84.5732+134.848+84.4442+135.246+84.4442+135.658L84.4442+139.222C84.4442+141.974+89.6862+144.205+96.1492+144.205C102.616+144.205+107.86+141.975+107.86+139.222L107.86+135.658C107.86+135.246+107.729+134.848+107.506+134.468C106.249+136.639+101.649+138.255+96.1492+138.255Z" opacity="1" fill="#d94774"/>
<path d="M107.54+119.987C107.31+122.003+102.308+123.616+96.1492+123.616C89.9932+123.616+84.9912+122.003+84.7622+119.988C84.5612+120.354+84.4442+120.736+84.4442+121.129L84.4442+124.69C84.4442+127.442+89.6862+129.673+96.1492+129.673C102.616+129.673+107.86+127.443+107.86+124.69L107.86+121.129C107.86+120.736+107.741+120.354+107.54+119.987Z" opacity="1" fill="#d94774"/>
<path d="M96.1492+122.486C102.452+122.486+107.559+120.799+107.559+118.715C107.559+116.633+102.452+114.945+96.1492+114.945C89.8502+114.946+84.7412+116.634+84.7412+118.716C84.7412+120.799+89.8502+122.486+96.1492+122.486Z" opacity="1" fill="#d94774"/>
</g>
<path d="M95.3199+114.945L96.1522+114.945L96.1522+114.945L95.3199+114.945Z" opacity="1" fill="#d94774"/>
<path stroke="#61cfee" stroke-dasharray="2" stroke-width="1" d="M96.2676+112.842C96.2676+148.286+96.1522+148.458+96.1522+148.458" fill="#61cfee" stroke-linecap="round" fill-opacity="0" opacity="1" stroke-linejoin="round"/>
<path d="M121.202+114.842L153.842+114.842C154.285+114.842+154.644+114.876+154.644+114.917L154.644+121.238C154.644+121.279+154.285+121.313+153.842+121.313L121.202+121.313C120.759+121.313+120.4+121.279+120.4+121.238L120.4+114.917C120.4+114.876+120.759+114.842+121.202+114.842Z" opacity="1" fill="#61cfee"/>
<text x="0" font-family="sans-serif" y="0" text-anchor="middle" vectornator:text="Reader&#x20;1" fill="#ffffff" font-size="5" vectornator:width="28.3293" opacity="1" transform="matrix(1 0 0 1 123.357 115.288)">
<tspan x="14.1647" y="5" textLength="20.5688">
Reader 1</tspan>
</text>
<path d="M121.202+126.301L153.842+126.301C154.285+126.301+154.644+126.334+154.644+126.375L154.644+132.697C154.644+132.738+154.285+132.771+153.842+132.771L121.202+132.771C120.759+132.771+120.4+132.738+120.4+132.697L120.4+126.375C120.4+126.334+120.759+126.301+121.202+126.301Z" opacity="1" fill="#61cfee"/>
<text x="0" font-family="sans-serif" y="0" text-anchor="middle" vectornator:text="Reader&#x20;2" fill="#ffffff" font-size="5" vectornator:width="28.3293" opacity="1" transform="matrix(1 0 0 1 123.357 126.733)">
<tspan x="14.1647" y="5" textLength="20.5688">
Reader 2</tspan>
</text>
<path d="M121.202+136.999L153.842+136.999C154.285+136.999+154.644+137.036+154.644+137.082L154.644+144.122C154.644+144.168+154.285+144.205+153.842+144.205L121.202+144.205C120.759+144.205+120.4+144.168+120.4+144.122L120.4+137.082C120.4+137.036+120.759+136.999+121.202+136.999Z" opacity="1" fill="#61cfee"/>
<text x="0" font-family="sans-serif" y="0" text-anchor="middle" vectornator:text="Reader&#x20;3" fill="#ffffff" font-size="5" vectornator:width="28.3293" opacity="1" transform="matrix(1 0 0 1 123.357 138.431)">
<tspan x="14.1647" y="5" textLength="20.5688">
Reader 3</tspan>
</text>
<path d="M121.649+118.198L121.331+118.337L118.757+119.463L118.529+119.562C118.498+119.576+118.462+119.577+118.429+119.565C118.396+119.553+118.37+119.53+118.356+119.501C118.35+119.487+118.347+119.473+118.347+119.458L118.34+118.788C118.34+118.725+118.283+118.673+118.213+118.672L111.903+118.654C111.833+118.654+111.775+118.602+111.774+118.539L111.765+117.593C111.764+117.529+111.821+117.478+111.891+117.478L118.201+117.496C118.271+117.495+118.327+117.444+118.326+117.381L118.32+116.697C118.319+116.682+118.322+116.667+118.328+116.654C118.341+116.624+118.367+116.601+118.4+116.59C118.432+116.579+118.469+116.58+118.5+116.594L118.729+116.695L121.326+117.848L121.648+117.99C121.691+118.01+121.719+118.051+121.719+118.095C121.72+118.139+121.692+118.179+121.649+118.198Z" opacity="1" fill="#ffffff"/>
<path d="M121.649+129.657L121.331+129.796L118.757+130.922L118.529+131.02C118.498+131.034+118.462+131.035+118.429+131.024C118.396+131.012+118.37+130.989+118.356+130.959C118.35+130.946+118.347+130.931+118.347+130.916L118.34+130.247C118.34+130.183+118.283+130.131+118.213+130.131L111.903+130.113C111.833+130.112+111.775+130.061+111.774+129.997L111.765+129.052C111.764+128.988+111.821+128.936+111.891+128.936L118.201+128.954C118.271+128.954+118.327+128.903+118.326+128.839L118.32+128.155C118.319+128.14+118.322+128.126+118.328+128.112C118.341+128.083+118.367+128.06+118.4+128.048C118.432+128.037+118.469+128.038+118.5+128.052L118.729+128.154L121.326+129.306L121.648+129.449C121.691+129.469+121.719+129.509+121.719+129.553C121.72+129.597+121.692+129.637+121.649+129.657Z" opacity="1" fill="#ffffff"/>
<path d="M121.649+141.094L121.331+141.233L118.757+142.359L118.529+142.458C118.498+142.472+118.462+142.473+118.429+142.461C118.396+142.45+118.37+142.426+118.356+142.397C118.35+142.383+118.347+142.369+118.347+142.354L118.34+141.684C118.34+141.621+118.283+141.569+118.213+141.568L111.903+141.55C111.833+141.55+111.775+141.498+111.774+141.435L111.765+140.489C111.764+140.425+111.821+140.374+111.891+140.374L118.201+140.392C118.271+140.392+118.327+140.34+118.326+140.277L118.32+139.593C118.319+139.578+118.322+139.563+118.328+139.55C118.341+139.52+118.367+139.497+118.4+139.486C118.432+139.475+118.469+139.476+118.5+139.49L118.729+139.591L121.326+140.744L121.648+140.887C121.691+140.906+121.719+140.947+121.719+140.991C121.72+141.035+121.692+141.075+121.649+141.094Z" opacity="1" fill="#ffffff"/>
<path d="M86.7674+130.396L86.4487+130.536L83.8748+131.662L83.6477+131.76C83.6162+131.774+83.5798+131.775+83.5471+131.763C83.5144+131.752+83.4882+131.728+83.4746+131.699C83.4685+131.685+83.4652+131.671+83.4651+131.656L83.4585+130.987C83.4579+130.923+83.4009+130.871+83.3308+130.87L77.0208+130.852C76.9508+130.852+76.8934+130.801+76.8923+130.737L76.8829+129.792C76.8823+129.728+76.9388+129.676+77.0092+129.676L83.3192+129.694C83.3889+129.694+83.4447+129.643+83.4446+129.579L83.4378+128.895C83.4376+128.88+83.4406+128.866+83.4465+128.852C83.4595+128.823+83.4854+128.8+83.518+128.788C83.5505+128.777+83.5869+128.778+83.6187+128.792L83.8474+128.894L86.4439+130.046L86.7659+130.189C86.8094+130.209+86.8371+130.249+86.8374+130.293C86.8377+130.337+86.8106+130.377+86.7674+130.396Z" opacity="1" fill="#ffffff"/>
<path d="M40.4332+125.786L73.4358+125.786C73.8836+125.786+74.2467+125.836+74.2467+125.898L74.2467+135.402C74.2467+135.464+73.8836+135.514+73.4358+135.514L40.4332+135.514C39.9854+135.514+39.6223+135.464+39.6223+135.402L39.6223+125.898C39.6223+125.836+39.9854+125.786+40.4332+125.786Z" opacity="1" fill="#d94774"/>
<text x="0" font-family="sans-serif" y="0" text-anchor="middle" vectornator:text="Writer" fill="#ffffff" font-size="5" vectornator:width="28.3293" opacity="1" transform="matrix(1 0 0 1 43.206 128.02)">
<tspan x="14.1647" y="5" textLength="13.2422">
Writer</tspan>
</text>
<text x="0" font-family="sans-serif" y="0" text-anchor="middle" vectornator:text="Single&#xA;Writer" fill="#ffffff" font-size="5" vectornator:width="29.1005" opacity="1" transform="matrix(1 0 0 1 63.8939 148.66)">
<tspan x="14.5503" y="5" textLength="13.8989">
Single
</tspan>
<tspan x="14.5503" y="11" textLength="13.3301">
Writer</tspan>
</text>
<text x="0" font-family="sans-serif" y="0" text-anchor="middle" vectornator:text="Multiple&#xA;Readers" fill="#ffffff" font-size="5" vectornator:width="28.4706" opacity="1" transform="matrix(1 0 0 1 96.1522 148.66)">
<tspan x="14.2353" y="5" textLength="17.229">
Multiple
</tspan>
<tspan x="14.2353" y="11" textLength="18.8989">
Readers</tspan>
</text>
</g>
</svg>
