<svg
  fill="none"
  height="49"
  viewBox="0 0 41 49"
  xmlns="http://www.w3.org/2000/svg"
>
  <path
    d="M40.5025 36.0026C39.4183 38.4037 38.9007 39.4754 37.5045 41.5968C35.5594 44.5593 32.815 48.2491 29.4142 48.2804C26.3933 48.3086 25.6169 46.3145 21.516 46.3385C17.415 46.3625 16.5604 48.3159 13.5395 48.2878C10.1387 48.2575 7.54037 44.9256 5.5932 41.961C0.150298 33.6756 -0.41841 23.9533 2.93853 18.7848C5.32398 15.1096 9.08893 12.9621 12.6274 12.9621C16.2306 12.9621 18.4961 14.9375 21.4763 14.9375C24.3668 14.9375 26.1272 12.959 30.2939 12.959C33.4432 12.959 36.7803 14.6735 39.1584 17.636C31.3666 21.9049 32.6334 33.0276 40.5025 36.0026Z"
    fill="#F35183"
  />
  <path
    d="M27.5724 7.77503C29.0865 5.83203 30.2343 3.09075 29.8169 0.286865C27.3438 0.455912 24.4533 2.02951 22.765 4.07999C21.2321 5.94055 19.9663 8.70061 20.4588 11.3835C23.1563 11.468 25.9497 9.85577 27.5724 7.77503Z"
    fill="#F35183"
  />
</svg>