<svg xmlns="http://www.w3.org/2000/svg" fill="none" viewBox="0 0 506 474"><rect width="359" height="400" x=".152344" y=".0355225" fill="#3D3F4D" rx="16"/><rect width="81" height="33" x="37.1523" y="22.5438" fill="#fff" fill-opacity=".05" rx="7"/><path fill="#85F689" d="M75.0023 44.5438h1.8445v-3.7287h1.8792l1.9986 3.7287h2.0582l-2.2024-4.0369c1.1982-.4823 1.8296-1.5064 1.8296-2.8885 0-1.9439-1.2529-3.2564-3.5895-3.2564h-3.8182v10.1818zm1.8445-5.2599v-3.3807h1.6903c1.3771 0 1.9936.6314 1.9936 1.7152s-.6165 1.6655-1.9836 1.6655h-1.7003zm12.0486 2.0483c0 1.1633-.8302 1.74-1.6257 1.74-.865 0-1.4418-.6115-1.4418-1.5809v-4.5838h-1.7997v4.8622c0 1.8345 1.0441 2.8736 2.5455 2.8736 1.1435 0 1.9488-.6016 2.2969-1.4567h.0795v1.3572h1.745v-7.6363h-1.7997v4.4247zm5.4501-1.2628c0-1.1037.6662-1.7401 1.6158-1.7401.9297 0 1.4865.6115 1.4865 1.6307v4.5838h1.7997v-4.8622c.005-1.8295-1.039-2.8736-2.615-2.8736-1.1435 0-1.929.5469-2.277 1.397h-.0895v-1.2975h-1.7202v7.6363h1.7997v-4.4744zM55.6273 33.9938c-.1125-.075-.2625-.075-.375-.0375-.15.075-.225.1875-.225.3375v10.5c0 .15.075.2625.1875.3375.075.0375.1125.0375.1875.0375s.15-.0375.225-.075l7.5-5.25c.1125-.075.15-.1875.15-.3 0-.1125-.075-.225-.15-.3l-7.5-5.25z"/><path fill="#FF7CCA" d="M79.4323 92.2755c-1.0133 0-1.8933-.1533-2.64-.46-.7466-.32-1.3266-.78-1.74-1.38l1.36-1.2c.7334.9334 1.7934 1.4 3.18 1.4.7867 0 1.4-.14 1.84-.42.4534-.28.68-.68.68-1.2 0-.4-.1266-.6733-.38-.82-.24-.16-.5466-.2733-.92-.34l-1.5-.26c-.3866-.0666-.76-.16-1.12-.28-.3466-.12-.6533-.28-.92-.48-.2666-.2133-.4866-.48-.66-.8-.16-.32-.24-.7133-.24-1.18 0-.56.1134-1.0466.34-1.46.24-.4266.56-.78.96-1.06.4134-.2933.8934-.5066 1.44-.64.5467-.1466 1.14-.22 1.78-.22.92 0 1.7134.14 2.38.42.68.2667 1.2134.6334 1.6 1.1l-1.32 1.26c-.2-.28-.5266-.54-.98-.78-.4533-.24-1.0533-.36-1.8-.36-.7466 0-1.32.1334-1.72.4-.3866.2667-.58.64-.58 1.12 0 .4134.1267.6934.38.84.2667.1467.5867.2534.96.32l1.5.28c.3734.0667.7334.16 1.08.28.3467.1067.6534.26.92.46.28.1867.5.44.66.76.1734.3067.26.6934.26 1.16 0 .5467-.1133 1.04-.34 1.48-.2266.44-.5533.8134-.98 1.12-.4133.3067-.92.54-1.52.7-.5866.16-1.24.24-1.96.24zm12.2922 0c-1.4133 0-2.48-.3733-3.2-1.12-.7066-.7466-1.06-1.8466-1.06-3.3 0-.9466.14-1.8066.42-2.58.2934-.7866.6934-1.46 1.2-2.02.52-.56 1.1334-.9933 1.84-1.3.72-.32 1.5134-.48 2.38-.48.52 0 1 .06 1.44.18.44.12.82.3 1.14.54.3334.2267.5934.52.78.88.1867.3467.28.7467.28 1.2 0 .3867-.0866.78-.26 1.18-.16.4-.5.7667-1.02 1.1-.52.3334-1.26.6134-2.22.84-.96.2267-2.2266.3667-3.8.42-.0133.0934-.02.18-.02.26v.14c0 .32.0334.6267.1.92.08.28.2067.5267.38.74.1734.2134.4067.38.7.5.3067.12.6934.18 1.16.18.3334 0 .6334-.0333.9-.1.28-.08.54-.2.78-.36.2534-.16.5-.3666.74-.62.2534-.2666.52-.5933.8-.98l1.4.9c-.28.44-.58.84-.9 1.2-.32.3467-.68.6467-1.08.9-.3866.24-.82.4267-1.3.56-.4666.1467-.9933.22-1.58.22zm1.38-9.18c-.88 0-1.6.26-2.16.78s-.9266 1.3134-1.1 2.38l-.04.22c1.12-.04 2.0067-.1266 2.66-.26.6667-.1466 1.1734-.3133 1.52-.5.36-.2.5867-.4133.68-.64.1067-.2266.16-.4466.16-.66 0-.3866-.1333-.7-.4-.94-.2533-.2533-.6933-.38-1.32-.38zm10.1925 9.18c-.667 0-1.154-.1666-1.46-.5-.294-.3333-.44-.78-.44-1.34 0-.2666.04-.6133.12-1.04l2-10.42h-3.4l.3-1.74h5.58l-2.54 13.16.42.14 3.56-3.22 1.2 1.1-1.72 1.68c-.427.4134-.807.76-1.14 1.04-.334.28-.64.5067-.92.68-.28.16-.547.2734-.8.34-.254.08-.507.12-.76.12zm12.412 0c-1.413 0-2.48-.3733-3.2-1.12-.707-.7466-1.06-1.8466-1.06-3.3 0-.9466.14-1.8066.42-2.58.293-.7866.693-1.46 1.2-2.02.52-.56 1.133-.9933 1.84-1.3.72-.32 1.513-.48 2.38-.48.52 0 1 .06 1.44.18.44.12.82.3 1.14.54.333.2267.593.52.78.88.187.3467.28.7467.28 1.2 0 .3867-.087.78-.26 1.18-.16.4-.5.7667-1.02 1.1-.52.3334-1.26.6134-2.22.84-.96.2267-2.227.3667-3.8.42-.013.0934-.02.18-.02.26v.14c0 .32.033.6267.1.92.08.28.207.5267.38.74.173.2134.407.38.7.5.307.12.693.18 1.16.18.333 0 .633-.0333.9-.1.28-.08.54-.2.78-.36.253-.16.5-.3666.74-.62.253-.2666.52-.5933.8-.98l1.4.9c-.28.44-.58.84-.9 1.2-.32.3467-.68.6467-1.08.9-.387.24-.82.4267-1.3.56-.467.1467-.993.22-1.58.22zm1.38-9.18c-.88 0-1.6.26-2.16.78s-.927 1.3134-1.1 2.38l-.04.22c1.12-.04 2.007-.1266 2.66-.26.667-.1466 1.173-.3133 1.52-.5.36-.2.587-.4133.68-.64.107-.2266.16-.4466.16-.66 0-.3866-.133-.7-.4-.94-.253-.2533-.693-.38-1.32-.38zm10.452 9.18c-1.333 0-2.347-.3933-3.04-1.18-.693-.7866-1.04-1.8466-1.04-3.18 0-.9333.133-1.7933.4-2.58.267-.8.64-1.48 1.12-2.04.493-.5733 1.073-1.02 1.74-1.34.68-.32 1.427-.48 2.24-.48.56 0 1.053.0667 1.48.2.427.12.793.3 1.1.54.307.2267.553.4934.74.8.2.3067.347.64.44 1l-1.78.78c-.173-.56-.427-.9533-.76-1.18-.333-.24-.807-.36-1.42-.36-.733 0-1.353.24-1.86.72-.493.4667-.82 1.18-.98 2.14l-.2 1.2c-.027.1867-.047.3534-.06.5-.013.1467-.02.2934-.02.44 0 .7467.187 1.3067.56 1.68.387.3734.94.56 1.66.56.213 0 .427-.02.64-.06.227-.0533.46-.16.7-.32.253-.1733.533-.4133.84-.72.307-.32.653-.7466 1.04-1.28l1.42.88c-.333.5334-.673 1.0067-1.02 1.42-.347.4-.713.74-1.1 1.02-.387.28-.813.4867-1.28.62-.467.1467-.987.22-1.56.22zm11.672 0c-.64 0-1.12-.1733-1.44-.52-.32-.3466-.48-.82-.48-1.42 0-.12.014-.26.04-.42.027-.1733.054-.3533.08-.54l.98-5.92h-2.84l.28-1.74h1.92c.387 0 .674-.0733.86-.22.187-.16.314-.4333.38-.82l.44-2.6h2l-.6 3.64h4.16l-.28 1.74h-4.18l-1.14 6.84.4.2 3.92-2.78 1.06 1.28-1.82 1.36c-.453.3467-.853.64-1.2.88-.333.24-.646.44-.94.6-.293.1467-.566.2534-.82.32-.253.08-.513.12-.78.12z"/><path fill="#909194" d="M38.9123 92.0355v-1.86h3.92v-10.46h-.16l-3.24 3.46-1.38-1.24 3.56-3.86h3.46v12.1h3.38v1.86h-9.54z"/><path fill="#A0E7FA" d="M79.2523 129.276c-.64 0-1.12-.174-1.44-.52-.32-.347-.48-.82-.48-1.42 0-.12.0134-.26.04-.42.0267-.174.0534-.354.08-.54l.98-5.92h-2.84l.28-1.74h1.92c.3867 0 .6734-.074.86-.22.1867-.16.3134-.434.38-.82l.44-2.6h2l-.6 3.64h4.16l-.28 1.74h-4.18l-1.14 6.84.4.2 3.92-2.78 1.06 1.28-1.82 1.36c-.4533.346-.8533.64-1.2.88-.3333.24-.6466.44-.94.6-.2933.146-.5666.253-.82.32-.2533.08-.5133.12-.78.12zm13.6922-12.46c-.5066 0-.86-.094-1.06-.28-.2-.2-.3-.434-.3-.7 0-.08.0067-.174.02-.28.0134-.107.0334-.22.06-.34.0667-.36.2134-.64.44-.84.24-.214.6134-.32 1.12-.32.5067 0 .86.1 1.06.3.2.186.3.413.3.68 0 .08-.0066.173-.02.28-.0133.106-.0333.22-.06.34-.0666.36-.22.646-.46.86-.2266.2-.5933.3-1.1.3zm-1.16 12.46c-.64 0-1.12-.167-1.44-.5-.32-.334-.48-.767-.48-1.3 0-.174.0134-.347.04-.52.0267-.174.06-.38.1-.62l1.14-5.88h-3.48l.28-1.74h5.66l-1.68 8.66.4.16 3.46-3.18 1.22 1.1-1.56 1.56c-.4133.413-.7866.766-1.12 1.06-.3333.28-.64.513-.92.7-.28.173-.5533.3-.82.38-.2533.08-.52.12-.8.12zm6.3922-.24l1.72-10.32h1.8203l-.28 1.7h.1c.24-.56.533-1.02.88-1.38.36-.374.82-.56 1.38-.56.56 0 .973.18 1.24.54.28.36.393.846.34 1.46h.08c.253-.6.573-1.08.96-1.44.4-.374.906-.56 1.52-.56.586 0 1.026.166 1.32.5.306.333.46.82.46 1.46 0 .2-.014.446-.04.74-.027.28-.06.54-.1.78l-1.18 7.08h-1.82l1.14-6.82c.026-.187.053-.387.08-.6.026-.214.04-.387.04-.52 0-.654-.26-.98-.78-.98-.454 0-.834.246-1.14.74-.147.24-.28.506-.4.8-.12.28-.207.573-.26.88l-1.08 6.5h-1.82l1.16-6.92c.026-.187.046-.36.06-.52.026-.174.04-.334.04-.48 0-.667-.24-1-.72-1-.454 0-.847.246-1.18.74-.174.253-.307.52-.4.8-.094.266-.167.526-.22.78l-1.1003 6.6h-1.82zm17.5323.24c-1.413 0-2.48-.374-3.2-1.12-.707-.747-1.06-1.847-1.06-3.3 0-.947.14-1.807.42-2.58.293-.787.693-1.46 1.2-2.02.52-.56 1.133-.994 1.84-1.3.72-.32 1.513-.48 2.38-.48.52 0 1 .06 1.44.18.44.12.82.3 1.14.54.333.226.593.52.78.88.187.346.28.746.28 1.2 0 .386-.087.78-.26 1.18-.16.4-.5.766-1.02 1.1-.52.333-1.26.613-2.22.84-.96.226-2.227.366-3.8.42-.013.093-.02.18-.02.26v.14c0 .32.033.626.1.92.08.28.207.526.38.74.173.213.407.38.7.5.307.12.693.18 1.16.18.333 0 .633-.034.9-.1.28-.08.54-.2.78-.36.253-.16.5-.367.74-.62.253-.267.52-.594.8-.98l1.4.9c-.28.44-.58.84-.9 1.2-.32.346-.68.646-1.08.9-.387.24-.82.426-1.3.56-.467.146-.993.22-1.58.22zm1.38-9.18c-.88 0-1.6.26-2.16.78s-.927 1.313-1.1 2.38l-.04.22c1.12-.04 2.007-.127 2.66-.26.667-.147 1.173-.314 1.52-.5.36-.2.587-.414.68-.64.107-.227.16-.447.16-.66 0-.387-.133-.7-.4-.94-.253-.254-.693-.38-1.32-.38zm10.312 9.18c-1.013 0-1.893-.154-2.64-.46-.747-.32-1.327-.78-1.74-1.38l1.36-1.2c.733.933 1.793 1.4 3.18 1.4.787 0 1.4-.14 1.84-.42.453-.28.68-.68.68-1.2 0-.4-.127-.674-.38-.82-.24-.16-.547-.274-.92-.34l-1.5-.26c-.387-.067-.76-.16-1.12-.28-.347-.12-.653-.28-.92-.48-.267-.214-.487-.48-.66-.8-.16-.32-.24-.714-.24-1.18 0-.56.113-1.047.34-1.46.24-.427.56-.78.96-1.06.413-.294.893-.507 1.44-.64.547-.147 1.14-.22 1.78-.22.92 0 1.713.14 2.38.42.68.266 1.213.633 1.6 1.1l-1.32 1.26c-.2-.28-.527-.54-.98-.78-.453-.24-1.053-.36-1.8-.36-.747 0-1.32.133-1.72.4-.387.266-.58.64-.58 1.12 0 .413.127.693.38.84.267.146.587.253.96.32l1.5.28c.373.066.733.16 1.08.28.347.106.653.26.92.46.28.186.5.44.66.76.173.306.26.693.26 1.16 0 .546-.113 1.04-.34 1.48-.227.44-.553.813-.98 1.12-.413.306-.92.54-1.52.7-.587.16-1.24.24-1.96.24zm11.812 0c-.64 0-1.12-.174-1.44-.52-.32-.347-.48-.82-.48-1.42 0-.12.014-.26.04-.42.027-.174.054-.354.08-.54l.98-5.92h-2.84l.28-1.74h1.92c.387 0 .674-.074.86-.22.187-.16.314-.434.38-.82l.44-2.6h2l-.6 3.64h4.16l-.28 1.74h-4.18l-1.14 6.84.4.2 3.92-2.78 1.06 1.28-1.82 1.36c-.453.346-.853.64-1.2.88-.333.24-.646.44-.94.6-.293.146-.566.253-.82.32-.253.08-.513.12-.78.12zm14.232-.24l.4-2.44h-.08c-.386.8-.853 1.446-1.4 1.94-.546.493-1.266.74-2.16.74-1.066 0-1.86-.347-2.38-1.04-.506-.694-.76-1.68-.76-2.96 0-.827.094-1.647.28-2.46.2-.814.5-1.54.9-2.18.4-.64.9-1.16 1.5-1.56.614-.4 1.334-.6 2.16-.6.787 0 1.414.18 1.88.54.467.36.794.88.98 1.56h.1l.3-1.86h2.14l-1.72 10.32h-2.14zm-2.38-1.5c.787 0 1.494-.36 2.12-1.08.227-.254.44-.567.64-.94.2-.374.34-.8.42-1.28l.34-2.06c.107-.6-.026-1.074-.4-1.42-.36-.36-.9-.54-1.62-.54-.893 0-1.586.273-2.08.82-.48.533-.793 1.22-.94 2.06l-.24 1.42c-.026.12-.046.26-.06.42-.013.146-.02.293-.02.44 0 .653.147 1.18.44 1.58.294.386.76.58 1.4.58zm7.073 1.5l1.72-10.32h1.82l-.28 1.7h.1c.24-.56.533-1.02.88-1.38.36-.374.82-.56 1.38-.56.56 0 .973.18 1.24.54.28.36.393.846.34 1.46h.08c.253-.6.573-1.08.96-1.44.4-.374.906-.56 1.52-.56.586 0 1.026.166 1.32.5.306.333.46.82.46 1.46 0 .2-.014.446-.04.74-.027.28-.06.54-.1.78l-1.18 7.08h-1.82l1.14-6.82c.026-.187.053-.387.08-.6.026-.214.04-.387.04-.52 0-.654-.26-.98-.78-.98-.454 0-.834.246-1.14.74-.147.24-.28.506-.4.8-.12.28-.207.573-.26.88l-1.08 6.5h-1.82l1.16-6.92c.026-.187.046-.36.06-.52.026-.174.04-.334.04-.48 0-.667-.24-1-.72-1-.454 0-.847.246-1.18.74-.174.253-.307.52-.4.8-.094.266-.167.526-.22.78l-1.1 6.6h-1.82zm14.472-10.32h2.14l-.4 2.44h.08c.2-.4.413-.76.64-1.08.227-.334.48-.62.76-.86s.593-.42.94-.54c.36-.134.767-.2 1.22-.2 1.067 0 1.853.346 2.36 1.04.52.693.78 1.68.78 2.96 0 .826-.1 1.646-.3 2.46-.187.813-.48 1.54-.88 2.18-.4.64-.907 1.16-1.52 1.56-.6.4-1.313.6-2.14.6-.787 0-1.413-.18-1.88-.54-.467-.36-.793-.88-.98-1.56h-.1l-.96 5.86h-2.14l2.38-14.32zm3.02 8.82c.893 0 1.58-.267 2.06-.8.493-.547.813-1.24.96-2.08l.24-1.42c.027-.12.047-.254.06-.4.013-.16.02-.314.02-.46 0-.654-.147-1.174-.44-1.56-.293-.4-.76-.6-1.4-.6-.8 0-1.507.36-2.12 1.08-.227.253-.44.566-.64.94-.2.373-.34.8-.42 1.28l-.34 2.06c-.107.6.02 1.08.38 1.44.373.346.92.52 1.64.52z"/><path fill="#fff" d="M186.602 126.016h3.04l-3.38 5.92h-1.72l2.06-5.92z"/><path fill="#909194" d="M48.0523 129.036h-9.64v-2.14l4.56-3.98c.72-.64 1.2734-1.247 1.66-1.82.4-.574.6-1.18.6-1.82v-.22c0-.734-.2-1.294-.6-1.68-.4-.4-.98-.6-1.74-.6-.7733 0-1.3733.206-1.8.62-.4133.413-.7133.94-.9 1.58l-1.96-.74c.1334-.44.3267-.86.58-1.26.2534-.414.5734-.78.96-1.1.4-.32.8667-.574 1.4-.76.5467-.187 1.1734-.28 1.88-.28.72 0 1.36.106 1.92.32.5734.2 1.0534.48 1.44.84.3867.36.68.793.88 1.3.2.493.3 1.04.3 1.64 0 .56-.0866 1.08-.26 1.56-.16.466-.3933.92-.7 1.36-.2933.426-.6466.84-1.06 1.24-.4133.4-.8666.8-1.36 1.2l-3.38 2.84h7.22v1.9z"/><path fill="#A0E7FA" d="M74.1923 166.036l1.72-10.32h1.82l-.28 1.7h.1c.24-.56.5334-1.02.88-1.38.36-.374.82-.56 1.38-.56.56 0 .9734.18 1.24.54.28.36.3934.846.34 1.46h.08c.2534-.6.5734-1.08.96-1.44.4-.374.9067-.56 1.52-.56.5867 0 1.0267.166 1.32.5.3067.333.46.82.46 1.46 0 .2-.0133.446-.04.74-.0266.28-.06.54-.1.78l-1.18 7.08h-1.82l1.14-6.82c.0267-.187.0534-.387.08-.6.0267-.214.04-.387.04-.52 0-.654-.26-.98-.78-.98-.4533 0-.8333.246-1.14.74-.1466.24-.28.506-.4.8-.12.28-.2066.573-.26.88l-1.08 6.5h-1.82l1.16-6.92c.0267-.187.0467-.36.06-.52.0267-.174.04-.334.04-.48 0-.667-.24-1-.72-1-.4533 0-.8466.246-1.18.74-.1733.253-.3066.52-.4.8-.0933.266-.1666.526-.22.78l-1.1 6.6h-1.82zm18.7522-12.22c-.5066 0-.86-.094-1.06-.28-.2-.2-.3-.434-.3-.7 0-.08.0067-.174.02-.28.0134-.107.0334-.22.06-.34.0667-.36.2134-.64.44-.84.24-.214.6134-.32 1.12-.32.5067 0 .86.1 1.06.3.2.186.3.413.3.68 0 .08-.0066.173-.02.28-.0133.106-.0333.22-.06.34-.0666.36-.22.646-.46.86-.2266.2-.5933.3-1.1.3zm-1.16 12.46c-.64 0-1.12-.167-1.44-.5-.32-.334-.48-.767-.48-1.3 0-.174.0134-.347.04-.52.0267-.174.06-.38.1-.62l1.14-5.88h-3.48l.28-1.74h5.66l-1.68 8.66.4.16 3.46-3.18 1.22 1.1-1.56 1.56c-.4133.413-.7866.766-1.12 1.06-.3333.28-.64.513-.92.7-.28.173-.5533.3-.82.38-.2533.08-.52.12-.8.12zm7.2522-.24l1.7203-10.32h2.14l-.42 2.44h.1c.386-.827.84-1.48 1.36-1.96.52-.48 1.2-.72 2.04-.72.92 0 1.613.28 2.08.84.48.546.72 1.26.72 2.14 0 .24-.014.493-.04.76-.014.253-.054.553-.12.9l-.98 5.92h-2.14l1-6c.026-.187.053-.38.08-.58.026-.214.04-.407.04-.58 0-.467-.12-.86-.36-1.18-.227-.32-.607-.48-1.14-.48-.4 0-.76.093-1.08.28-.307.186-.594.44-.86.76-.134.16-.327.44-.58.84-.24.4-.407.873-.5 1.42l-.92 5.52h-2.1403z"/><path fill="#fff" d="M113.949 161.516c0-1.134.153-2.234.46-3.3.32-1.067.747-2.067 1.28-3 .533-.934 1.14-1.774 1.82-2.52.68-.747 1.393-1.367 2.14-1.86h2.2c-.693.48-1.353 1.013-1.98 1.6-.627.586-1.193 1.22-1.7 1.9-.493.68-.92 1.4-1.28 2.16-.347.746-.587 1.52-.72 2.32l-.3 1.78c-.04.24-.067.473-.08.7-.013.226-.02.453-.02.68 0 .68.08 1.346.24 2 .173.653.4 1.273.68 1.86.28.586.607 1.126.98 1.62.373.506.773.953 1.2 1.34h-2c-.413-.374-.8-.82-1.16-1.34-.347-.507-.653-1.067-.92-1.68-.253-.627-.46-1.294-.62-2-.147-.72-.22-1.474-.22-2.26zm13.272 4.76c-.64 0-1.12-.174-1.44-.52-.32-.347-.48-.82-.48-1.42 0-.12.013-.26.04-.42.027-.174.053-.354.08-.54l.98-5.92h-2.84l.28-1.74h1.92c.387 0 .673-.074.86-.22.187-.16.313-.434.38-.82l.44-2.6h2l-.6 3.64h4.16l-.28 1.74h-4.18l-1.14 6.84.4.2 3.92-2.78 1.06 1.28-1.82 1.36c-.453.346-.853.64-1.2.88-.333.24-.647.44-.94.6-.293.146-.567.253-.82.32-.253.08-.513.12-.78.12zm12.472 0c-1.413 0-2.48-.374-3.2-1.12-.706-.747-1.06-1.847-1.06-3.3 0-.947.14-1.807.42-2.58.294-.787.694-1.46 1.2-2.02.52-.56 1.134-.994 1.84-1.3.72-.32 1.514-.48 2.38-.48.52 0 1 .06 1.44.18.44.12.82.3 1.14.54.334.226.594.52.78.88.187.346.28.746.28 1.2 0 .386-.086.78-.26 1.18-.16.4-.5.766-1.02 1.1-.52.333-1.26.613-2.22.84-.96.226-2.226.366-3.8.42-.013.093-.02.18-.02.26v.14c0 .32.034.626.1.92.08.28.207.526.38.74.174.213.407.38.7.5.307.12.694.18 1.16.18.334 0 .634-.034.9-.1.28-.08.54-.2.78-.36.254-.16.5-.367.74-.62.254-.267.52-.594.8-.98l1.4.9c-.28.44-.58.84-.9 1.2-.32.346-.68.646-1.08.9-.386.24-.82.426-1.3.56-.466.146-.993.22-1.58.22zm1.38-9.18c-.88 0-1.6.26-2.16.78s-.926 1.313-1.1 2.38l-.04.22c1.12-.04 2.007-.127 2.66-.26.667-.147 1.174-.314 1.52-.5.36-.2.587-.414.68-.64.107-.227.16-.447.16-.66 0-.387-.133-.7-.4-.94-.253-.254-.693-.38-1.32-.38zm5.072 8.94l1.72-10.32h1.82l-.28 1.7h.1c.24-.56.534-1.02.88-1.38.36-.374.82-.56 1.38-.56.56 0 .974.18 1.24.54.28.36.394.846.34 1.46h.08c.254-.6.574-1.08.96-1.44.4-.374.907-.56 1.52-.56.587 0 1.027.166 1.32.5.307.333.46.82.46 1.46 0 .2-.013.446-.04.74-.026.28-.06.54-.1.78l-1.18 7.08h-1.82l1.14-6.82c.027-.187.054-.387.08-.6.027-.214.04-.387.04-.52 0-.654-.26-.98-.78-.98-.453 0-.833.246-1.14.74-.146.24-.28.506-.4.8-.12.28-.206.573-.26.88l-1.08 6.5h-1.82l1.16-6.92c.027-.187.047-.36.06-.52.027-.174.04-.334.04-.48 0-.667-.24-1-.72-1-.453 0-.846.246-1.18.74-.173.253-.306.52-.4.8-.093.266-.166.526-.22.78l-1.1 6.6h-1.82zm14.473-10.32h2.14l-.4 2.44h.08c.2-.4.413-.76.64-1.08.226-.334.48-.62.76-.86s.593-.42.94-.54c.36-.134.766-.2 1.22-.2 1.066 0 1.853.346 2.36 1.04.52.693.78 1.68.78 2.96 0 .826-.1 1.646-.3 2.46-.187.813-.48 1.54-.88 2.18-.4.64-.907 1.16-1.52 1.56-.6.4-1.314.6-2.14.6-.787 0-1.414-.18-1.88-.54-.467-.36-.794-.88-.98-1.56h-.1l-.96 5.86h-2.14l2.38-14.32zm3.02 8.82c.893 0 1.58-.267 2.06-.8.493-.547.813-1.24.96-2.08l.24-1.42c.026-.12.046-.254.06-.4.013-.16.02-.314.02-.46 0-.654-.147-1.174-.44-1.56-.294-.4-.76-.6-1.4-.6-.8 0-1.507.36-2.12 1.08-.227.253-.44.566-.64.94-.2.373-.34.8-.42 1.28l-.34 2.06c-.107.6.02 1.08.38 1.44.373.346.92.52 1.64.52zm7.292 1.5l2.34-13.96h8.96l-.32 1.86h-6.76l-.7 4.1h6.18l-.32 1.84h-6.16l-1.02 6.16h-2.2zm19.732-7.94c0 1.133-.16 2.24-.48 3.32-.307 1.066-.727 2.066-1.26 3-.52.92-1.127 1.753-1.82 2.5-.68.76-1.393 1.386-2.14 1.88h-2.18c.68-.48 1.333-1.02 1.96-1.62.627-.587 1.187-1.22 1.68-1.9.507-.68.933-1.394 1.28-2.14.36-.76.607-1.54.74-2.34l.3-1.76c.04-.24.067-.474.08-.7.013-.227.02-.454.02-.68 0-.68-.087-1.347-.26-2-.16-.654-.38-1.274-.66-1.86-.28-.587-.613-1.127-1-1.62-.373-.507-.767-.954-1.18-1.34h2c.413.373.793.813 1.14 1.32.36.506.667 1.073.92 1.7.267.613.473 1.28.62 2 .16.72.24 1.466.24 2.24zm20.564 8.18c-.666 0-1.153-.167-1.46-.5-.293-.334-.44-.78-.44-1.34 0-.267.04-.614.12-1.04l2-10.42h-3.4l.3-1.74h5.58l-2.54 13.16.42.14 3.56-3.22 1.2 1.1-1.72 1.68c-.426.413-.806.76-1.14 1.04-.333.28-.64.506-.92.68-.28.16-.546.273-.8.34-.253.08-.506.12-.76.12zm12.133 0c-.68 0-1.28-.107-1.8-.32-.52-.214-.96-.507-1.32-.88-.347-.387-.614-.847-.8-1.38-.187-.547-.28-1.154-.28-1.82 0-.987.14-1.874.42-2.66.28-.787.666-1.454 1.16-2 .506-.56 1.1-.987 1.78-1.28.693-.307 1.44-.46 2.24-.46.68 0 1.28.106 1.8.32.52.213.953.513 1.3.9.36.373.633.833.82 1.38.186.546.28 1.146.28 1.8 0 .986-.14 1.873-.42 2.66-.28.786-.674 1.46-1.18 2.02-.494.546-1.087.973-1.78 1.28-.68.293-1.42.44-2.22.44zm.14-1.7c.84 0 1.513-.254 2.02-.76.506-.52.833-1.234.98-2.14l.22-1.32c.026-.187.046-.36.06-.52.026-.16.04-.3.04-.42 0-.76-.2-1.32-.6-1.68-.387-.374-.92-.56-1.6-.56-.84 0-1.514.26-2.02.78-.507.506-.834 1.213-.98 2.12l-.22 1.32c-.027.186-.054.36-.08.52-.014.16-.02.3-.02.42 0 .76.193 1.326.58 1.7.4.36.94.54 1.62.54zm11.072-1.56h3.04l-3.38 5.92h-1.72l2.06-5.92z"/><path fill="#909194" d="M42.5723 157.836c.8934 0 1.5534-.187 1.98-.56.44-.387.66-.867.66-1.44v-.14c0-.64-.2133-1.127-.64-1.46-.4133-.347-.9733-.52-1.68-.52-.68 0-1.26.153-1.74.46-.4666.306-.86.726-1.18 1.26l-1.52-1.3c.2134-.307.46-.6.74-.88.28-.28.6-.52.96-.72.36-.214.7734-.38 1.24-.5.4667-.134.9934-.2 1.58-.2.6534 0 1.26.08 1.82.24.56.16 1.0467.4 1.46.72.4134.306.7334.686.96 1.14.2267.44.34.94.34 1.5 0 .44-.0733.84-.22 1.2-.1333.36-.3266.68-.58.96-.24.266-.5266.486-.86.66-.3333.173-.6866.3-1.06.38v.1c.4.08.78.213 1.14.4.36.173.68.406.96.7.28.28.5.62.66 1.02.16.386.24.833.24 1.34 0 .613-.12 1.173-.36 1.68-.24.493-.5866.92-1.04 1.28-.44.36-.9733.64-1.6.84-.6266.186-1.3266.28-2.1.28-.6533 0-1.2333-.074-1.74-.22-.4933-.134-.9333-.314-1.32-.54-.3866-.24-.7266-.507-1.02-.8-.28-.307-.5266-.62-.74-.94l1.66-1.28c.3467.56.7534 1.02 1.22 1.38.48.346 1.1334.52 1.96.52.88 0 1.5534-.2 2.02-.6.4667-.414.7-.98.7-1.7v-.16c0-.72-.2466-1.267-.74-1.64-.48-.387-1.18-.58-2.1-.58h-1.5v-1.88h1.44z"/><path fill="#A0E7FA" d="M81.4923 203.036l.4-2.44h-.08c-.3866.8-.8533 1.446-1.4 1.94-.5466.493-1.2666.74-2.16.74-1.0666 0-1.86-.347-2.38-1.04-.5066-.694-.76-1.68-.76-2.96 0-.827.0934-1.647.28-2.46.2-.814.5-1.54.9-2.18.4-.64.9-1.16 1.5-1.56.6134-.4 1.3334-.6 2.16-.6.7867 0 1.4134.18 1.88.54.4667.36.7934.88.98 1.56h.1l.3-1.86h2.14l-1.72 10.32h-2.14zm-2.38-1.5c.7867 0 1.4934-.36 2.12-1.08.2267-.254.44-.567.64-.94.2-.374.34-.8.42-1.28l.34-2.06c.1067-.6-.0266-1.074-.4-1.42-.36-.36-.9-.54-1.62-.54-.8933 0-1.5866.273-2.08.82-.48.533-.7933 1.22-.94 2.06l-.24 1.42c-.0266.12-.0466.26-.06.42-.0133.146-.02.293-.02.44 0 .653.1467 1.18.44 1.58.2934.386.76.58 1.4.58zm12.4922-8.82l-1.34 8.8.26.16c.7467-.16 1.3934-.434 1.94-.82.5467-.387 1-.847 1.36-1.38.36-.534.6267-1.12.8-1.76.1867-.64.28-1.287.28-1.94 0-.934-.2066-1.794-.62-2.58l1.96-.66c.2667.413.4667.893.6 1.44.1467.533.22 1.113.22 1.74 0 1.04-.1866 2.02-.56 2.94-.3733.906-.88 1.7-1.52 2.38-.6266.68-1.3533 1.22-2.18 1.62-.8266.386-1.6933.58-2.6.58-.6666 0-1.16-.167-1.48-.5-.32-.334-.48-.794-.48-1.38 0-.147.0067-.294.02-.44.0134-.147.0334-.314.06-.5l.92-5.96h-2.02l.28-1.74h4.1zm10.8525 14.56c-.88 0-1.64-.114-2.28-.34-.6269-.227-1.1603-.6-1.6003-1.12l1.36-1.36c.5733.72 1.4203 1.08 2.5403 1.08.413 0 .786-.047 1.12-.14.346-.094.646-.26.9-.5.266-.24.486-.56.66-.96.173-.387.313-.88.42-1.48l.38-2.24h-.1c-.387.826-.854 1.486-1.4 1.98-.547.48-1.267.72-2.16.72-1.08 0-1.88-.354-2.4003-1.06-.5066-.72-.76-1.687-.76-2.9 0-.774.0934-1.547.28-2.32.2-.774.4934-1.467.8803-2.08.386-.627.88-1.127 1.48-1.5.6-.387 1.313-.58 2.14-.58.8 0 1.433.18 1.9.54.466.36.793.88.98 1.56h.1l.3-1.86h2.14l-1.66 9.96c-.134.813-.354 1.506-.66 2.08-.294.586-.667 1.066-1.12 1.44-.44.373-.954.646-1.54.82-.574.173-1.207.26-1.9.26zm.7-6.12c.773 0 1.473-.354 2.1-1.06.186-.2.386-.48.6-.84.226-.36.386-.807.48-1.34l.28-1.7c.106-.614-.027-1.1-.4-1.46-.36-.36-.9-.54-1.62-.54-.88 0-1.567.266-2.06.8-.494.533-.814 1.233-.96 2.1l-.16.96c-.027.16-.047.313-.06.46-.014.146-.02.306-.02.48 0 .666.14 1.193.42 1.58.293.373.76.56 1.4.56zm110.249 1.88l.4-2.44h-.08c-.386.8-.853 1.446-1.4 1.94-.546.493-1.266.74-2.16.74-1.066 0-1.86-.347-2.38-1.04-.506-.694-.76-1.68-.76-2.96 0-.827.094-1.647.28-2.46.2-.814.5-1.54.9-2.18.4-.64.9-1.16 1.5-1.56.614-.4 1.334-.6 2.16-.6.787 0 1.414.18 1.88.54.467.36.794.88.98 1.56h.1l.3-1.86h2.14l-1.72 10.32h-2.14zm-2.38-1.5c.787 0 1.494-.36 2.12-1.08.227-.254.44-.567.64-.94.2-.374.34-.8.42-1.28l.34-2.06c.107-.6-.026-1.074-.4-1.42-.36-.36-.9-.54-1.62-.54-.893 0-1.586.273-2.08.82-.48.533-.793 1.22-.94 2.06l-.24 1.42c-.026.12-.046.26-.06.42-.013.146-.02.293-.02.44 0 .653.147 1.18.44 1.58.294.386.76.58 1.4.58zm12.493-8.82l-1.34 8.8.26.16c.746-.16 1.393-.434 1.94-.82.546-.387 1-.847 1.36-1.38.36-.534.626-1.12.8-1.76.186-.64.28-1.287.28-1.94 0-.934-.207-1.794-.62-2.58l1.96-.66c.266.413.466.893.6 1.44.146.533.22 1.113.22 1.74 0 1.04-.187 2.02-.56 2.94-.374.906-.88 1.7-1.52 2.38-.627.68-1.354 1.22-2.18 1.62-.827.386-1.694.58-2.6.58-.667 0-1.16-.167-1.48-.5-.32-.334-.48-.794-.48-1.38 0-.147.006-.294.02-.44.013-.147.033-.314.06-.5l.92-5.96h-2.02l.28-1.74h4.1zm10.852 14.56c-.88 0-1.64-.114-2.28-.34-.627-.227-1.16-.6-1.6-1.12l1.36-1.36c.573.72 1.42 1.08 2.54 1.08.413 0 .786-.047 1.12-.14.346-.094.646-.26.9-.5.266-.24.486-.56.66-.96.173-.387.313-.88.42-1.48l.38-2.24h-.1c-.387.826-.854 1.486-1.4 1.98-.547.48-1.267.72-2.16.72-1.08 0-1.88-.354-2.4-1.06-.507-.72-.76-1.687-.76-2.9 0-.774.093-1.547.28-2.32.2-.774.493-1.467.88-2.08.386-.627.88-1.127 1.48-1.5.6-.387 1.313-.58 2.14-.58.8 0 1.433.18 1.9.54.466.36.793.88.98 1.56h.1l.3-1.86h2.14l-1.66 9.96c-.134.813-.354 1.506-.66 2.08-.294.586-.667 1.066-1.12 1.44-.44.373-.954.646-1.54.82-.574.173-1.207.26-1.9.26zm.7-6.12c.773 0 1.473-.354 2.1-1.06.186-.2.386-.48.6-.84.226-.36.386-.807.48-1.34l.28-1.7c.106-.614-.027-1.1-.4-1.46-.36-.36-.9-.54-1.62-.54-.88 0-1.567.266-2.06.8-.494.533-.814 1.233-.96 2.1l-.16.96c-.027.16-.047.313-.06.46-.014.146-.02.306-.02.48 0 .666.14 1.193.42 1.58.293.373.76.56 1.4.56z"/><path fill="#fff" d="M113.949 198.516c0-1.134.153-2.234.46-3.3.32-1.067.747-2.067 1.28-3 .533-.934 1.14-1.774 1.82-2.52.68-.747 1.393-1.367 2.14-1.86h2.2c-.693.48-1.353 1.013-1.98 1.6-.627.586-1.193 1.22-1.7 1.9-.493.68-.92 1.4-1.28 2.16-.347.746-.587 1.52-.72 2.32l-.3 1.78c-.04.24-.067.473-.08.7-.013.226-.02.453-.02.68 0 .68.08 1.346.24 2 .173.653.4 1.273.68 1.86.28.586.607 1.126.98 1.62.373.506.773.953 1.2 1.34h-2c-.413-.374-.8-.82-1.16-1.34-.347-.507-.653-1.067-.92-1.68-.253-.627-.46-1.294-.62-2-.147-.72-.22-1.474-.22-2.26zm13.272 4.76c-.64 0-1.12-.174-1.44-.52-.32-.347-.48-.82-.48-1.42 0-.12.013-.26.04-.42.027-.174.053-.354.08-.54l.98-5.92h-2.84l.28-1.74h1.92c.387 0 .673-.074.86-.22.187-.16.313-.434.38-.82l.44-2.6h2l-.6 3.64h4.16l-.28 1.74h-4.18l-1.14 6.84.4.2 3.92-2.78 1.06 1.28-1.82 1.36c-.453.346-.853.64-1.2.88-.333.24-.647.44-.94.6-.293.146-.567.253-.82.32-.253.08-.513.12-.78.12zm12.472 0c-1.413 0-2.48-.374-3.2-1.12-.706-.747-1.06-1.847-1.06-3.3 0-.947.14-1.807.42-2.58.294-.787.694-1.46 1.2-2.02.52-.56 1.134-.994 1.84-1.3.72-.32 1.514-.48 2.38-.48.52 0 1 .06 1.44.18.44.12.82.3 1.14.54.334.226.594.52.78.88.187.346.28.746.28 1.2 0 .386-.086.78-.26 1.18-.16.4-.5.766-1.02 1.1-.52.333-1.26.613-2.22.84-.96.226-2.226.366-3.8.42-.013.093-.02.18-.02.26v.14c0 .32.034.626.1.92.08.28.207.526.38.74.174.213.407.38.7.5.307.12.694.18 1.16.18.334 0 .634-.034.9-.1.28-.08.54-.2.78-.36.254-.16.5-.367.74-.62.254-.267.52-.594.8-.98l1.4.9c-.28.44-.58.84-.9 1.2-.32.346-.68.646-1.08.9-.386.24-.82.426-1.3.56-.466.146-.993.22-1.58.22zm1.38-9.18c-.88 0-1.6.26-2.16.78s-.926 1.313-1.1 2.38l-.04.22c1.12-.04 2.007-.127 2.66-.26.667-.147 1.174-.314 1.52-.5.36-.2.587-.414.68-.64.107-.227.16-.447.16-.66 0-.387-.133-.7-.4-.94-.253-.254-.693-.38-1.32-.38zm5.072 8.94l1.72-10.32h1.82l-.28 1.7h.1c.24-.56.534-1.02.88-1.38.36-.374.82-.56 1.38-.56.56 0 .974.18 1.24.54.28.36.394.846.34 1.46h.08c.254-.6.574-1.08.96-1.44.4-.374.907-.56 1.52-.56.587 0 1.027.166 1.32.5.307.333.46.82.46 1.46 0 .2-.013.446-.04.74-.026.28-.06.54-.1.78l-1.18 7.08h-1.82l1.14-6.82c.027-.187.054-.387.08-.6.027-.214.04-.387.04-.52 0-.654-.26-.98-.78-.98-.453 0-.833.246-1.14.74-.146.24-.28.506-.4.8-.12.28-.206.573-.26.88l-1.08 6.5h-1.82l1.16-6.92c.027-.187.047-.36.06-.52.027-.174.04-.334.04-.48 0-.667-.24-1-.72-1-.453 0-.846.246-1.18.74-.173.253-.306.52-.4.8-.093.266-.166.526-.22.78l-1.1 6.6h-1.82zm14.473-10.32h2.14l-.4 2.44h.08c.2-.4.413-.76.64-1.08.226-.334.48-.62.76-.86s.593-.42.94-.54c.36-.134.766-.2 1.22-.2 1.066 0 1.853.346 2.36 1.04.52.693.78 1.68.78 2.96 0 .826-.1 1.646-.3 2.46-.187.813-.48 1.54-.88 2.18-.4.64-.907 1.16-1.52 1.56-.6.4-1.314.6-2.14.6-.787 0-1.414-.18-1.88-.54-.467-.36-.794-.88-.98-1.56h-.1l-.96 5.86h-2.14l2.38-14.32zm3.02 8.82c.893 0 1.58-.267 2.06-.8.493-.547.813-1.24.96-2.08l.24-1.42c.026-.12.046-.254.06-.4.013-.16.02-.314.02-.46 0-.654-.147-1.174-.44-1.56-.294-.4-.76-.6-1.4-.6-.8 0-1.507.36-2.12 1.08-.227.253-.44.566-.64.94-.2.373-.34.8-.42 1.28l-.34 2.06c-.107.6.02 1.08.38 1.44.373.346.92.52 1.64.52zm7.292 1.5l2.34-13.96h8.96l-.32 1.86h-6.76l-.7 4.1h6.18l-.32 1.84h-6.16l-1.02 6.16h-2.2zm19.732-7.94c0 1.133-.16 2.24-.48 3.32-.307 1.066-.727 2.066-1.26 3-.52.92-1.127 1.753-1.82 2.5-.68.76-1.393 1.386-2.14 1.88h-2.18c.68-.48 1.333-1.02 1.96-1.62.627-.587 1.187-1.22 1.68-1.9.507-.68.933-1.394 1.28-2.14.36-.76.607-1.54.74-2.34l.3-1.76c.04-.24.067-.474.08-.7.013-.227.02-.454.02-.68 0-.68-.087-1.347-.26-2-.16-.654-.38-1.274-.66-1.86-.28-.587-.613-1.127-1-1.62-.373-.507-.767-.954-1.18-1.34h2c.413.373.793.813 1.14 1.32.36.506.667 1.073.92 1.7.267.613.473 1.28.62 2 .16.72.24 1.466.24 2.24zm55.901 4.92h3.04l-3.38 5.92h-1.72l2.06-5.92z"/><path fill="#909194" d="M44.3923 203.036v-2.72h-6.64v-1.92l5.84-9.32h2.94v9.48h1.96v1.76h-1.96v2.72h-2.14zm-4.74-4.48h4.74v-7.42h-.12l-4.62 7.42z"/><path fill="#A0E7FA" d="M74.1923 240.036l1.72-10.32h1.82l-.28 1.7h.1c.24-.56.5334-1.02.88-1.38.36-.374.82-.56 1.38-.56.56 0 .9734.18 1.24.54.28.36.3934.846.34 1.46h.08c.2534-.6.5734-1.08.96-1.44.4-.374.9067-.56 1.52-.56.5867 0 1.0267.166 1.32.5.3067.333.46.82.46 1.46 0 .2-.0133.446-.04.74-.0266.28-.06.54-.1.78l-1.18 7.08h-1.82l1.14-6.82c.0267-.187.0534-.387.08-.6.0267-.214.04-.387.04-.52 0-.654-.26-.98-.78-.98-.4533 0-.8333.246-1.14.74-.1466.24-.28.506-.4.8-.12.28-.2066.573-.26.88l-1.08 6.5h-1.82l1.16-6.92c.0267-.187.0467-.36.06-.52.0267-.174.04-.334.04-.48 0-.667-.24-1-.72-1-.4533 0-.8466.246-1.18.74-.1733.253-.3066.52-.4.8-.0933.266-.1666.526-.22.78l-1.1 6.6h-1.82zm19.2922 0l.4-2.44h-.08c-.3866.8-.8533 1.446-1.4 1.94-.5466.493-1.2666.74-2.16.74-1.0666 0-1.86-.347-2.38-1.04-.5066-.694-.76-1.68-.76-2.96 0-.827.0934-1.647.28-2.46.2-.814.5-1.54.9-2.18.4-.64.9-1.16 1.5-1.56.6134-.4 1.3334-.6 2.16-.6.7867 0 1.4134.18 1.88.54.4667.36.7934.88.98 1.56h.1l.3-1.86h2.14l-1.72 10.32h-2.14zm-2.38-1.5c.7867 0 1.4934-.36 2.12-1.08.2267-.254.44-.567.64-.94.2-.374.34-.8.42-1.28l.34-2.06c.1067-.6-.0266-1.074-.4-1.42-.36-.36-.9-.54-1.62-.54-.8933 0-1.5866.273-2.08.82-.48.533-.7933 1.22-.94 2.06l-.24 1.42c-.0266.12-.0466.26-.06.42-.0133.146-.02.293-.02.44 0 .653.1467 1.18.44 1.58.2934.386.76.58 1.4.58zm9.1525 1.74c-.6803 0-1.2003-.214-1.5603-.64-.3466-.427-.52-1.067-.52-1.92 0-.174.0067-.34.02-.5.0134-.174.0334-.394.06-.66l1.8203-.18c-.027.146-.04.286-.04.42v.34c0 .533.06.926.18 1.18.12.24.333.36.64.36.44 0 .806-.207 1.1-.62.293-.414.526-.914.7-1.5.186-.587.313-1.207.38-1.86.08-.654.12-1.22.12-1.7 0-.32-.014-.64-.04-.96-.014-.32-.054-.594-.12-.82l-.28-.14-2.9403 1.9-.86-1.22 1.3603-1.02c.506-.374.986-.674 1.44-.9.453-.24.9-.36 1.34-.36.4 0 .713.093.94.28.24.173.426.413.56.72.133.306.22.666.26 1.08.04.4.06.82.06 1.26h.14c.28-1.2.666-2.054 1.16-2.56.506-.52 1.126-.78 1.86-.78.666 0 1.173.22 1.52.66.36.44.54 1.066.54 1.88 0 .146-.007.313-.02.5 0 .186-.014.413-.04.68l-1.82.18c.013-.16.02-.307.02-.44.013-.134.02-.254.02-.36 0-.507-.06-.88-.18-1.12-.12-.254-.334-.38-.64-.38-.44 0-.807.206-1.1.62-.294.4-.534.893-.72 1.48-.174.573-.3 1.18-.38 1.82-.067.626-.1 1.166-.1 1.62 0 .346.013.693.04 1.04.04.333.093.626.16.88l.26.14 2.84-2 .9 1.18-1 .88c-.68.6-1.267 1.006-1.76 1.22-.48.213-.914.32-1.3.32-.36 0-.66-.08-.9-.24-.24-.174-.427-.407-.56-.7-.134-.307-.227-.66-.28-1.06-.054-.414-.08-.854-.08-1.32l-.14-.02c-.28 1.2-.674 2.06-1.18 2.58-.507.506-1.134.76-1.88.76z"/><path fill="#fff" d="M113.949 235.516c0-1.134.153-2.234.46-3.3.32-1.067.747-2.067 1.28-3 .533-.934 1.14-1.774 1.82-2.52.68-.747 1.393-1.367 2.14-1.86h2.2c-.693.48-1.353 1.013-1.98 1.6-.627.586-1.193 1.22-1.7 1.9-.493.68-.92 1.4-1.28 2.16-.347.746-.587 1.52-.72 2.32l-.3 1.78c-.04.24-.067.473-.08.7-.013.226-.02.453-.02.68 0 .68.08 1.346.24 2 .173.653.4 1.273.68 1.86.28.586.607 1.126.98 1.62.373.506.773.953 1.2 1.34h-2c-.413-.374-.8-.82-1.16-1.34-.347-.507-.653-1.067-.92-1.68-.253-.627-.46-1.294-.62-2-.147-.72-.22-1.474-.22-2.26zm13.272 4.76c-.64 0-1.12-.174-1.44-.52-.32-.347-.48-.82-.48-1.42 0-.12.013-.26.04-.42.027-.174.053-.354.08-.54l.98-5.92h-2.84l.28-1.74h1.92c.387 0 .673-.074.86-.22.187-.16.313-.434.38-.82l.44-2.6h2l-.6 3.64h4.16l-.28 1.74h-4.18l-1.14 6.84.4.2 3.92-2.78 1.06 1.28-1.82 1.36c-.453.346-.853.64-1.2.88-.333.24-.647.44-.94.6-.293.146-.567.253-.82.32-.253.08-.513.12-.78.12zm12.472 0c-1.413 0-2.48-.374-3.2-1.12-.706-.747-1.06-1.847-1.06-3.3 0-.947.14-1.807.42-2.58.294-.787.694-1.46 1.2-2.02.52-.56 1.134-.994 1.84-1.3.72-.32 1.514-.48 2.38-.48.52 0 1 .06 1.44.18.44.12.82.3 1.14.54.334.226.594.52.78.88.187.346.28.746.28 1.2 0 .386-.086.78-.26 1.18-.16.4-.5.766-1.02 1.1-.52.333-1.26.613-2.22.84-.96.226-2.226.366-3.8.42-.013.093-.02.18-.02.26v.14c0 .32.034.626.1.92.08.28.207.526.38.74.174.213.407.38.7.5.307.12.694.18 1.16.18.334 0 .634-.034.9-.1.28-.08.54-.2.78-.36.254-.16.5-.367.74-.62.254-.267.52-.594.8-.98l1.4.9c-.28.44-.58.84-.9 1.2-.32.346-.68.646-1.08.9-.386.24-.82.426-1.3.56-.466.146-.993.22-1.58.22zm1.38-9.18c-.88 0-1.6.26-2.16.78s-.926 1.313-1.1 2.38l-.04.22c1.12-.04 2.007-.127 2.66-.26.667-.147 1.174-.314 1.52-.5.36-.2.587-.414.68-.64.107-.227.16-.447.16-.66 0-.387-.133-.7-.4-.94-.253-.254-.693-.38-1.32-.38zm5.072 8.94l1.72-10.32h1.82l-.28 1.7h.1c.24-.56.534-1.02.88-1.38.36-.374.82-.56 1.38-.56.56 0 .974.18 1.24.54.28.36.394.846.34 1.46h.08c.254-.6.574-1.08.96-1.44.4-.374.907-.56 1.52-.56.587 0 1.027.166 1.32.5.307.333.46.82.46 1.46 0 .2-.013.446-.04.74-.026.28-.06.54-.1.78l-1.18 7.08h-1.82l1.14-6.82c.027-.187.054-.387.08-.6.027-.214.04-.387.04-.52 0-.654-.26-.98-.78-.98-.453 0-.833.246-1.14.74-.146.24-.28.506-.4.8-.12.28-.206.573-.26.88l-1.08 6.5h-1.82l1.16-6.92c.027-.187.047-.36.06-.52.027-.174.04-.334.04-.48 0-.667-.24-1-.72-1-.453 0-.846.246-1.18.74-.173.253-.306.52-.4.8-.093.266-.166.526-.22.78l-1.1 6.6h-1.82zm14.473-10.32h2.14l-.4 2.44h.08c.2-.4.413-.76.64-1.08.226-.334.48-.62.76-.86s.593-.42.94-.54c.36-.134.766-.2 1.22-.2 1.066 0 1.853.346 2.36 1.04.52.693.78 1.68.78 2.96 0 .826-.1 1.646-.3 2.46-.187.813-.48 1.54-.88 2.18-.4.64-.907 1.16-1.52 1.56-.6.4-1.314.6-2.14.6-.787 0-1.414-.18-1.88-.54-.467-.36-.794-.88-.98-1.56h-.1l-.96 5.86h-2.14l2.38-14.32zm3.02 8.82c.893 0 1.58-.267 2.06-.8.493-.547.813-1.24.96-2.08l.24-1.42c.026-.12.046-.254.06-.4.013-.16.02-.314.02-.46 0-.654-.147-1.174-.44-1.56-.294-.4-.76-.6-1.4-.6-.8 0-1.507.36-2.12 1.08-.227.253-.44.566-.64.94-.2.373-.34.8-.42 1.28l-.34 2.06c-.107.6.02 1.08.38 1.44.373.346.92.52 1.64.52zm7.292 1.5l2.34-13.96h8.96l-.32 1.86h-6.76l-.7 4.1h6.18l-.32 1.84h-6.16l-1.02 6.16h-2.2zm19.732-7.94c0 1.133-.16 2.24-.48 3.32-.307 1.066-.727 2.066-1.26 3-.52.92-1.127 1.753-1.82 2.5-.68.76-1.393 1.386-2.14 1.88h-2.18c.68-.48 1.333-1.02 1.96-1.62.627-.587 1.187-1.22 1.68-1.9.507-.68.933-1.394 1.28-2.14.36-.76.607-1.54.74-2.34l.3-1.76c.04-.24.067-.474.08-.7.013-.227.02-.454.02-.68 0-.68-.087-1.347-.26-2-.16-.654-.38-1.274-.66-1.86-.28-.587-.613-1.127-1-1.62-.373-.507-.767-.954-1.18-1.34h2c.413.373.793.813 1.14 1.32.36.506.667 1.073.92 1.7.267.613.473 1.28.62 2 .16.72.24 1.466.24 2.24zm18.764-6.86h2.14l-1.16 6.92h.1c.387-.827.84-1.48 1.36-1.96.52-.48 1.2-.72 2.04-.72.92 0 1.614.28 2.08.84.48.546.72 1.26.72 2.14 0 .24-.013.493-.04.76-.013.253-.053.553-.12.9l-.98 5.92h-2.14l1-6c.027-.187.054-.38.08-.58.027-.214.04-.407.04-.58 0-.467-.12-.86-.36-1.18-.226-.32-.606-.48-1.14-.48-.4 0-.76.093-1.08.28-.306.186-.593.44-.86.76-.133.16-.326.44-.58.84-.24.4-.406.873-.5 1.42l-.92 5.52h-2.14l2.46-14.8zm15.433 2.58c-.507 0-.86-.094-1.06-.28-.2-.2-.3-.434-.3-.7 0-.08.006-.174.02-.28.013-.107.033-.22.06-.34.066-.36.213-.64.44-.84.24-.214.613-.32 1.12-.32.506 0 .86.1 1.06.3.2.186.3.413.3.68 0 .08-.007.173-.02.28-.014.106-.034.22-.06.34-.067.36-.22.646-.46.86-.227.2-.594.3-1.1.3zm-1.16 12.46c-.64 0-1.12-.167-1.44-.5-.32-.334-.48-.767-.48-1.3 0-.174.013-.347.04-.52.026-.174.06-.38.1-.62l1.14-5.88h-3.48l.28-1.74h5.66l-1.68 8.66.4.16 3.46-3.18 1.22 1.1-1.56 1.56c-.414.413-.787.766-1.12 1.06-.334.28-.64.513-.92.7-.28.173-.554.3-.82.38-.254.08-.52.12-.8.12z"/><path fill="#909194" d="M47.3723 228.016h-6.34l-.36 4.96h.16c.32-.547.7067-.98 1.16-1.3.4534-.334 1.0734-.5 1.86-.5.6 0 1.1534.1 1.66.3.52.2.9667.486 1.34.86.3867.373.6867.833.9 1.38.2267.533.34 1.14.34 1.82 0 .693-.1133 1.333-.34 1.92-.2266.573-.5533 1.073-.98 1.5-.4266.413-.9533.74-1.58.98-.6266.226-1.34.34-2.14.34-.6266 0-1.1866-.074-1.68-.22-.48-.134-.9133-.314-1.3-.54-.3733-.24-.7-.507-.98-.8-.28-.307-.5266-.62-.74-.94l1.64-1.28c.1734.266.3534.52.54.76.2.226.42.426.66.6.24.173.5134.306.82.4.32.093.68.14 1.08.14.8667 0 1.5267-.234 1.98-.7.4534-.48.68-1.127.68-1.94v-.16c0-.814-.2333-1.447-.7-1.9-.4533-.454-1.1066-.68-1.96-.68-.6266 0-1.12.113-1.48.34-.36.226-.6733.48-.94.76l-1.86-.26.52-7.78h8.04v1.94z"/><path fill="#FF7CCA" d="M77.9123 281.276c-.28 0-.54-.054-.78-.16-.24-.094-.48-.24-.72-.44-.2266-.2-.4733-.454-.74-.76-.2666-.294-.5733-.647-.92-1.06l-1.04-1.26 1.46-1.14 2.62 3.04.32-.08 1.82-10.96h-3.48l.28-1.74h3.48l.32-1.92c.12-.72.4267-1.327.92-1.82.4934-.494 1.2-.74 2.12-.74h3.5l-.28 1.74h-3.98l-.46 2.74h4l-.28 1.74h-4l-1.72 10.3c-.1333.786-.3933 1.4-.78 1.84-.3866.453-.94.68-1.66.68zm11.5322-4.24l1.42-8.58h-2.66l.3-1.74h4.8l-.5 2.92h.12c.3867-.894.88-1.6 1.48-2.12.6-.534 1.4-.8 2.4-.8h1.2l-.36 2.14h-1.8c-.5733 0-1.0466.08-1.42.24-.36.146-.68.393-.96.74-.1333.16-.32.42-.56.78-.2266.36-.38.78-.46 1.26l-.86 5.16h-2.14zm13.9925.24c-.68 0-1.28-.107-1.8-.32-.52-.214-.96-.507-1.32-.88-.3469-.387-.6136-.847-.8003-1.38-.1866-.547-.28-1.154-.28-1.82 0-.987.14-1.874.42-2.66.28-.787.6663-1.454 1.1603-2 .506-.56 1.1-.987 1.78-1.28.693-.307 1.44-.46 2.24-.46.68 0 1.28.106 1.8.32.52.213.953.513 1.3.9.36.373.633.833.82 1.38.186.546.28 1.146.28 1.8 0 .986-.14 1.873-.42 2.66-.28.786-.674 1.46-1.18 2.02-.494.546-1.087.973-1.78 1.28-.68.293-1.42.44-2.22.44zm.14-1.7c.84 0 1.513-.254 2.02-.76.506-.52.833-1.234.98-2.14l.22-1.32c.026-.187.046-.36.06-.52.026-.16.04-.3.04-.42 0-.76-.2-1.32-.6-1.68-.387-.374-.92-.56-1.6-.56-.84 0-1.514.26-2.02.78-.507.506-.834 1.213-.98 2.12l-.22 1.32c-.027.186-.054.36-.08.52-.014.16-.02.3-.02.42 0 .76.193 1.326.58 1.7.4.36.94.54 1.62.54zm6.592 1.46l1.72-10.32h1.82l-.28 1.7h.1c.24-.56.533-1.02.88-1.38.36-.374.82-.56 1.38-.56.56 0 .973.18 1.24.54.28.36.393.846.34 1.46h.08c.253-.6.573-1.08.96-1.44.4-.374.907-.56 1.52-.56.587 0 1.027.166 1.32.5.307.333.46.82.46 1.46 0 .2-.013.446-.04.74-.027.28-.06.54-.1.78l-1.18 7.08h-1.82l1.14-6.82c.027-.187.053-.387.08-.6.027-.214.04-.387.04-.52 0-.654-.26-.98-.78-.98-.453 0-.833.246-1.14.74-.147.24-.28.506-.4.8-.12.28-.207.573-.26.88l-1.08 6.5h-1.82l1.16-6.92c.027-.187.047-.36.06-.52.027-.174.04-.334.04-.48 0-.667-.24-1-.72-1-.453 0-.847.246-1.18.74-.173.253-.307.52-.4.8-.093.266-.167.526-.22.78l-1.1 6.6h-1.82z"/><path fill="#fff" d="M136.573 277.256c-.64 0-1.113-.187-1.42-.56-.293-.387-.44-.9-.44-1.54 0-.2.014-.44.04-.72.027-.28.067-.567.12-.86l1.14-6.86h1.8l-1.16 6.74c-.026.186-.053.38-.08.58-.026.186-.04.36-.04.52 0 .64.267.96.8.96.24 0 .454-.074.64-.22.187-.147.36-.34.52-.58.147-.214.267-.474.36-.78.094-.307.16-.58.2-.82l1.06-6.4h1.74l-1.1 6.78c-.026.2-.053.393-.08.58-.013.186-.02.353-.02.5 0 .64.254.96.76.96.32 0 .62-.167.9-.5.294-.347.54-.794.74-1.34.214-.56.38-1.187.5-1.88.134-.694.2-1.4.2-2.12 0-.48-.033-.954-.1-1.42-.066-.48-.173-.88-.32-1.2l1.62-.48c.187.36.334.806.44 1.34.107.52.16 1.1.16 1.74 0 1.2-.146 2.326-.44 3.38-.28 1.04-.68 1.906-1.2 2.6-.8 1.066-1.766 1.6-2.9 1.6-.626 0-1.093-.18-1.4-.54-.306-.36-.44-.894-.4-1.6h-.1c-.266.68-.606 1.206-1.02 1.58-.4.373-.906.56-1.52.56zm15.112.02c-1.413 0-2.48-.374-3.2-1.12-.706-.747-1.06-1.847-1.06-3.3 0-.947.14-1.807.42-2.58.294-.787.694-1.46 1.2-2.02.52-.56 1.134-.994 1.84-1.3.72-.32 1.514-.48 2.38-.48.52 0 1 .06 1.44.18.44.12.82.3 1.14.54.334.226.594.52.78.88.187.346.28.746.28 1.2 0 .386-.086.78-.26 1.18-.16.4-.5.766-1.02 1.1-.52.333-1.26.613-2.22.84-.96.226-2.226.366-3.8.42-.013.093-.02.18-.02.26v.14c0 .32.034.626.1.92.08.28.207.526.38.74.174.213.407.38.7.5.307.12.694.18 1.16.18.334 0 .634-.034.9-.1.28-.08.54-.2.78-.36.254-.16.5-.367.74-.62.254-.267.52-.594.8-.98l1.4.9c-.28.44-.58.84-.9 1.2-.32.346-.68.646-1.08.9-.386.24-.82.426-1.3.56-.466.146-.993.22-1.58.22zm1.38-9.18c-.88 0-1.6.26-2.16.78s-.926 1.313-1.1 2.38l-.04.22c1.12-.04 2.007-.127 2.66-.26.667-.147 1.174-.314 1.52-.5.36-.2.587-.414.68-.64.107-.227.16-.447.16-.66 0-.387-.133-.7-.4-.94-.253-.254-.693-.38-1.32-.38zm12.373 8.94l.4-2.44h-.08c-.387.8-.854 1.446-1.4 1.94-.547.493-1.267.74-2.16.74-1.067 0-1.86-.347-2.38-1.04-.507-.694-.76-1.68-.76-2.96 0-.827.093-1.647.28-2.46.2-.814.5-1.54.9-2.18.4-.64.9-1.16 1.5-1.56.613-.4 1.333-.6 2.16-.6.786 0 1.413.18 1.88.54.466.36.793.88.98 1.56h.1l.3-1.86h2.14l-1.72 10.32h-2.14zm-2.38-1.5c.786 0 1.493-.36 2.12-1.08.226-.254.44-.567.64-.94.2-.374.34-.8.42-1.28l.34-2.06c.106-.6-.027-1.074-.4-1.42-.36-.36-.9-.54-1.62-.54-.894 0-1.587.273-2.08.82-.48.533-.794 1.22-.94 2.06l-.24 1.42c-.027.12-.047.26-.06.42-.014.146-.02.293-.02.44 0 .653.146 1.18.44 1.58.293.386.76.58 1.4.58zm12.132 1.74c-.64 0-1.12-.174-1.44-.52-.32-.347-.48-.82-.48-1.42 0-.12.013-.26.04-.42.027-.174.053-.354.08-.54l.98-5.92h-2.84l.28-1.74h1.92c.387 0 .673-.074.86-.22.187-.16.313-.434.38-.82l.44-2.6h2l-.6 3.64h4.16l-.28 1.74h-4.18l-1.14 6.84.4.2 3.92-2.78 1.06 1.28-1.82 1.36c-.453.346-.853.64-1.2.88-.333.24-.647.44-.94.6-.293.146-.567.253-.82.32-.253.08-.513.12-.78.12zm10.252-15.04h2.14l-1.16 6.92h.1c.387-.827.84-1.48 1.36-1.96.52-.48 1.2-.72 2.04-.72.92 0 1.613.28 2.08.84.48.546.72 1.26.72 2.14 0 .24-.013.493-.04.76-.013.253-.053.553-.12.9l-.98 5.92h-2.14l1-6c.027-.187.053-.38.08-.58.027-.214.04-.407.04-.58 0-.467-.12-.86-.36-1.18-.227-.32-.607-.48-1.14-.48-.4 0-.76.093-1.08.28-.307.186-.593.44-.86.76-.133.16-.327.44-.58.84-.24.4-.407.873-.5 1.42l-.92 5.52h-2.14l2.46-14.8zm14.212 15.04c-1.413 0-2.48-.374-3.2-1.12-.706-.747-1.06-1.847-1.06-3.3 0-.947.14-1.807.42-2.58.294-.787.694-1.46 1.2-2.02.52-.56 1.134-.994 1.84-1.3.72-.32 1.514-.48 2.38-.48.52 0 1 .06 1.44.18.44.12.82.3 1.14.54.334.226.594.52.78.88.187.346.28.746.28 1.2 0 .386-.086.78-.26 1.18-.16.4-.5.766-1.02 1.1-.52.333-1.26.613-2.22.84-.96.226-2.226.366-3.8.42-.013.093-.02.18-.02.26v.14c0 .32.034.626.1.92.08.28.207.526.38.74.174.213.407.38.7.5.307.12.694.18 1.16.18.334 0 .634-.034.9-.1.28-.08.54-.2.78-.36.254-.16.5-.367.74-.62.254-.267.52-.594.8-.98l1.4.9c-.28.44-.58.84-.9 1.2-.32.346-.68.646-1.08.9-.386.24-.82.426-1.3.56-.466.146-.993.22-1.58.22zm1.38-9.18c-.88 0-1.6.26-2.16.78s-.926 1.313-1.1 2.38l-.04.22c1.12-.04 2.007-.127 2.66-.26.667-.147 1.174-.314 1.52-.5.36-.2.587-.414.68-.64.107-.227.16-.447.16-.66 0-.387-.133-.7-.4-.94-.253-.254-.693-.38-1.32-.38zm8.332 8.94l1.42-8.58h-2.66l.3-1.74h4.8l-.5 2.92h.12c.387-.894.88-1.6 1.48-2.12.6-.534 1.4-.8 2.4-.8h1.2l-.36 2.14h-1.8c-.573 0-1.046.08-1.42.24-.36.146-.68.393-.96.74-.133.16-.32.42-.56.78-.226.36-.38.78-.46 1.26l-.86 5.16h-2.14z"/><path fill="#909194" d="M43.1923 277.276c-.7866 0-1.4866-.127-2.1-.38-.6133-.254-1.1333-.614-1.56-1.08-.4266-.48-.7533-1.054-.98-1.72-.2266-.667-.34-1.42-.34-2.26 0-1.014.1534-1.967.46-2.86.3067-.894.7067-1.714 1.2-2.46.4934-.747 1.04-1.407 1.64-1.98.6-.587 1.1934-1.074 1.78-1.46h3c-.8.573-1.52 1.126-2.16 1.66-.64.533-1.2 1.08-1.68 1.64-.4666.56-.86 1.153-1.18 1.78-.32.613-.5666 1.3-.74 2.06l.14.04c.1467-.28.32-.54.52-.78.2-.254.4334-.474.7-.66.2667-.187.5734-.334.92-.44.3467-.107.74-.16 1.18-.16.6 0 1.1534.1 1.66.3.5067.2.9467.493 1.32.88.3734.373.66.826.86 1.36.2134.533.32 1.133.32 1.8 0 .693-.12 1.333-.36 1.92-.2266.573-.56 1.066-1 1.48-.4266.413-.9466.74-1.56.98-.6133.226-1.2933.34-2.04.34zm-.02-1.8c.8534 0 1.5134-.227 1.98-.68.4667-.467.7-1.12.7-1.96v-.2c0-.84-.2333-1.487-.7-1.94-.4666-.467-1.1266-.7-1.98-.7-.84 0-1.4933.233-1.96.7-.4666.453-.7 1.1-.7 1.94v.2c0 .84.2334 1.493.7 1.96.4667.453 1.12.68 1.96.68z"/><path fill="#FF7CCA" d="M79.4323 314.276c-1.0133 0-1.8933-.154-2.64-.46-.7466-.32-1.3266-.78-1.74-1.38l1.36-1.2c.7334.933 1.7934 1.4 3.18 1.4.7867 0 1.4-.14 1.84-.42.4534-.28.68-.68.68-1.2 0-.4-.1266-.674-.38-.82-.24-.16-.5466-.274-.92-.34l-1.5-.26c-.3866-.067-.76-.16-1.12-.28-.3466-.12-.6533-.28-.92-.48-.2666-.214-.4866-.48-.66-.8-.16-.32-.24-.714-.24-1.18 0-.56.1134-1.047.34-1.46.24-.427.56-.78.96-1.06.4134-.294.8934-.507 1.44-.64.5467-.147 1.14-.22 1.78-.22.92 0 1.7134.14 2.38.42.68.266 1.2134.633 1.6 1.1l-1.32 1.26c-.2-.28-.5266-.54-.98-.78-.4533-.24-1.0533-.36-1.8-.36-.7466 0-1.32.133-1.72.4-.3866.266-.58.64-.58 1.12 0 .413.1267.693.38.84.2667.146.5867.253.96.32l1.5.28c.3734.066.7334.16 1.08.28.3467.106.6534.26.92.46.28.186.5.44.66.76.1734.306.26.693.26 1.16 0 .546-.1133 1.04-.34 1.48-.2266.44-.5533.813-.98 1.12-.4133.306-.92.54-1.52.7-.5866.16-1.24.24-1.96.24zm14.0522-.24l.4-2.44h-.08c-.3866.8-.8533 1.446-1.4 1.94-.5466.493-1.2666.74-2.16.74-1.0666 0-1.86-.347-2.38-1.04-.5066-.694-.76-1.68-.76-2.96 0-.827.0934-1.647.28-2.46.2-.814.5-1.54.9-2.18.4-.64.9-1.16 1.5-1.56.6134-.4 1.3334-.6 2.16-.6.7867 0 1.4134.18 1.88.54.4667.36.7934.88.98 1.56h.1l.3-1.86h2.14l-1.72 10.32h-2.14zm-2.38-1.5c.7867 0 1.4934-.36 2.12-1.08.2267-.254.44-.567.64-.94.2-.374.34-.8.42-1.28l.34-2.06c.1067-.6-.0266-1.074-.4-1.42-.36-.36-.9-.54-1.62-.54-.8933 0-1.5866.273-2.08.82-.48.533-.7933 1.22-.94 2.06l-.24 1.42c-.0266.12-.0466.26-.06.42-.0133.146-.02.293-.02.44 0 .653.1467 1.18.44 1.58.2934.386.76.58 1.4.58zm7.0722 1.5l1.72-10.32h1.8203l-.28 1.7h.1c.24-.56.533-1.02.88-1.38.36-.374.82-.56 1.38-.56.56 0 .973.18 1.24.54.28.36.393.846.34 1.46h.08c.253-.6.573-1.08.96-1.44.4-.374.906-.56 1.52-.56.586 0 1.026.166 1.32.5.306.333.46.82.46 1.46 0 .2-.014.446-.04.74-.027.28-.06.54-.1.78l-1.18 7.08h-1.82l1.14-6.82c.026-.187.053-.387.08-.6.026-.214.04-.387.04-.52 0-.654-.26-.98-.78-.98-.454 0-.834.246-1.14.74-.147.24-.28.506-.4.8-.12.28-.207.573-.26.88l-1.08 6.5h-1.82l1.16-6.92c.026-.187.046-.36.06-.52.026-.174.04-.334.04-.48 0-.667-.24-1-.72-1-.454 0-.847.246-1.18.74-.174.253-.307.52-.4.8-.094.266-.167.526-.22.78l-1.1003 6.6h-1.82zm14.4723-10.32h2.14l-.4 2.44h.08c.2-.4.413-.76.64-1.08.227-.334.48-.62.76-.86s.593-.42.94-.54c.36-.134.767-.2 1.22-.2 1.067 0 1.853.346 2.36 1.04.52.693.78 1.68.78 2.96 0 .826-.1 1.646-.3 2.46-.187.813-.48 1.54-.88 2.18-.4.64-.907 1.16-1.52 1.56-.6.4-1.313.6-2.14.6-.787 0-1.413-.18-1.88-.54-.467-.36-.793-.88-.98-1.56h-.1l-.96 5.86h-2.14l2.38-14.32zm3.02 8.82c.893 0 1.58-.267 2.06-.8.493-.547.813-1.24.96-2.08l.24-1.42c.027-.12.047-.254.06-.4.013-.16.02-.314.02-.46 0-.654-.147-1.174-.44-1.56-.293-.4-.76-.6-1.4-.6-.8 0-1.507.36-2.12 1.08-.227.253-.44.566-.64.94-.2.373-.34.8-.42 1.28l-.34 2.06c-.107.6.02 1.08.38 1.44.373.346.92.52 1.64.52zm11.612 1.74c-.667 0-1.153-.167-1.46-.5-.293-.334-.44-.78-.44-1.34 0-.267.04-.614.12-1.04l2-10.42h-3.4l.3-1.74h5.58l-2.54 13.16.42.14 3.56-3.22 1.2 1.1-1.72 1.68c-.427.413-.807.76-1.14 1.04-.333.28-.64.506-.92.68-.28.16-.547.273-.8.34-.253.08-.507.12-.76.12zm12.412 0c-1.413 0-2.48-.374-3.2-1.12-.706-.747-1.06-1.847-1.06-3.3 0-.947.14-1.807.42-2.58.294-.787.694-1.46 1.2-2.02.52-.56 1.134-.994 1.84-1.3.72-.32 1.514-.48 2.38-.48.52 0 1 .06 1.44.18.44.12.82.3 1.14.54.334.226.594.52.78.88.187.346.28.746.28 1.2 0 .386-.086.78-.26 1.18-.16.4-.5.766-1.02 1.1-.52.333-1.26.613-2.22.84-.96.226-2.226.366-3.8.42-.013.093-.02.18-.02.26v.14c0 .32.034.626.1.92.08.28.207.526.38.74.174.213.407.38.7.5.307.12.694.18 1.16.18.334 0 .634-.034.9-.1.28-.08.54-.2.78-.36.254-.16.5-.367.74-.62.254-.267.52-.594.8-.98l1.4.9c-.28.44-.58.84-.9 1.2-.32.346-.68.646-1.08.9-.386.24-.82.426-1.3.56-.466.146-.993.22-1.58.22zm1.38-9.18c-.88 0-1.6.26-2.16.78s-.926 1.313-1.1 2.38l-.04.22c1.12-.04 2.007-.127 2.66-.26.667-.147 1.174-.314 1.52-.5.36-.2.587-.414.68-.64.107-.227.16-.447.16-.66 0-.387-.133-.7-.4-.94-.253-.254-.693-.38-1.32-.38zm20.285-5.86h2.14l-1.14 6.92h.08c.2-.4.413-.76.64-1.08.226-.334.48-.62.76-.86s.593-.42.94-.54c.36-.134.766-.2 1.22-.2 1.066 0 1.853.346 2.36 1.04.52.693.78 1.68.78 2.96 0 .826-.1 1.646-.3 2.46-.187.813-.48 1.54-.88 2.18-.4.64-.907 1.16-1.52 1.56-.6.4-1.314.6-2.14.6-.787 0-1.414-.18-1.88-.54-.467-.36-.794-.88-.98-1.56h-.1l-.3 1.86h-2.14l2.46-14.8zm2.28 13.3c.893 0 1.58-.267 2.06-.8.493-.547.813-1.24.96-2.08l.24-1.42c.026-.12.046-.254.06-.4.013-.16.02-.314.02-.46 0-.654-.147-1.174-.44-1.56-.294-.4-.76-.6-1.4-.6-.8 0-1.507.36-2.12 1.08-.227.253-.44.566-.64.94-.2.373-.34.8-.42 1.28l-.34 2.06c-.107.6.02 1.08.38 1.44.373.346.92.52 1.64.52zm10.672 5.74c-.893 0-1.66-.114-2.3-.34-.627-.227-1.153-.6-1.58-1.12l1.36-1.36c.573.72 1.42 1.08 2.54 1.08.853 0 1.54-.227 2.06-.68.533-.454.893-1.267 1.08-2.44l.34-2.14h-.08c-.387.826-.84 1.48-1.36 1.96-.52.48-1.2.72-2.04.72-.92 0-1.62-.274-2.1-.82-.467-.56-.7-1.28-.7-2.16 0-.24.007-.487.02-.74.027-.267.073-.574.14-.92l.92-5.6h2.14l-.94 5.68c-.027.186-.053.386-.08.6-.027.2-.04.386-.04.56 0 .466.113.86.34 1.18.24.32.627.48 1.16.48.4 0 .753-.094 1.06-.28.32-.187.613-.44.88-.76.133-.16.32-.44.56-.84.253-.4.427-.874.52-1.42l.86-5.2h2.14l-1.68 10.04c-.267 1.586-.853 2.733-1.76 3.44-.907.72-2.06 1.08-3.46 1.08z"/><path fill="#fff" d="M194.954 314.036l.3-1.84h3.9l1.76-10.48h-.18l-3.74 3.48-1.24-1.26 4.12-3.86h3.5l-2.02 12.12h3.38l-.3 1.84h-9.48zm20.292-6.68l.78-4.24h-.16l-4.04 7.18-1.62-7.18h-.16l-.64 4.24-1.1 6.68h-1.96l2.32-13.96h2.6l1.24 5.58h.14l3.1-5.58h2.66l-2.32 13.96h-1.96l1.12-6.68zm7.333 3.66h3.04l-3.38 5.92h-1.72l2.06-5.92zm1.84-4.26c-.56 0-.96-.1-1.2-.3-.227-.214-.34-.474-.34-.78 0-.107.006-.22.02-.34.026-.12.053-.274.08-.46.066-.427.253-.76.56-1 .32-.24.76-.36 1.32-.36s.953.106 1.18.32c.24.2.36.453.36.76 0 .106-.014.22-.04.34-.014.12-.034.273-.06.46-.067.426-.26.76-.58 1-.307.24-.74.36-1.3.36z"/><path fill="#909194" d="M40.5323 314.036l5.18-12.1h-5.44v2.58h-1.94v-4.44h9.62v1.96l-5.04 12h-2.38zM43.1523 351.276c-.8266 0-1.5533-.1-2.18-.3-.6266-.214-1.1533-.5-1.58-.86-.4266-.36-.7533-.787-.98-1.28-.2133-.494-.32-1.034-.32-1.62 0-.934.26-1.68.78-2.24.52-.56 1.2-.954 2.04-1.18v-.16c-.72-.254-1.3-.654-1.74-1.2-.44-.547-.66-1.22-.66-2.02 0-1.08.4-1.947 1.2-2.6.8134-.654 1.96-.98 3.44-.98s2.62.326 3.42.98c.8134.653 1.22 1.52 1.22 2.6 0 .8-.22 1.473-.66 2.02-.44.546-1.02.946-1.74 1.2v.16c.84.226 1.52.62 2.04 1.18.52.56.78 1.306.78 2.24 0 .586-.1133 1.126-.34 1.62-.2133.493-.5333.92-.96 1.28-.4266.36-.9533.646-1.58.86-.6266.2-1.3533.3-2.18.3zm0-1.78c.88 0 1.5534-.194 2.02-.58.48-.387.72-.934.72-1.64v-.42c0-.707-.24-1.254-.72-1.64-.4666-.387-1.14-.58-2.02-.58-.88 0-1.56.193-2.04.58-.4666.386-.7.933-.7 1.64v.42c0 .706.2334 1.253.7 1.64.48.386 1.16.58 2.04.58zm0-6.58c.8 0 1.4067-.174 1.82-.52.4267-.36.64-.86.64-1.5v-.26c0-.64-.2133-1.134-.64-1.48-.4133-.36-1.02-.54-1.82-.54s-1.4133.18-1.84.54c-.4133.346-.62.84-.62 1.48v.26c0 .64.2067 1.14.62 1.5.4267.346 1.04.52 1.84.52z"/><path fill="#fff" d="M305.453 105.036h176v109c0 3.313-2.686 6-6 6h-164c-3.314 0-6-2.687-6-6v-109z"/><path fill="#D14671" d="M314.509 125.561v-1.116h2.352v-6.276h-.096l-1.944 2.076-.828-.744 2.136-2.316h2.076v7.26h2.028v1.116h-5.724zM319.993 146.907h-5.784v-1.284l2.736-2.388c.432-.384.764-.748.996-1.092.24-.344.36-.708.36-1.092v-.132c0-.44-.12-.776-.36-1.008-.24-.24-.588-.36-1.044-.36-.464 0-.824.124-1.08.372-.248.248-.428.564-.54.948l-1.176-.444c.08-.264.196-.516.348-.756.152-.248.344-.468.576-.66.24-.192.52-.344.84-.456.328-.112.704-.168 1.128-.168.432 0 .816.064 1.152.192.344.12.632.288.864.504.232.216.408.476.528.78.12.296.18.624.18.984 0 .336-.052.648-.156.936-.096.28-.236.552-.42.816-.176.256-.388.504-.636.744s-.52.48-.816.72l-2.028 1.704h4.332v1.14zM316.705 163.333c.536 0 .932-.112 1.188-.336.264-.232.396-.52.396-.864v-.084c0-.384-.128-.676-.384-.876-.248-.208-.584-.312-1.008-.312-.408 0-.756.092-1.044.276-.28.184-.516.436-.708.756l-.912-.78c.128-.184.276-.36.444-.528.168-.168.36-.312.576-.432.216-.128.464-.228.744-.3.28-.08.596-.12.948-.12.392 0 .756.048 1.092.144.336.096.628.24.876.432.248.184.44.412.576.684.136.264.204.564.204.9 0 .264-.044.504-.132.72-.08.216-.196.408-.348.576-.144.16-.316.292-.516.396-.2.104-.412.18-.636.228v.06c.24.048.468.128.684.24.216.104.408.244.576.42.168.168.3.372.396.612.096.232.144.5.144.804 0 .368-.072.704-.216 1.008-.144.296-.352.552-.624.768-.264.216-.584.384-.96.504-.376.112-.796.168-1.26.168-.392 0-.74-.044-1.044-.132-.296-.08-.56-.188-.792-.324-.232-.144-.436-.304-.612-.48-.168-.184-.316-.372-.444-.564l.996-.768c.208.336.452.612.732.828.288.208.68.312 1.176.312.528 0 .932-.12 1.212-.36.28-.248.42-.588.42-1.02v-.096c0-.432-.148-.76-.444-.984-.288-.232-.708-.348-1.26-.348h-.9v-1.128h.864zM317.797 189.599v-1.632h-3.984v-1.152l3.504-5.592h1.764v5.688h1.176v1.056h-1.176v1.632h-1.284zm-2.844-2.688h2.844v-4.452h-.072l-2.772 4.452zM319.585 203.732h-3.804l-.216 2.976h.096c.192-.328.424-.588.696-.78.272-.2.644-.3 1.116-.3.36 0 .692.06.996.18.312.12.58.292.804.516.232.224.412.5.54.828.136.32.204.684.204 1.092 0 .416-.068.8-.204 1.152-.136.344-.332.644-.588.9-.256.248-.572.444-.948.588-.376.136-.804.204-1.284.204-.376 0-.712-.044-1.008-.132-.288-.08-.548-.188-.78-.324-.224-.144-.42-.304-.588-.48-.168-.184-.316-.372-.444-.564l.984-.768c.104.16.212.312.324.456.12.136.252.256.396.36.144.104.308.184.492.24.192.056.408.084.648.084.52 0 .916-.14 1.188-.42.272-.288.408-.676.408-1.164v-.096c0-.488-.14-.868-.42-1.14-.272-.272-.664-.408-1.176-.408-.376 0-.672.068-.888.204-.216.136-.404.288-.564.456l-1.116-.156.312-4.668h4.824v1.164z"/><path fill="#EAEAEA" d="M305.453 102.036c0-3.3142 2.686-6.0005 6-6.0005h164c3.314 0 6 2.6863 6 6.0005v3h-176v-3z"/><circle cx="311.127" cy="100.514" r="1.49286" fill="#6422F1"/><circle cx="315.307" cy="100.514" r="1.49286" fill="#F46591"/><circle cx="319.486" cy="100.514" r="1.49286" fill="#2BD38D"/><rect width="86" height="7" x="326.453" y="119.036" fill="#D7D7D7" rx="3.5"/><rect width="52.5485" height="7.16571" x="346.656" y="140.058" fill="#EAEAEA" rx="3.58285"/><rect width="16" height="7" x="326.453" y="140.036" fill="#EAEAEA" rx="3.5"/><rect width="37.62" height="7.16571" x="326.95" y="161.036" fill="#D7D7D7" rx="3.58285"/><rect width="37.62" height="7.16571" x="326.95" y="181.036" fill="#EAEAEA" rx="3.58285"/><rect width="60" height="7" x="326.453" y="202.036" fill="#EAEAEA" rx="3.5"/><rect width="33.44" height="7.16571" x="368.153" y="181.036" fill="#D7D7D7" rx="3.58285"/><rect width="22.6914" height="7.16571" x="405.176" y="181.036" fill="#EAEAEA" rx="3.58285"/><rect width="37.62" height="7.16571" x="369.453" y="161.036" fill="#EAEAEA" rx="3.58285"/><g filter="url(#filter0_d)"><rect width="219.878" height="171.017" x="281.453" y="294.168" fill="#D14671" rx="5"/></g><path stroke="#fff" stroke-linecap="round" stroke-linejoin="round" stroke-miterlimit="10" stroke-opacity=".1" stroke-width="2.11" d="M304.012 362.643l22.397 17.603 17.58-24.159 21.433 17.118 13.004-16.146 11.921 15.175 30.464-16.147 9.512 24.159 21.433-11.047 26.972 12.019"/><path stroke="#fff" stroke-linecap="round" stroke-linejoin="round" stroke-miterlimit="10" d="M297.74 407.742l25.744-26.847 17.5 16.469 21.558-45.572 21.559 6.994 22.699-29.329 5.2 84.151 13.315-43.316 15.471 18.725 14.457-22.11 29.801 10.604"/><circle cx="297.74" cy="408.179" r="2.41455" fill="#D14671" stroke="#fff" stroke-width=".6"/><circle cx="322.171" cy="381.033" r="2.41455" fill="#D14671" stroke="#fff" stroke-width=".6"/><circle cx="341.173" cy="397.321" r="2.41455" fill="#D14671" stroke="#fff" stroke-width=".6"/><circle cx="362.89" cy="351.173" r="2.41455" fill="#D14671" stroke="#fff" stroke-width=".6"/><circle cx="406.322" cy="329.457" r="2.41455" fill="#D14671" stroke="#fff" stroke-width=".6"/><circle cx="487.759" cy="378.319" r="2.41455" fill="#D14671" stroke="#fff" stroke-width=".6"/><circle cx="411.751" cy="413.608" r="2.41455" fill="#D14671" stroke="#fff" stroke-width=".6"/><circle cx="384.606" cy="359.317" r="2.41455" fill="#D14671" stroke="#fff" stroke-width=".6"/><circle cx="425.324" cy="370.175" r="2.41455" fill="#D14671" stroke="#fff" stroke-width=".6"/><circle cx="455.184" cy="367.461" r="2.41455" fill="#D14671" stroke="#fff" stroke-width=".6"/><circle cx="441.612" cy="389.177" r="2.41455" fill="#D14671" stroke="#fff" stroke-width=".6"/><path fill="#fff" d="M295.026 435.324h195.448v5.4291H295.026z"/><defs><filter id="filter0_d" width="227.878" height="179.017" x="277.453" y="294.168" color-interpolation-filters="sRGB" filterUnits="userSpaceOnUse"><feFlood flood-opacity="0" result="BackgroundImageFix"/><feColorMatrix in="SourceAlpha" values="0 0 0 0 0 0 0 0 0 0 0 0 0 0 0 0 0 0 127 0"/><feOffset dy="4"/><feGaussianBlur stdDeviation="2"/><feColorMatrix values="0 0 0 0 0 0 0 0 0 0 0 0 0 0 0 0 0 0 0.17 0"/><feBlend in2="BackgroundImageFix" result="effect1_dropShadow"/><feBlend in="SourceGraphic" in2="effect1_dropShadow" result="shape"/></filter></defs></svg>
