<svg width="108" height="27" viewBox="0 0 108 27" fill="none" xmlns="http://www.w3.org/2000/svg">
<path d="M42.9751 19.3427L43.9687 20.8102C44.0098 20.8666 44.0341 20.9335 44.0388 21.0032C44.0388 21.1247 43.9161 21.1774 43.7773 21.1774H42.4291C42.3621 21.1827 42.2947 21.1734 42.2316 21.1501C42.1685 21.1268 42.1112 21.0901 42.0638 21.0424C42.0638 21.0424 41.2549 20.3269 40.3718 19.5574C37.3533 19.3292 35.3647 17.4784 35.3647 13.4081C35.3647 9.51203 37.6674 7.53833 41.0162 7.53833C44.4015 7.53833 46.6691 9.51203 46.6691 13.4081C46.6731 17.0194 45.12 18.7501 42.9751 19.3427ZM41.0378 8.96663C38.9104 8.96663 37.3438 10.0318 37.3438 13.4729C37.3438 17.1598 38.8794 18.0508 41.0419 18.0508C43.2043 18.0508 44.7237 17.1598 44.7237 13.4729C44.7196 10.0142 43.114 8.96663 41.0378 8.96663Z" fill="white"/>
<path d="M56.8924 19.1701C55.8273 19.3443 54.3309 19.59 53.1175 19.59C50.1516 19.59 48.5809 18.5937 48.5809 15.6061V9.68369C48.5781 9.65996 48.5807 9.6359 48.5885 9.61332C48.5963 9.59075 48.6092 9.57024 48.626 9.55334C48.6429 9.53645 48.6634 9.5236 48.6859 9.51578C48.7085 9.50796 48.7325 9.50536 48.7562 9.50819H50.2392C50.3605 9.50819 50.4306 9.56084 50.4306 9.66614V15.6925C50.4306 17.4043 51.2503 18.0861 53.0299 18.0861C53.6932 18.0861 54.4603 18.0334 55.0521 17.9808C55.1573 17.9632 55.2274 17.9281 55.2274 17.8066V9.66614C55.2274 9.54329 55.2611 9.50819 55.4013 9.50819H56.8843C57.0056 9.50819 57.0757 9.56084 57.0757 9.66614V18.942C57.0793 18.9691 57.0773 18.9967 57.0699 19.0231C57.0626 19.0494 57.0499 19.074 57.0328 19.0953C57.0156 19.1166 56.9944 19.1343 56.9702 19.1471C56.9461 19.16 56.9196 19.1678 56.8924 19.1701Z" fill="white"/>
<path d="M68.5705 15.2726H61.2783C61.1731 15.2726 61.1206 15.2902 61.1206 15.4481C61.1907 17.6486 62.6736 18.1387 64.8186 18.1387C65.6275 18.1387 66.5119 18.0685 67.4529 18.0037C67.523 18.0037 67.6106 18.0212 67.6106 18.1265V18.1616L67.4529 19.2268C67.4178 19.3483 67.3652 19.3483 67.2439 19.3834C66.2443 19.5305 65.2357 19.6067 64.2254 19.6115C61.2432 19.6115 59.2372 18.3709 59.2372 14.4815C59.2372 10.7258 61.3942 9.45142 64.0164 9.45142C67.2089 9.45142 68.7269 11.2334 68.7269 15.1106C68.7269 15.2213 68.6743 15.2726 68.5705 15.2726ZM63.9126 10.8365C62.2018 10.8365 61.103 11.7815 61.103 13.7188C61.103 13.8538 61.1381 13.8929 61.2608 13.8929H66.6682C66.7909 13.8929 66.8597 13.8754 66.8597 13.7363C66.8084 11.7788 65.6558 10.8365 63.9126 10.8365Z" fill="white"/>
<path d="M73.6097 19.6061C72.6563 19.5969 71.7053 19.5088 70.7664 19.3429C70.6316 19.3078 70.5925 19.274 70.5925 19.1512V18.0901C70.5925 18.0542 70.6067 18.0199 70.632 17.9946C70.6572 17.9693 70.6915 17.9551 70.7273 17.9551H70.7799C71.2504 17.9726 72.368 18.0604 73.2928 18.0604C74.5305 18.0604 76.0135 18.0077 76.0135 16.6456C76.0135 14.2871 70.486 15.3523 70.486 11.9813C70.486 9.91985 72.643 9.43115 74.5305 9.43115C75.4253 9.45495 76.3174 9.54247 77.1998 9.69305C77.3225 9.72815 77.3913 9.797 77.3913 9.88475L77.2174 10.8973C77.2174 10.9675 77.1648 11.0201 77.0596 11.0201H77.0259C76.1973 10.925 75.3644 10.8723 74.5305 10.8622C73.5018 10.8622 72.333 10.9148 72.333 11.9989C72.333 13.8673 77.8456 13.0289 77.8456 16.4876C77.8523 18.6976 76.1604 19.6061 73.6097 19.6061Z" fill="white"/>
<path d="M85.0406 19.2563C85.0055 19.3603 84.9529 19.3913 84.8302 19.4129C84.2356 19.5044 83.6359 19.5586 83.0345 19.5749C81.3762 19.5749 80.6442 18.8405 80.6442 17.0761V10.8701C80.6442 10.7486 80.5916 10.696 80.4703 10.696H79.2826C79.1612 10.696 79.1086 10.6258 79.1086 10.5043V9.66593C79.1086 9.56063 79.1612 9.50798 79.2826 9.50798H80.4851C80.5889 9.50798 80.6415 9.45668 80.6415 9.33383V7.03883C80.6415 6.91598 80.6766 6.86333 80.8154 6.82823L82.2984 6.67163C82.4211 6.67163 82.4898 6.72428 82.4898 6.84578V9.33383C82.4898 9.45668 82.5249 9.50798 82.6651 9.50798H84.5525C84.6873 9.50798 84.7278 9.56063 84.7278 9.68348V10.5218C84.7278 10.6258 84.6927 10.6784 84.5525 10.6784H82.6651C82.5424 10.6784 82.4898 10.7486 82.4898 10.8701V16.6049C82.4898 17.6174 82.6476 18.0373 83.9566 18.0373H85.0203C85.1767 18.0373 85.1942 18.1075 85.1942 18.2114L85.0406 19.2563Z" fill="white"/>
<path d="M91.1466 19.4831H87.117C86.9943 19.4831 86.9592 19.448 86.9592 19.3076V7.79619C86.9592 7.66119 87.0118 7.60449 87.117 7.60449H91.3906C94.4793 7.60449 97.0785 8.82759 97.0785 13.1773C97.0785 17.9981 94.4618 19.4831 91.1466 19.4831ZM91.4783 8.98419H89.0003C88.8655 8.98419 88.8089 9.05439 88.8089 9.15834V17.8591C88.8089 17.9806 88.844 18.0332 88.9828 18.0332H91.5133C93.572 18.0332 95.2113 16.7224 95.2113 13.4432C95.2113 10.1897 93.7108 8.98419 91.4783 8.98419Z" fill="white"/>
<path d="M104.144 19.4831H99.2421C99.1208 19.4831 99.0857 19.4129 99.0857 19.3076V7.77864C99.0857 7.65714 99.1383 7.60449 99.2596 7.60449H103.726C105.436 7.60449 107.338 8.30244 107.338 10.4867C107.338 12.181 106.36 12.9667 105.68 13.1071V13.211C106.325 13.346 108 13.7713 108 16.1459C108 18.7325 105.82 19.4831 104.144 19.4831ZM103.08 8.98419H101.112C101.085 8.97934 101.058 8.98106 101.032 8.98921C101.006 8.99735 100.983 9.01167 100.964 9.03094C100.944 9.05021 100.93 9.07384 100.922 9.0998C100.914 9.12575 100.913 9.15326 100.918 9.17994V12.3551C100.918 12.4901 100.952 12.5482 101.092 12.5482H103.359C104.075 12.5482 105.471 12.3727 105.471 10.7311C105.471 9.15834 104.232 8.98419 103.08 8.98419ZM103.808 13.9049H101.092C100.969 13.9049 100.918 13.94 100.918 14.0791V17.8712C100.918 17.9927 100.969 18.0278 101.092 18.0278H103.653C104.822 18.0278 106.131 17.7308 106.131 15.9664C106.134 14.4868 105.139 13.9049 103.808 13.9049Z" fill="white"/>
<path d="M21.4467 9.47983C20.8943 8.40145 20.1278 7.44742 19.1941 6.67625C18.2604 5.90508 17.1792 5.33301 16.0168 4.99513C14.8545 4.65725 13.6355 4.56068 12.4345 4.71134C11.2336 4.862 10.076 5.25672 9.03286 5.87128L2.92163 5.83888C3.68005 4.79981 4.58251 3.87431 5.60178 3.09028C6.74128 2.21795 8.01607 1.53887 9.37529 1.08013C11.6914 0.282282 13.5465 0.355182 13.564 0.356532C17.6234 0.540132 20.3709 2.12638 21.9644 3.42913C22.6625 4.00273 23.2955 4.65148 23.8519 5.36368L21.4467 9.47983Z" fill="white" />
<path d="M12.1592 26.595C9.49268 26.3141 6.97353 25.2316 4.933 23.49C3.11702 21.951 2.21915 20.385 2.05737 20.0893C1.16651 18.4118 0.605412 16.5786 0.404518 14.6893C0.301778 13.6235 0.329395 12.549 0.486756 11.4898C0.631121 10.5301 0.886751 9.59042 1.24847 8.68994L6.0668 8.71559C5.9976 8.82179 5.93019 8.93249 5.86458 9.04769C4.92065 10.6549 4.51045 12.5206 4.69302 14.3761C4.82961 15.7815 5.29648 17.1346 6.05544 18.3247C6.81439 19.5148 7.84389 20.5081 9.05972 21.2233L9.12039 21.2598L12.1592 26.595Z" fill="white" />
<path d="M27.6494 25.3259C23.1897 22.2047 19.6777 25.5959 15.3232 26.2885L13.0852 22.4329C14.2982 22.4986 15.5117 22.3142 16.6506 21.8911C17.7895 21.4679 18.8295 20.8151 19.7061 19.9731C20.5828 19.1311 21.2774 18.1178 21.747 16.9959C22.2166 15.8741 22.4511 14.6676 22.4361 13.4513L25.4897 8.22412C25.8257 9.15712 26.096 10.1126 26.2986 11.0834C26.3821 11.51 26.4482 11.9609 26.4927 12.4334C26.616 13.8675 26.5929 15.3105 26.4239 16.7399C26.3444 17.4176 26.3358 18.1017 26.3983 18.7811C26.6235 21.1126 27.7707 22.9877 29.7175 24.2122L27.6494 25.3259Z" fill="white" />
</svg>
