<svg version="1.1" xmlns="http://www.w3.org/2000/svg" xmlns:xlink="http://www.w3.org/1999/xlink" x="0px" y="0px" width="512px" height="512px" viewBox="0 0 512 512" enable-background="new 0 0 512 512" xml:space="preserve">
<g><path fill="#ffffff" d="M504.733,232.029L352.459,79.755c-9.29-9.291-24.357-9.291-33.648,0c-9.292,9.292-9.292,24.356,0,33.648l111.657,111.657   H23.793C10.654,225.061,0,235.715,0,248.854c0,13.138,10.654,23.793,23.793,23.793h406.675L318.814,384.303   c-9.292,9.294-9.292,24.357,0,33.648c4.646,4.643,10.735,6.97,16.824,6.97c6.09,0,12.179-2.327,16.824-6.97l152.271-152.273   C514.025,256.386,514.025,241.321,504.733,232.029z"/></g>
</svg>
